<svg width="143" height="104" viewBox="0 0 143 104" fill="none" xmlns="http://www.w3.org/2000/svg">
<g clip-path="url(#clip0_1065:3607)">
<path d="M91.1266 77.9658V103.036H28.5259C21.3934 103.036 15.5903 97.4126 15.5903 90.5009C15.5903 83.5892 21.3934 77.9658 28.5259 77.9658H91.1266Z" fill="#F2F2F2"/>
<path d="M92.6645 102.843C92.6644 103.098 92.5631 103.344 92.3829 103.524C92.2027 103.705 91.9583 103.807 91.7035 103.807H27.4111C23.9193 103.807 20.5705 102.415 18.1014 99.9377C15.6322 97.4603 14.2451 94.1003 14.2451 90.5968C14.2451 87.0933 15.6322 83.7332 18.1014 81.2559C20.5705 78.7785 23.9193 77.3867 27.4111 77.3867H91.7035C91.9583 77.3867 92.2028 77.4883 92.383 77.6691C92.5632 77.85 92.6645 78.0952 92.6645 78.351C92.6645 78.6067 92.5632 78.8519 92.383 79.0328C92.2028 79.2136 91.9583 79.3152 91.7035 79.3152H27.4111C24.429 79.3152 21.5691 80.5038 19.4604 82.6195C17.3518 84.7352 16.1672 87.6047 16.1672 90.5968C16.1672 93.5888 17.3518 96.4584 19.4604 98.5741C21.5691 100.69 24.429 101.878 27.4111 101.878H91.7035C91.9583 101.878 92.2027 101.98 92.3829 102.161C92.5631 102.342 92.6644 102.587 92.6645 102.843Z" fill="url(#paint0_linear_1065:3607)"/>
<path d="M91.1268 83.7509H23.8553C23.8043 83.7509 23.7554 83.7306 23.7194 83.6945C23.6833 83.6583 23.6631 83.6092 23.6631 83.5581C23.6631 83.5069 23.6833 83.4579 23.7194 83.4217C23.7554 83.3856 23.8043 83.3652 23.8553 83.3652H91.1268C91.1778 83.3652 91.2267 83.3856 91.2627 83.4217C91.2988 83.4579 91.319 83.5069 91.319 83.5581C91.319 83.6092 91.2988 83.6583 91.2627 83.6945C91.2267 83.7306 91.1778 83.7509 91.1268 83.7509Z" fill="#CCCCCC"/>
<path d="M91.1268 88.3798H23.8553C23.8043 88.3798 23.7554 88.3595 23.7194 88.3234C23.6833 88.2872 23.6631 88.2381 23.6631 88.187C23.6631 88.1358 23.6833 88.0868 23.7194 88.0506C23.7554 88.0145 23.8043 87.9941 23.8553 87.9941H91.1268C91.1778 87.9941 91.2267 88.0145 91.2627 88.0506C91.2988 88.0868 91.319 88.1358 91.319 88.187C91.319 88.2381 91.2988 88.2872 91.2627 88.3234C91.2267 88.3595 91.1778 88.3798 91.1268 88.3798Z" fill="#CCCCCC"/>
<path d="M91.1268 93.0078H23.8553C23.8043 93.0078 23.7554 92.9875 23.7194 92.9513C23.6833 92.9151 23.6631 92.8661 23.6631 92.8149C23.6631 92.7638 23.6833 92.7147 23.7194 92.6786C23.7554 92.6424 23.8043 92.6221 23.8553 92.6221H91.1268C91.1778 92.6221 91.2267 92.6424 91.2627 92.6786C91.2988 92.7147 91.319 92.7638 91.319 92.8149C91.319 92.8661 91.2988 92.9151 91.2627 92.9513C91.2267 92.9875 91.1778 93.0078 91.1268 93.0078Z" fill="#CCCCCC"/>
<path d="M91.1268 97.6357H23.8553C23.8043 97.6357 23.7554 97.6154 23.7194 97.5792C23.6833 97.543 23.6631 97.494 23.6631 97.4428C23.6631 97.3917 23.6833 97.3427 23.7194 97.3065C23.7554 97.2703 23.8043 97.25 23.8553 97.25H91.1268C91.1778 97.25 91.2267 97.2703 91.2627 97.3065C91.2988 97.3427 91.319 97.3917 91.319 97.4428C91.319 97.494 91.2988 97.543 91.2627 97.5792C91.2267 97.6154 91.1778 97.6357 91.1268 97.6357Z" fill="#CCCCCC"/>
<path d="M139.508 82.6847L123.831 102.206L75.0846 62.798C69.5307 58.3079 68.5284 50.2759 72.8505 44.8939C77.1726 39.5119 85.2078 38.7862 90.7617 43.2763L139.508 82.6847Z" fill="#F2F2F2"/>
<path d="M124.503 103.378L124.477 103.129C124.664 103.109 124.836 103.015 124.954 102.868C125.072 102.72 125.128 102.531 125.107 102.343C125.087 102.154 124.993 101.982 124.846 101.863L124.503 103.378ZM124.503 103.378L124.477 103.129C124.289 103.149 124.102 103.094 123.955 102.976L73.8917 62.5023C71.2243 60.3458 69.5197 57.2143 69.1532 53.7966C68.7868 50.3788 69.7886 46.9551 71.938 44.2786C74.0873 41.6021 77.2082 39.8922 80.6138 39.5246C84.0194 39.157 87.4312 40.1619 90.0986 42.3183L140.162 82.7917L140.162 82.7918C140.235 82.8506 140.295 82.9232 140.34 83.0055C140.385 83.0879 140.413 83.1784 140.423 83.2718C140.433 83.3652 140.425 83.4596 140.399 83.5498C140.372 83.6399 140.328 83.7239 140.27 83.7969C140.211 83.8699 140.139 83.9306 140.057 83.9755C139.975 84.0204 139.885 84.0486 139.792 84.0586C139.699 84.0686 139.606 84.0602 139.516 84.0338C139.427 84.0073 139.343 83.9635 139.27 83.9046L139.27 83.9045L89.2071 43.4312C89.2071 43.4312 89.207 43.4312 89.207 43.4311C88.0318 42.4803 86.6813 41.771 85.2327 41.3439C83.7841 40.9167 82.2658 40.7801 80.7645 40.9418C79.2632 41.1036 77.8085 41.5605 76.4833 42.2865C75.1581 43.0124 73.9885 43.9932 73.0413 45.1727C72.0941 46.3522 71.3878 47.7073 70.9628 49.1607C70.5377 50.614 70.4022 52.1372 70.5639 53.6431C70.7257 55.149 71.1815 56.6082 71.9055 57.9373C72.6294 59.2665 73.6073 60.4395 74.7833 61.3895C74.7833 61.3895 74.7833 61.3895 74.7834 61.3895L124.846 101.863L124.503 103.378Z" stroke="black" stroke-width="0.5"/>
<path d="M135.89 87.1899L83.5072 44.8411C83.4875 44.8252 83.4712 44.8055 83.4591 44.7833C83.447 44.7611 83.4393 44.7367 83.4366 44.7115C83.4339 44.6863 83.4362 44.6609 83.4433 44.6366C83.4504 44.6123 83.4622 44.5896 83.4781 44.5699C83.4939 44.5502 83.5135 44.5338 83.5356 44.5216C83.5578 44.5095 83.5821 44.5019 83.6072 44.4992C83.6323 44.4964 83.6577 44.4987 83.6819 44.5059C83.7061 44.513 83.7287 44.5248 83.7483 44.5407L136.131 86.8895C136.151 86.9054 136.167 86.925 136.18 86.9473C136.192 86.9695 136.199 86.9939 136.202 87.0191C136.205 87.0443 136.202 87.0698 136.195 87.0941C136.188 87.1185 136.176 87.1411 136.161 87.1609C136.145 87.1806 136.125 87.197 136.103 87.2091C136.081 87.2213 136.056 87.2289 136.031 87.2316C136.006 87.2343 135.981 87.232 135.957 87.2248C135.932 87.2177 135.91 87.2058 135.89 87.1899V87.1899Z" fill="#CCCCCC"/>
<path d="M132.996 90.7933L80.6129 48.4444C80.5733 48.4123 80.548 48.3657 80.5426 48.3149C80.5372 48.2641 80.5521 48.2132 80.5841 48.1734C80.616 48.1336 80.6624 48.1082 80.713 48.1027C80.7637 48.0972 80.8144 48.1121 80.8541 48.1441L133.237 90.4929C133.257 90.5088 133.273 90.5284 133.285 90.5506C133.297 90.5729 133.305 90.5973 133.308 90.6225C133.311 90.6477 133.308 90.6732 133.301 90.6975C133.294 90.7218 133.282 90.7445 133.266 90.7642C133.251 90.784 133.231 90.8004 133.209 90.8125C133.187 90.8247 133.162 90.8323 133.137 90.835C133.112 90.8377 133.087 90.8354 133.062 90.8282C133.038 90.8211 133.016 90.8092 132.996 90.7933Z" fill="#CCCCCC"/>
<path d="M130.102 94.3979L77.7186 52.0491C77.6789 52.017 77.6535 51.9704 77.6481 51.9195C77.6426 51.8687 77.6575 51.8177 77.6895 51.7779C77.7215 51.7381 77.7679 51.7126 77.8186 51.7072C77.8693 51.7017 77.9201 51.7166 77.9598 51.7487L130.343 94.0976C130.362 94.1135 130.379 94.1331 130.391 94.1553C130.403 94.1775 130.411 94.2019 130.413 94.2271C130.416 94.2523 130.414 94.2777 130.407 94.302C130.399 94.3263 130.388 94.349 130.372 94.3687C130.356 94.3884 130.336 94.4048 130.314 94.417C130.292 94.4291 130.268 94.4368 130.243 94.4395C130.218 94.4422 130.192 94.4399 130.168 94.4328C130.144 94.4256 130.121 94.4138 130.102 94.3979V94.3979Z" fill="#CCCCCC"/>
<path d="M127.208 98.0014L74.8245 55.6526C74.8049 55.6367 74.7885 55.6171 74.7764 55.5948C74.7644 55.5726 74.7567 55.5482 74.754 55.523C74.7513 55.4979 74.7536 55.4724 74.7607 55.4481C74.7678 55.4238 74.7796 55.4011 74.7955 55.3814C74.8113 55.3617 74.8309 55.3453 74.853 55.3332C74.8752 55.321 74.8995 55.3134 74.9246 55.3107C74.9497 55.308 74.9751 55.3102 74.9993 55.3174C75.0235 55.3245 75.0461 55.3364 75.0657 55.3523L127.449 97.7011C127.468 97.7169 127.485 97.7365 127.497 97.7588C127.509 97.781 127.517 97.8054 127.519 97.8306C127.522 97.8558 127.52 97.8813 127.513 97.9056C127.506 97.93 127.494 97.9526 127.478 97.9724C127.462 97.9921 127.443 98.0085 127.42 98.0207C127.398 98.0328 127.374 98.0404 127.349 98.0431C127.324 98.0458 127.298 98.0435 127.274 98.0364C127.25 98.0292 127.227 98.0173 127.208 98.0014Z" fill="#CCCCCC"/>
<path d="M142.808 104H0.192204C0.141229 104 0.0923405 103.98 0.0562952 103.943C0.0202499 103.907 0 103.858 0 103.807C0 103.756 0.0202499 103.707 0.0562952 103.671C0.0923405 103.635 0.141229 103.614 0.192204 103.614H142.808C142.859 103.614 142.908 103.635 142.944 103.671C142.98 103.707 143 103.756 143 103.807C143 103.858 142.98 103.907 142.944 103.943C142.908 103.98 142.859 104 142.808 104Z" fill="#CCCCCC"/>
<path d="M64.7313 67.0765L64.7306 75.0802L63.0045 75.08L62.0209 67.0762L64.7313 67.0765Z" fill="#F4F7FA" stroke="black" stroke-width="0.5"/>
<path d="M61.2136 74.9502H65.2013V77.1273H58.8083C58.8323 76.8942 58.8899 76.6655 58.9796 76.4482C59.1012 76.1537 59.2794 75.8861 59.504 75.6608C59.7285 75.4354 59.9951 75.2567 60.2885 75.1348C60.5818 75.0129 60.8961 74.9502 61.2136 74.9502Z" fill="#F4F7FA" stroke="black" stroke-width="0.5"/>
<path d="M42.2831 67.0765L42.2823 75.0802L40.5562 75.08L39.5726 67.0762L42.2831 67.0765Z" fill="#F4F7FA" stroke="black" stroke-width="0.5"/>
<path d="M38.7653 74.9502H42.753V77.1273H36.36C36.3841 76.8942 36.4417 76.6655 36.5314 76.4482C36.6529 76.1537 36.8311 75.8861 37.0557 75.6608C37.2803 75.4354 37.5469 75.2567 37.8402 75.1348C38.1335 75.0129 38.4479 74.9502 38.7653 74.9502Z" fill="#F4F7FA" stroke="black" stroke-width="0.5"/>
<path d="M49.8716 12.2519V11.2877C49.8716 9.63822 50.5246 8.05631 51.6871 6.88996C52.8496 5.72361 54.4262 5.06836 56.0702 5.06836H56.0702C57.7141 5.06836 59.2908 5.72361 60.4532 6.88996C61.6157 8.05631 62.2688 9.63822 62.2688 11.2877V12.2519C62.2688 13.4411 61.798 14.5815 60.9599 15.4224C60.1219 16.2633 58.9852 16.7356 57.8 16.7356H54.3403C53.7535 16.7356 53.1724 16.6197 52.6302 16.3944C52.0881 16.169 51.5954 15.8388 51.1805 15.4224C50.7655 15.0061 50.4363 14.5118 50.2117 13.9678C49.9872 13.4238 49.8716 12.8408 49.8716 12.2519Z" fill="#7247FF"/>
<path d="M60.5406 12.3313C60.5406 14.8099 58.5382 16.8178 56.0699 16.8178C53.6015 16.8178 51.5991 14.8099 51.5991 12.3313C51.5991 9.85263 53.6015 7.84473 56.0699 7.84473C58.5382 7.84473 60.5406 9.85263 60.5406 12.3313Z" fill="#F4F7FA" stroke="black" stroke-width="0.5"/>
<path d="M30.0729 29.7921C30.1082 29.4169 30.2769 29.0674 30.5475 28.8072L30.5644 28.7912C30.7294 28.6349 30.9266 28.5168 31.1419 28.4452C31.3572 28.3736 31.5856 28.3503 31.8108 28.3768C32.0361 28.4034 32.2528 28.4792 32.4458 28.5989C32.6388 28.7186 32.8034 28.8794 32.9279 29.07L33.0194 29.21L33.1838 29.1788L37.0373 28.4475L37.8883 30.3282L32.4758 31.2767L32.4333 31.2841L32.3957 31.3054C32.0628 31.494 31.6726 31.5535 31.299 31.4727C30.9254 31.3918 30.5941 31.1763 30.368 30.8666C30.1419 30.5569 30.0368 30.1746 30.0729 29.7921Z" fill="#F4F7FA" stroke="black" stroke-width="0.5"/>
<mask id="path-21-inside-1_1065:3607" fill="white">
<path d="M52.3897 20.0507L52.4426 20.1312L45.8066 24.5174L34.6091 28.105C34.4606 28.1528 34.3333 28.2508 34.2488 28.3822C34.1643 28.5137 34.1278 28.6705 34.1455 28.8259L34.3898 30.9369C34.4006 31.0303 34.4308 31.1205 34.4783 31.2015C34.5259 31.2826 34.5899 31.3527 34.666 31.4075C34.7422 31.4623 34.829 31.5006 34.9208 31.5198C35.0125 31.539 35.1073 31.5387 35.199 31.519L45.7375 29.2525C46.2475 29.1435 46.7297 28.9304 47.1543 28.6266L54.6095 23.3046C54.8798 23.1107 55.0954 22.8498 55.2355 22.5474C55.3755 22.2451 55.4352 21.9115 55.4088 21.5791C55.3814 21.2463 55.2682 20.9264 55.0802 20.6508C54.8923 20.3752 54.6361 20.1535 54.3368 20.0074C54.0375 19.8613 53.7055 19.7958 53.3733 19.8175C53.0412 19.8393 52.7204 19.9473 52.4426 20.1312L52.3897 20.0507Z"/>
</mask>
<path d="M52.3897 20.0507L52.4426 20.1312L45.8066 24.5174L34.6091 28.105C34.4606 28.1528 34.3333 28.2508 34.2488 28.3822C34.1643 28.5137 34.1278 28.6705 34.1455 28.8259L34.3898 30.9369C34.4006 31.0303 34.4308 31.1205 34.4783 31.2015C34.5259 31.2826 34.5899 31.3527 34.666 31.4075C34.7422 31.4623 34.829 31.5006 34.9208 31.5198C35.0125 31.539 35.1073 31.5387 35.199 31.519L45.7375 29.2525C46.2475 29.1435 46.7297 28.9304 47.1543 28.6266L54.6095 23.3046C54.8798 23.1107 55.0954 22.8498 55.2355 22.5474C55.3755 22.2451 55.4352 21.9115 55.4088 21.5791C55.3814 21.2463 55.2682 20.9264 55.0802 20.6508C54.8923 20.3752 54.6361 20.1535 54.3368 20.0074C54.0375 19.8613 53.7055 19.7958 53.3733 19.8175C53.0412 19.8393 52.7204 19.9473 52.4426 20.1312L52.3897 20.0507Z" fill="#F4F7FA"/>
<path d="M52.3897 20.0507L52.8074 19.7759L51.9719 20.3254L52.3897 20.0507ZM52.4426 20.1312L52.7183 20.5483L53.1345 20.2732L52.8603 19.8564L52.4426 20.1312ZM45.8066 24.5174L45.9591 24.9935L46.0248 24.9725L46.0823 24.9345L45.8066 24.5174ZM34.6091 28.105L34.4565 27.6288L34.4557 27.6291L34.6091 28.105ZM34.1455 28.8259L33.6487 28.8825L33.6488 28.8834L34.1455 28.8259ZM34.3898 30.9369L33.8931 30.9944L33.8931 30.9945L34.3898 30.9369ZM35.199 31.519L35.304 32.0079L35.3041 32.0078L35.199 31.519ZM45.7375 29.2525L45.6329 28.7636L45.6324 28.7637L45.7375 29.2525ZM47.1543 28.6266L46.8638 28.2197L46.8634 28.22L47.1543 28.6266ZM54.6095 23.3046L54.9 23.7116L54.9011 23.7108L54.6095 23.3046ZM55.4088 21.5791L55.9072 21.5395L55.9071 21.5382L55.4088 21.5791ZM52.4426 20.1312L52.0248 20.4059L52.3003 20.8248L52.7184 20.5482L52.4426 20.1312ZM51.9719 20.3255L52.0249 20.4059L52.8603 19.8564L52.8074 19.7759L51.9719 20.3255ZM52.1669 19.714L45.5309 24.1002L46.0823 24.9345L52.7183 20.5483L52.1669 19.714ZM45.654 24.0412L34.4565 27.6288L34.7616 28.5811L45.9591 24.9935L45.654 24.0412ZM34.4557 27.6291C34.1968 27.7125 33.9752 27.8833 33.8283 28.1118L34.6694 28.6527C34.6914 28.6183 34.7245 28.5931 34.7625 28.5808L34.4557 27.6291ZM33.8283 28.1118C33.6813 28.3403 33.6179 28.6127 33.6487 28.8825L34.6423 28.7692C34.6376 28.7283 34.6473 28.6871 34.6694 28.6527L33.8283 28.1118ZM33.6488 28.8834L33.8931 30.9944L34.8864 30.8794L34.6422 28.7684L33.6488 28.8834ZM33.8931 30.9945C33.9119 31.1569 33.9644 31.3136 34.0472 31.4547L34.9095 30.9484C34.8972 30.9273 34.8893 30.9038 34.8864 30.8793L33.8931 30.9945ZM34.0472 31.4547C34.13 31.5957 34.2413 31.7179 34.3741 31.8134L34.958 31.0016C34.9384 30.9876 34.9219 30.9694 34.9095 30.9484L34.0472 31.4547ZM34.3741 31.8134C34.5069 31.909 34.6582 31.9757 34.8184 32.0092L35.0231 31.0304C34.9998 31.0255 34.9776 31.0157 34.958 31.0016L34.3741 31.8134ZM34.8184 32.0092C34.9786 32.0427 35.144 32.0422 35.304 32.0079L35.094 31.0302C35.0706 31.0352 35.0465 31.0352 35.0231 31.0304L34.8184 32.0092ZM35.3041 32.0078L45.8426 29.7413L45.6324 28.7637L35.0939 31.0302L35.3041 32.0078ZM45.842 29.7415C46.4192 29.618 46.9649 29.377 47.4453 29.0333L46.8634 28.22C46.4946 28.4839 46.0758 28.6689 45.6329 28.7636L45.842 29.7415ZM47.4448 29.0336L54.9 23.7116L54.319 22.8977L46.8638 28.2197L47.4448 29.0336ZM54.9011 23.7108C55.2415 23.4665 55.5129 23.1381 55.6892 22.7576L54.7818 22.3373C54.6779 22.5615 54.5181 22.7548 54.318 22.8984L54.9011 23.7108ZM55.6892 22.7576C55.8654 22.3771 55.9405 21.9575 55.9072 21.5395L54.9103 21.6188C54.93 21.8655 54.8857 22.113 54.7818 22.3373L55.6892 22.7576ZM55.9071 21.5382C55.8727 21.1192 55.7301 20.7163 55.4933 20.3691L54.6672 20.9325C54.8063 21.1365 54.8902 21.3735 54.9104 21.6201L55.9071 21.5382ZM55.4933 20.3691C55.2565 20.0219 54.9336 19.7423 54.5561 19.558L54.1174 20.4567C54.3386 20.5646 54.5281 20.7285 54.6672 20.9325L55.4933 20.3691ZM54.5561 19.558C54.1787 19.3738 53.7598 19.2912 53.3407 19.3186L53.4059 20.3165C53.6511 20.3005 53.8963 20.3487 54.1174 20.4567L54.5561 19.558ZM53.3407 19.3186C52.9217 19.346 52.5171 19.4824 52.1667 19.7142L52.7184 20.5482C52.9238 20.4123 53.1607 20.3325 53.4059 20.3165L53.3407 19.3186ZM52.8603 19.8564L52.8074 19.776L51.9719 20.3254L52.0248 20.4059L52.8603 19.8564Z" fill="black" mask="url(#path-21-inside-1_1065:3607)"/>
<path d="M52.1855 47.3287L52.1856 47.3287L52.183 47.3227C52.1392 47.2218 52.0656 47.1366 51.9719 47.0788C51.8782 47.0209 51.769 46.9932 51.6591 46.9994C51.5491 47.0056 51.4438 47.0454 51.3572 47.1135C51.2717 47.1806 51.2086 47.272 51.176 47.3756L42.9587 71.6857L42.9586 71.6857L42.9565 71.6925C42.9318 71.7731 42.8909 71.8478 42.8364 71.9119C42.7819 71.976 42.7149 72.0282 42.6397 72.0653C42.5645 72.1024 42.4825 72.1237 42.3988 72.1278C42.3152 72.1319 42.2315 72.1188 42.1531 72.0893C42.1531 72.0893 42.1531 72.0893 42.153 72.0893L39.3972 71.0524L39.3965 71.0521C39.2903 71.0126 39.1971 70.9442 39.1272 70.8545C39.0573 70.7648 39.0135 70.6573 39.0008 70.544L39.0007 70.5435C38.6955 67.8758 39.1315 64.1669 39.9715 60.0792C40.8101 55.9978 42.0462 51.5628 43.3257 47.4534C45.7088 39.7992 48.2384 33.2884 48.6178 32.3215L58.1875 34.4455C58.6372 34.9536 59.0934 35.8005 59.5458 36.9315C60.0066 38.0836 60.4548 39.5077 60.8862 41.1198C61.7488 44.3437 62.5389 48.3006 63.2262 52.2972C64.6004 60.2893 65.5598 68.4197 65.8636 71.1172L65.8637 71.1181C65.8799 71.2568 65.8484 71.3969 65.7746 71.5152C65.7008 71.6334 65.5892 71.7228 65.4583 71.7687L65.4574 71.769L63.0248 72.6322L63.0247 72.6322C62.9597 72.6553 62.8913 72.6671 62.8224 72.6671C62.7024 72.6671 62.585 72.6321 62.4845 72.5663C62.3848 72.501 62.306 72.4082 62.2574 72.299L52.1855 47.3287Z" fill="#F4F7FA" stroke="black" stroke-width="0.5"/>
<path d="M49.5104 29.3407C49.9699 29.6817 49.115 31.4981 48.4682 32.5629L48.4427 32.6049L49.5104 29.3407ZM49.5104 29.3407C48.6052 28.6693 48.166 27.5646 48.205 26.0574C48.2897 22.7856 50.5116 19.8808 53.7339 18.829L49.5104 29.3407ZM50.8893 34.3778C49.8883 34.0343 49.1069 33.4801 48.7228 32.6247C49.0421 32.0908 49.4041 31.39 49.6381 30.7685C49.7595 30.4461 49.8519 30.131 49.8809 29.8654C49.8954 29.7327 49.8956 29.5991 49.8677 29.4776C49.8394 29.3541 49.7782 29.2282 49.6594 29.14L49.6593 29.14C48.8405 28.5325 48.4173 27.5198 48.4549 26.0639C48.5367 22.904 50.6834 20.0891 53.8082 19.0678L53.8104 19.0671C54.7007 18.7812 55.6066 18.5472 56.5238 18.3661L56.525 18.3659C57.1642 18.2364 57.8241 18.2507 58.4572 18.4075C59.0903 18.5644 59.681 18.86 60.1868 19.2732L60.1873 19.2737C60.6998 19.6898 61.1141 20.2147 61.4005 20.8107C61.6868 21.4067 61.838 22.059 61.8432 22.7207L61.8432 22.7212C61.8769 26.2057 61.3385 30.9975 58.65 34.2692C58.5588 34.3788 58.4321 34.4526 58.2923 34.4777L58.2919 34.4778C56.9844 34.7151 55.6589 34.8395 54.3302 34.8495C53.1492 34.8495 51.9182 34.7308 50.8893 34.3778Z" fill="#F4F7FA" stroke="black" stroke-width="0.5"/>
<path d="M53.6829 35.0371L53.6833 35.0358C53.7957 34.6314 54.0625 34.288 54.4256 34.0801C54.7882 33.8725 55.2176 33.8168 55.6209 33.9248C55.7026 33.9478 55.7823 33.9775 55.8593 34.0135L56.0106 34.0844L56.1339 33.9718L59.0612 31.2988L60.7683 32.4527L56.6149 36.1405L56.5828 36.1689L56.5621 36.2065C56.3906 36.5167 56.1207 36.7603 55.7956 36.8986C55.4706 37.0369 55.109 37.0623 54.7681 36.9707C54.5701 36.9162 54.3848 36.823 54.2228 36.6962C54.0607 36.5694 53.9252 36.4115 53.8242 36.2317C53.7231 36.0518 53.6586 35.8537 53.6344 35.6486C53.6101 35.4435 53.6266 35.2357 53.6829 35.0371Z" fill="#F4F7FA" stroke="black" stroke-width="0.5"/>
<path d="M58.5513 34.7536H58.5512C58.4098 34.7537 58.2727 34.7046 58.1631 34.6146L58.1629 34.6145L56.9512 33.621C56.8794 33.5621 56.8217 33.4876 56.7825 33.403C56.7433 33.3185 56.7237 33.2261 56.7252 33.1328C56.7266 33.0395 56.7491 32.9477 56.7908 32.8644C56.8326 32.7811 56.8925 32.7085 56.9661 32.6518L56.9661 32.6518L62.0483 28.7409L62.0488 28.7406C62.1611 28.6537 62.2346 28.526 62.2536 28.3855C62.2725 28.2449 62.2355 28.1024 62.1503 27.9888L62.15 27.9883L59.0131 23.8274L59.0129 23.8271C58.684 23.3923 58.519 22.8547 58.5472 22.3093C58.5753 21.764 58.7949 21.2464 59.1668 20.8481L59.1678 20.847C59.5593 20.4227 60.0954 20.1618 60.6695 20.1157C61.2362 20.0703 61.7993 20.2374 62.2501 20.5845L65.5124 25.2713L65.5337 25.3019L65.563 25.325C65.8869 25.5798 66.1478 25.9063 66.3252 26.2791C66.5026 26.652 66.5917 27.0609 66.5856 27.4741C66.5795 27.8872 66.4782 28.2934 66.2898 28.6607C66.1014 29.028 65.831 29.3466 65.4997 29.5916L65.4997 29.5916L65.4963 29.5942L58.9159 34.6337C58.8101 34.7116 58.6824 34.7536 58.5513 34.7536Z" fill="#F4F7FA" stroke="black" stroke-width="0.5"/>
<path d="M51.8882 10.9985V8.64846L56.0697 6.81641L60.0569 8.64846V10.9985C60.0569 11.1008 60.0164 11.1989 59.9443 11.2713C59.8722 11.3436 59.7744 11.3842 59.6725 11.3842H52.2726C52.1706 11.3842 52.0729 11.3436 52.0008 11.2713C51.9287 11.1989 51.8882 11.1008 51.8882 10.9985Z" fill="#7247FF"/>
<path d="M55.8783 5.38037C55.2635 3.4059 56.5547 1.14306 58.4636 0.361514C60.3725 -0.420034 62.6562 0.126292 64.2669 1.41753C65.8776 2.70876 66.877 4.64279 67.4065 6.64199C67.936 8.6412 68.0365 10.7259 68.1343 12.7922C70.4796 13.2244 72.075 16.0155 71.2625 18.2649C70.4501 20.5142 67.4429 21.6317 65.3661 20.4561C63.2894 19.2804 62.6878 16.1199 64.1867 14.2591C64.8959 13.3787 65.2921 12.2859 65.3125 11.154C65.3329 10.0221 64.9763 8.91574 64.2992 8.01012C63.6222 7.10451 62.6633 6.45142 61.5746 6.15431C60.4858 5.85719 59.3294 5.93303 58.2884 6.3698C57.1325 6.8548 55.6822 5.59468 55.8783 5.38037Z" fill="#7247FF"/>
<path d="M29.5252 19.4935C26.7172 19.475 23.9443 18.8656 21.3857 17.7048C21.2334 17.6367 21.1041 17.5256 21.0136 17.3851C20.9231 17.2446 20.8753 17.0807 20.876 16.9134V9.89028C20.8762 9.66019 20.9674 9.43961 21.1296 9.27692C21.2917 9.11423 21.5116 9.02272 21.7409 9.02246H37.3095C37.5388 9.02272 37.7586 9.11423 37.9208 9.27692C38.0829 9.43961 38.1741 9.6602 38.1744 9.89028V16.9134C38.1751 17.0807 38.1273 17.2446 38.0368 17.3851C37.9463 17.5257 37.817 17.6367 37.6647 17.7048C35.106 18.8657 32.3332 19.475 29.5252 19.4935Z" fill="url(#paint1_linear_1065:3607)"/>
<path d="M29.523 13.8042C29.4075 13.8043 29.2933 13.7813 29.1869 13.7364L16.8412 8.51036C16.682 8.44297 16.5466 8.32928 16.4523 8.18394C16.3581 8.0386 16.3095 7.86828 16.3126 7.69494C16.3158 7.5216 16.3707 7.35318 16.4701 7.2114C16.5696 7.06963 16.7091 6.96099 16.8706 6.8995L29.2164 2.20024C29.4153 2.12421 29.6351 2.12468 29.8337 2.20156L42.0141 6.90081C42.1747 6.96279 42.3133 7.07146 42.412 7.2129C42.5108 7.35433 42.5652 7.52212 42.5684 7.69478C42.5716 7.86744 42.5233 8.03712 42.4299 8.18212C42.3364 8.32713 42.2019 8.44085 42.0437 8.50875L29.8631 13.7348C29.7556 13.7807 29.6399 13.8044 29.523 13.8042Z" fill="url(#paint2_linear_1065:3607)"/>
<path d="M22.3178 18.1823C22.9547 18.1823 23.471 17.6643 23.471 17.0253C23.471 16.3862 22.9547 15.8682 22.3178 15.8682C21.6809 15.8682 21.1646 16.3862 21.1646 17.0253C21.1646 17.6643 21.6809 18.1823 22.3178 18.1823Z" fill="#3F3D56"/>
<path opacity="0.2" d="M42.086 7.76701L29.9054 12.993C29.8104 13.0338 29.7083 13.0549 29.605 13.0551C29.5017 13.0554 29.3994 13.0348 29.3043 12.9945L16.9586 7.76854C16.8036 7.70448 16.6742 7.5904 16.591 7.44435C16.5366 7.53906 16.5028 7.64431 16.4921 7.7531C16.4813 7.8619 16.4937 7.97175 16.5284 8.07537C16.5632 8.17899 16.6195 8.274 16.6937 8.35409C16.7679 8.43419 16.8582 8.49754 16.9586 8.53993L29.3043 13.7659C29.3994 13.8062 29.5017 13.8268 29.605 13.8265C29.7083 13.8263 29.8104 13.8052 29.9054 13.7644L42.086 8.5384C42.1859 8.49563 42.2757 8.43209 42.3493 8.35196C42.423 8.27182 42.4788 8.17693 42.5132 8.07353C42.5477 7.97014 42.5598 7.8606 42.5489 7.75214C42.5381 7.64368 42.5044 7.53877 42.4501 7.44434C42.3675 7.58922 42.2395 7.70266 42.086 7.76701Z" fill="black"/>
<path d="M22.4149 17.0214C22.4658 17.0214 22.5147 17.0011 22.5508 16.965C22.5868 16.9288 22.6071 16.8797 22.6071 16.8286V10.3756L28.9462 8.05855C28.9972 8.05931 29.0464 8.03972 29.0829 8.00409C29.1195 7.96847 29.1405 7.91972 29.1413 7.86857C29.142 7.81742 29.1225 7.76807 29.087 7.73137C29.0515 7.69466 29.0029 7.67361 28.9519 7.67285L22.6128 9.98994C22.5618 9.98877 22.5111 9.99799 22.4637 10.0171C22.4164 10.0361 22.3733 10.0646 22.3373 10.1009C22.3009 10.1367 22.2719 10.1794 22.2523 10.2266C22.2326 10.2738 22.2225 10.3245 22.2227 10.3756V16.8286C22.2227 16.8797 22.2429 16.9288 22.279 16.965C22.315 17.0011 22.3639 17.0214 22.4149 17.0214Z" fill="#3F3D56"/>
</g>
<defs>
<linearGradient id="paint0_linear_1065:3607" x1="13.8221" y1="78.6814" x2="95.5242" y2="80.3818" gradientUnits="userSpaceOnUse">
<stop stop-color="#4614E8"/>
<stop offset="1" stop-color="#BCA7FF"/>
</linearGradient>
<linearGradient id="paint1_linear_1065:3607" x1="20.7827" y1="9.53559" x2="38.8106" y2="9.74442" gradientUnits="userSpaceOnUse">
<stop stop-color="#4614E8"/>
<stop offset="1" stop-color="#BCA7FF"/>
</linearGradient>
<linearGradient id="paint2_linear_1065:3607" x1="16.1709" y1="2.71498" x2="43.531" y2="3.14695" gradientUnits="userSpaceOnUse">
<stop stop-color="#4614E8"/>
<stop offset="1" stop-color="#BCA7FF"/>
</linearGradient>
<clipPath id="clip0_1065:3607">
<rect width="143" height="104" fill="white"/>
</clipPath>
</defs>
</svg>
