<svg width="214" height="197" viewBox="0 0 214 197" fill="none" xmlns="http://www.w3.org/2000/svg">
<g opacity="0.15">
<path d="M141.822 91.4199L60.7009 138.758C60.4169 138.923 60.079 138.969 59.7611 138.886C59.4432 138.803 59.1713 138.597 59.0052 138.314L6.83928 49.1995C6.67377 48.916 6.62764 48.5785 6.71101 48.2611C6.79438 47.9437 7.00044 47.6723 7.28398 47.5064L88.4047 0.1686C88.6886 0.00335259 89.0266 -0.042704 89.3445 0.0405343C89.6624 0.123773 89.9342 0.329509 90.1004 0.612608L142.266 89.7269C142.432 90.0103 142.478 90.3478 142.395 90.6652C142.311 90.9826 142.105 91.254 141.822 91.4199Z" fill="white"/>
<path d="M141.822 91.4199L60.7009 138.758C60.4169 138.923 60.079 138.969 59.7611 138.886C59.4432 138.803 59.1713 138.597 59.0052 138.314L6.83928 49.1995C6.67377 48.916 6.62764 48.5785 6.71101 48.2611C6.79438 47.9437 7.00044 47.6723 7.28398 47.5064L88.4047 0.1686C88.6886 0.00335259 89.0266 -0.042704 89.3445 0.0405343C89.6624 0.123773 89.9342 0.329509 90.1004 0.612608L142.266 89.7269C142.432 90.0103 142.478 90.3478 142.395 90.6652C142.311 90.9826 142.105 91.254 141.822 91.4199ZM7.53418 47.9338C7.36405 48.0334 7.24041 48.1962 7.19038 48.3867C7.14036 48.5771 7.16805 48.7796 7.26736 48.9496L59.4333 138.064C59.5329 138.234 59.696 138.357 59.8868 138.407C60.0775 138.457 60.2803 138.429 60.4507 138.33L141.571 90.9925C141.742 90.8929 141.865 90.7301 141.915 90.5396C141.965 90.3492 141.938 90.1467 141.838 89.9766L89.6723 0.862398C89.5726 0.69253 89.4095 0.569081 89.2188 0.519137C89.028 0.469193 88.8252 0.496832 88.6549 0.595992L7.53418 47.9338Z" fill="#3F3D56"/>
<path d="M59.679 56.8083L39.5593 68.5491C39.2754 68.7143 38.9374 68.7604 38.6195 68.6771C38.3016 68.5939 38.0298 68.3882 37.8636 68.1051L26.1044 48.017C25.9389 47.7335 25.8928 47.396 25.9761 47.0786C26.0595 46.7612 26.2656 46.4898 26.5491 46.3239L46.6688 34.5832C46.9527 34.4179 47.2907 34.3718 47.6085 34.4551C47.9264 34.5383 48.1983 34.7441 48.3644 35.0272L60.1236 55.1153C60.2892 55.3987 60.3353 55.7362 60.2519 56.0536C60.1686 56.371 59.9625 56.6424 59.679 56.8083ZM26.7993 46.7513C26.6292 46.8509 26.5055 47.0137 26.4555 47.2042C26.4055 47.3946 26.4332 47.5971 26.5325 47.7671L38.2917 67.8553C38.3914 68.0251 38.5545 68.1486 38.7452 68.1985C38.936 68.2485 39.1388 68.2208 39.3091 68.1217L59.4288 56.3809C59.5989 56.2813 59.7225 56.1185 59.7726 55.9281C59.8226 55.7376 59.7949 55.5351 59.6956 55.3651L47.9364 35.277C47.8367 35.1071 47.6736 34.9836 47.4828 34.9337C47.2921 34.8838 47.0893 34.9114 46.919 35.0106L26.7993 46.7513Z" fill="#F2F2F2"/>
<path d="M55.3382 62.6383L35.2186 74.379C34.963 74.5278 34.6589 74.5692 34.3728 74.4943C34.0866 74.4194 33.842 74.2342 33.6925 73.9794L21.9332 53.8913C21.7843 53.6362 21.7428 53.3325 21.8178 53.0469C21.8928 52.7612 22.0783 52.5169 22.3335 52.3676L42.4531 40.6268C42.7086 40.4781 43.0128 40.4367 43.2989 40.5116C43.585 40.5865 43.8297 40.7717 43.9792 41.0265L55.7384 61.1145C55.8874 61.3697 55.9289 61.6734 55.8539 61.959C55.7789 62.2447 55.5934 62.489 55.3382 62.6383V62.6383Z" fill="#7247FF"/>
<path d="M103.901 47.4881L40.9735 84.2093C40.718 84.3584 40.4137 84.4 40.1275 84.3251C39.8413 84.2501 39.5967 84.0647 39.4474 83.8097C39.2981 83.5546 39.2564 83.2508 39.3314 82.9651C39.4065 82.6793 39.5922 82.435 39.8476 82.286L102.775 45.5648C102.901 45.491 103.041 45.4428 103.186 45.4229C103.332 45.4031 103.479 45.4119 103.621 45.449C103.763 45.4861 103.896 45.5508 104.012 45.6392C104.129 45.7276 104.227 45.8381 104.301 45.9644C104.375 46.0907 104.423 46.2303 104.443 46.3752C104.463 46.5201 104.454 46.6675 104.417 46.809C104.38 46.9505 104.315 47.0833 104.227 47.1998C104.138 47.3164 104.027 47.4143 103.901 47.4881Z" fill="#CCCCCC"/>
<path d="M92.5821 62.9813L44.8514 90.8344C44.7249 90.9082 44.5851 90.9564 44.44 90.9763C44.2948 90.9962 44.1472 90.9873 44.0055 90.9502C43.7193 90.8753 43.4746 90.6899 43.3253 90.4348C43.176 90.1798 43.1343 89.8759 43.2093 89.5902C43.2844 89.3044 43.4701 89.0602 43.7255 88.9111L91.4562 61.058C91.5827 60.9842 91.7225 60.9359 91.8676 60.9161C92.0128 60.8962 92.1604 60.9051 92.3021 60.9422C92.4438 60.9793 92.5768 61.0439 92.6935 61.1323C92.8102 61.2208 92.9084 61.3313 92.9823 61.4576C93.0562 61.5839 93.1045 61.7235 93.1244 61.8684C93.1443 62.0133 93.1354 62.1607 93.0982 62.3022C93.0611 62.4437 92.9964 62.5765 92.9078 62.693C92.8192 62.8095 92.7085 62.9075 92.5821 62.9813V62.9813Z" fill="#CCCCCC"/>
<path d="M89.426 23.2508L61.6009 39.4881C61.3455 39.6371 61.0412 39.6788 60.755 39.6039C60.4688 39.5289 60.2241 39.3435 60.0748 39.0885C59.9255 38.8334 59.8838 38.5296 59.9589 38.2439C60.0339 37.9581 60.2196 37.7138 60.475 37.5647L88.3001 21.3275C88.5556 21.1784 88.8598 21.1368 89.146 21.2117C89.2878 21.2488 89.4208 21.3134 89.5375 21.4019C89.6542 21.4903 89.7523 21.6008 89.8262 21.7271C89.9001 21.8534 89.9484 21.993 89.9683 22.1379C89.9882 22.2828 89.9793 22.4302 89.9422 22.5717C89.905 22.7132 89.8403 22.846 89.7517 22.9625C89.6632 23.0791 89.5525 23.177 89.426 23.2508Z" fill="#CCCCCC"/>
<path d="M86.3597 33.9281L65.4789 46.1131C65.3524 46.1869 65.2126 46.2351 65.0674 46.2549C64.9223 46.2748 64.7746 46.2659 64.6329 46.2288C64.4912 46.1917 64.3582 46.1271 64.2415 46.0387C64.1248 45.9503 64.0267 45.8397 63.9527 45.7134C63.8788 45.5872 63.8305 45.4476 63.8106 45.3027C63.7907 45.1577 63.7996 45.0103 63.8368 44.8688C63.874 44.7273 63.9387 44.5945 64.0272 44.478C64.1158 44.3615 64.2265 44.2635 64.353 44.1897L85.2338 32.0047C85.4893 31.8557 85.7936 31.814 86.0798 31.889C86.366 31.9639 86.6106 32.1493 86.7599 32.4044C86.9092 32.6594 86.951 32.9632 86.8759 33.249C86.8008 33.5347 86.6151 33.779 86.3597 33.9281Z" fill="#CCCCCC"/>
<path d="M111.657 60.7377L48.7293 97.4588C48.4739 97.6079 48.1696 97.6495 47.8834 97.5746C47.5972 97.4996 47.3525 97.3142 47.2032 97.0592C47.0539 96.8041 47.0122 96.5003 47.0873 96.2146C47.1623 95.9288 47.348 95.6845 47.6035 95.5355L110.531 58.8143C110.786 58.6653 111.091 58.6236 111.377 58.6985C111.663 58.7735 111.908 58.9589 112.057 59.2139C112.206 59.469 112.248 59.7728 112.173 60.0585C112.098 60.3443 111.912 60.5886 111.657 60.7376V60.7377Z" fill="#CCCCCC"/>
<path d="M100.338 76.2308L52.6078 104.084C52.4813 104.158 52.3415 104.206 52.1963 104.226C52.0512 104.246 51.9035 104.237 51.7618 104.2C51.6201 104.163 51.4871 104.098 51.3704 104.01C51.2537 103.921 51.1556 103.811 51.0816 103.684C51.0077 103.558 50.9594 103.418 50.9395 103.274C50.9196 103.129 50.9285 102.981 50.9657 102.84C51.0029 102.698 51.0676 102.565 51.1561 102.449C51.2447 102.332 51.3554 102.234 51.4819 102.161L99.2125 74.3075C99.339 74.2337 99.4788 74.1855 99.624 74.1656C99.7691 74.1457 99.9168 74.1546 100.058 74.1917C100.2 74.2288 100.333 74.2934 100.45 74.3819C100.567 74.4703 100.665 74.5808 100.739 74.7071C100.813 74.8334 100.861 74.973 100.881 75.1179C100.901 75.2628 100.892 75.4102 100.855 75.5517C100.817 75.6932 100.753 75.826 100.664 75.9425C100.576 76.059 100.465 76.157 100.338 76.2308V76.2308Z" fill="#CCCCCC"/>
<path d="M119.413 73.9876L56.4857 110.709C56.3592 110.783 56.2194 110.831 56.0743 110.851C55.9291 110.871 55.7815 110.862 55.6397 110.825C55.498 110.788 55.365 110.723 55.2483 110.634C55.1316 110.546 55.0335 110.436 54.9596 110.309C54.8856 110.183 54.8374 110.043 54.8175 109.898C54.7976 109.754 54.8065 109.606 54.8436 109.465C54.8808 109.323 54.9455 109.19 55.0341 109.074C55.1226 108.957 55.2333 108.859 55.3598 108.786L118.287 72.0643C118.414 71.9905 118.554 71.9423 118.699 71.9224C118.844 71.9026 118.991 71.9114 119.133 71.9485C119.275 71.9857 119.408 72.0503 119.525 72.1387C119.641 72.2271 119.739 72.3376 119.813 72.4639C119.887 72.5902 119.936 72.7298 119.955 72.8747C119.975 73.0196 119.966 73.1671 119.929 73.3085C119.892 73.45 119.827 73.5828 119.739 73.6994C119.65 73.8159 119.54 73.9138 119.413 73.9876Z" fill="#CCCCCC"/>
<path d="M123.291 80.6122L60.3636 117.333C60.2371 117.407 60.0973 117.455 59.9522 117.475C59.807 117.495 59.6594 117.486 59.5177 117.449C59.376 117.412 59.243 117.347 59.1262 117.259C59.0095 117.171 58.9114 117.06 58.8375 116.934C58.7636 116.807 58.7153 116.668 58.6954 116.523C58.6755 116.378 58.6844 116.231 58.7216 116.089C58.7587 115.948 58.8234 115.815 58.912 115.698C59.0006 115.582 59.1112 115.484 59.2377 115.41L122.165 78.6888C122.292 78.615 122.431 78.5668 122.577 78.5469C122.722 78.5271 122.869 78.5359 123.011 78.5731C123.153 78.6102 123.286 78.6748 123.402 78.7632C123.519 78.8516 123.617 78.9621 123.691 79.0884C123.765 79.2147 123.813 79.3543 123.833 79.4992C123.853 79.6442 123.844 79.7916 123.807 79.9331C123.77 80.0745 123.705 80.2073 123.617 80.3239C123.528 80.4404 123.417 80.5384 123.291 80.6122Z" fill="#CCCCCC"/>
<path d="M102.942 106.402C103.816 105.374 104.603 104.275 105.294 103.117C105.914 102.071 106.523 100.954 106.659 99.7285C106.729 99.2065 106.675 98.6755 106.501 98.1786C106.326 97.6816 106.037 97.2327 105.656 96.8685C105.288 96.5297 104.821 96.3166 104.324 96.2602C103.826 96.2037 103.324 96.3068 102.889 96.5545C102.449 96.8067 102.085 97.173 101.836 97.6147C101.588 98.0563 101.463 98.5569 101.477 99.0634C101.512 99.6211 101.674 100.163 101.949 100.65C102.224 101.137 102.605 101.555 103.065 101.874C104.925 103.22 107.829 103.149 109.812 102.125C112.045 100.972 113.198 97.9549 111.444 95.8895C111.079 95.4599 110.472 95.94 110.563 96.4034C110.679 97.0293 111.03 97.5875 111.545 97.9638C112.059 98.3401 112.698 98.5062 113.33 98.4281C113.963 98.3501 114.542 98.0337 114.949 97.5437C115.356 97.0537 115.56 96.4271 115.52 95.7918L114.732 96.252C115.698 96.6796 116.761 96.8454 117.812 96.7328C118.864 96.6202 119.867 96.2331 120.721 95.6104C121.143 95.304 121.521 94.9399 121.842 94.5289C122.228 94.0261 122.876 93.7012 123.401 93.339L127.185 90.7286C127.742 90.3446 127.213 89.4296 126.651 89.8167L123.225 92.1808C122.654 92.5748 122.079 92.9639 121.511 93.3629C121.105 93.6481 120.856 94.1085 120.487 94.4472C119.788 95.075 118.924 95.4914 117.997 95.648C117.07 95.8046 116.118 95.6948 115.251 95.3315C115.17 95.2882 115.079 95.2663 114.988 95.2679C114.896 95.2695 114.806 95.2946 114.727 95.3408C114.648 95.387 114.582 95.4527 114.536 95.5317C114.489 95.6107 114.464 95.7002 114.462 95.7917C114.504 96.1708 114.394 96.551 114.156 96.8496C113.919 97.1481 113.572 97.3408 113.193 97.3856C112.814 97.4305 112.432 97.3239 112.131 97.0891C111.83 96.8543 111.634 96.5102 111.586 96.1319L110.705 96.6458C111.837 97.9782 111.084 100.022 109.78 100.916C108.322 101.916 106.167 102.089 104.524 101.468C104.12 101.329 103.75 101.109 103.436 100.821C103.122 100.534 102.871 100.184 102.698 99.7951C102.538 99.4436 102.492 99.0507 102.567 98.6718C102.642 98.293 102.835 97.9473 103.117 97.6834C103.362 97.442 103.691 97.305 104.035 97.3013C104.379 97.2976 104.711 97.4276 104.961 97.6637C105.233 97.9411 105.433 98.2811 105.542 98.6536C105.652 99.0262 105.668 99.4199 105.589 99.8002C105.42 100.858 104.834 101.834 104.289 102.738C103.666 103.768 102.963 104.746 102.184 105.664C101.748 106.18 102.501 106.923 102.942 106.402L102.942 106.402Z" fill="url(#paint0_linear_1065:3435)"/>
<path d="M125.782 129.348L129.376 130.743L127.488 135.155C127.348 135.481 127.107 135.753 126.799 135.93C126.491 136.107 126.135 136.18 125.782 136.138L112.543 134.541L112.404 134.524L112.317 134.634C112.036 134.989 111.654 135.25 111.22 135.383C110.787 135.516 110.324 135.513 109.892 135.377C109.46 135.24 109.08 134.975 108.802 134.618C108.525 134.26 108.363 133.827 108.338 133.376C108.314 132.924 108.427 132.476 108.664 132.09C108.9 131.705 109.249 131.4 109.663 131.217C110.078 131.034 110.538 130.981 110.983 131.066C111.428 131.15 111.837 131.368 112.155 131.69C112.236 131.774 112.311 131.864 112.379 131.96L112.456 132.069L112.589 132.066L124.307 131.78L124.451 131.776L124.52 131.65L125.782 129.348Z" fill="#F4F7FA" stroke="black" stroke-width="0.5"/>
<path d="M150.282 202.318H146.9L145.129 187.98L150.283 187.98L150.282 202.318Z" fill="#F4F7FA" stroke="black" stroke-width="0.5"/>
<path d="M121.057 188.969L115.415 202.154L112.305 200.828L116.317 186.947L121.057 188.969Z" fill="#F4F7FA" stroke="black" stroke-width="0.5"/>
<path d="M139.696 139.859L131.79 139.014L132.04 134.97L145.511 134.43L147.818 140.727L139.696 139.859Z" fill="#F4F7FA" stroke="black" stroke-width="0.5"/>
<path d="M133.667 115.716L133.744 115.691L133.791 115.626L135.321 113.531L142.872 113.977L143.96 116.412L143.998 116.497L144.082 116.536L148.109 118.436L147.476 130.178L147.475 130.191L147.476 130.203L147.932 139.89L131.488 139.056L128.383 117.446L133.667 115.716Z" fill="#F4F7FA" stroke="black" stroke-width="0.5"/>
<path d="M129.105 133.055L123.994 131.014C124.257 129.913 126.384 121.024 126.682 119.518L126.682 119.518C126.835 118.746 127.188 118.262 127.501 117.97C127.659 117.823 127.808 117.723 127.919 117.659C127.974 117.628 128.019 117.605 128.051 117.59C128.056 117.588 128.06 117.586 128.064 117.585L130.033 118.183L130.976 125.582L129.105 133.055Z" fill="#F4F7FA" stroke="black" stroke-width="0.5"/>
<path d="M126.92 154.507C127.16 154.576 127.16 154.576 127.16 154.576L127.16 154.575L127.16 154.574L127.162 154.569L127.167 154.55L127.189 154.475L127.273 154.185C127.346 153.934 127.451 153.571 127.58 153.125C127.84 152.233 128.198 151.008 128.593 149.674C129.383 147.005 130.316 143.909 130.897 142.184L130.904 142.164L130.907 142.142L131.573 137.737L147.844 139.535C147.876 139.585 147.919 139.654 147.971 139.742C148.093 139.945 148.266 140.25 148.47 140.65C148.878 141.451 149.409 142.637 149.897 144.167C150.872 147.228 151.674 151.668 150.974 157.176L150.972 157.194L150.972 157.211L151.607 198.686L144.649 199.043L138.463 157.195L138.343 156.379L137.99 157.124L127.075 180.188L127.069 180.2L127.065 180.213L127.301 180.295L127.065 180.213L127.064 180.213L127.064 180.214L127.062 180.22L127.055 180.24L127.026 180.322C127 180.395 126.962 180.501 126.913 180.637C126.814 180.91 126.671 181.301 126.491 181.778C126.13 182.732 125.625 184.025 125.043 185.385C124.46 186.745 123.803 188.167 123.14 189.38C122.472 190.601 121.813 191.58 121.235 192.082L121.188 192.122L121.166 192.179L118.26 199.587L111.324 198.167L123.093 165.744L123.093 165.744L127.155 154.592L127.158 154.584L127.16 154.576L126.92 154.507Z" fill="#F4F7FA" stroke="black" stroke-width="0.5"/>
<path d="M141.68 141.117L141.812 141.135L141.9 141.035L149.657 132.261L149.753 132.153L149.707 132.016L148.874 129.528L152.343 127.845L154.299 132.228C154.444 132.552 154.479 132.913 154.4 133.259C154.322 133.604 154.133 133.915 153.862 134.144L143.687 142.751L143.58 142.842L143.602 142.981C143.672 143.428 143.604 143.885 143.407 144.292C143.21 144.699 142.893 145.037 142.499 145.261C142.105 145.484 141.652 145.582 141.201 145.542C140.749 145.502 140.321 145.326 139.972 145.037C139.624 144.748 139.372 144.36 139.249 143.925C139.127 143.49 139.14 143.027 139.288 142.6L139.052 142.518L139.288 142.6C139.435 142.172 139.709 141.799 140.074 141.531C140.438 141.263 140.876 141.112 141.329 141.098C141.446 141.095 141.563 141.101 141.68 141.117Z" fill="#F4F7FA" stroke="black" stroke-width="0.5"/>
<path d="M148.763 118.575L148.763 118.575L148.773 118.579C149.163 118.736 149.56 119.254 149.898 120.262L149.898 120.262L149.899 120.266L152.878 128.738L148.939 132.518L145.877 125.328L147.107 120.168L148.389 118.551C148.441 118.536 148.495 118.528 148.549 118.528C148.623 118.529 148.696 118.545 148.763 118.575Z" fill="#F4F7FA" stroke="black" stroke-width="0.5"/>
<path d="M132.062 110.458V104.728C132.062 102.692 132.873 100.74 134.315 99.2998C135.757 97.8601 137.712 97.0513 139.752 97.0513C141.791 97.0513 143.747 97.8601 145.189 99.2998C146.631 100.74 147.441 102.692 147.441 104.728V110.458C147.441 110.731 147.332 110.993 147.138 111.186C146.944 111.38 146.682 111.489 146.408 111.489H133.095C132.822 111.489 132.559 111.38 132.365 111.186C132.172 110.993 132.063 110.731 132.062 110.458Z" fill="#7247FF"/>
<path d="M143.559 105.727C143.559 108.697 141.147 111.105 138.172 111.105C135.196 111.105 132.784 108.697 132.784 105.727C132.784 102.757 135.196 100.348 138.172 100.348C141.147 100.348 143.559 102.757 143.559 105.727Z" fill="#F4F7FA" stroke="black" stroke-width="0.5"/>
<path d="M130.244 105.187C130.245 103.577 130.887 102.033 132.027 100.895C133.167 99.7565 134.714 99.1161 136.326 99.1143H137.474C139.086 99.1161 140.632 99.7565 141.773 100.895C142.913 102.033 143.554 103.577 143.556 105.187V105.302H141.131L140.304 102.989L140.138 105.302H138.885L138.467 104.135L138.384 105.302H130.244L130.244 105.187Z" fill="#7247FF"/>
<path d="M137.617 112.133C137.503 111.979 137.435 111.796 137.421 111.605C137.407 111.414 137.446 111.224 137.536 111.054C138.752 108.745 140.455 104.477 138.195 101.845L138.032 101.656H144.594V111.492L138.633 112.542C138.573 112.553 138.512 112.558 138.451 112.558C138.288 112.558 138.127 112.52 137.983 112.446C137.838 112.372 137.712 112.265 137.617 112.133Z" fill="#7247FF"/>
<path d="M70.663 187.89L64.4327 200.259L61.3944 199.175L66.0257 186.236L70.663 187.89Z" fill="#F4F7FA" stroke="black" stroke-width="0.5"/>
<path d="M88.8916 188.774L87.194 202.515L83.9674 202.515L83.9668 188.775L88.8916 188.774Z" fill="#F4F7FA" stroke="black" stroke-width="0.5"/>
<path d="M82.0069 111.519C82.5245 112.029 82.9188 112.605 83.1048 113.251L75.6584 111.612L77.0286 108.909C77.0468 108.914 77.0661 108.92 77.0866 108.926C77.2482 108.972 77.4806 109.043 77.7615 109.139C78.3239 109.331 79.0777 109.622 79.8466 110.019C80.6167 110.416 81.3929 110.915 82.0069 111.519Z" fill="#F4F7FA" stroke="black" stroke-width="0.5"/>
<path d="M61.7753 192.806L73.2453 172.554L73.2898 172.475L73.2738 172.386L68.9517 148.305L86.8465 147.719L91.401 172.044L88.5601 198.223L82.7706 198.399L81.8738 170.341L81.383 170.282L79.8839 175.67L68.2458 195.335L61.7753 192.806Z" fill="#F4F7FA" stroke="black" stroke-width="0.5"/>
<path d="M89.4359 152.476C89.4017 152.481 89.3597 152.487 89.3101 152.494C89.3038 152.483 89.2978 152.472 89.2922 152.46L89.4359 152.476ZM89.8096 133.448L89.8164 133.47L89.8162 133.483L89.8129 133.637L89.8003 134.223C89.7894 134.728 89.7736 135.45 89.7543 136.318C89.7157 138.054 89.6628 140.375 89.6057 142.715C89.5485 145.055 89.4872 147.414 89.4316 149.225C89.4038 150.131 89.3775 150.899 89.354 151.459C89.3422 151.739 89.3311 151.966 89.3209 152.131C89.3185 152.172 89.316 152.209 89.3137 152.241C89.2577 152.249 89.19 152.259 89.1114 152.271C88.8583 152.308 88.4926 152.362 88.0425 152.425C87.1423 152.553 85.905 152.724 84.5565 152.894C81.8533 153.235 78.7226 153.574 76.9561 153.574C71.0663 153.574 67.1651 152.539 66.509 152.359L69.8037 137.108L69.809 137.083L69.8093 137.058L69.9599 122.769H69.96V122.766C69.96 119.793 70.9402 117.206 71.9936 115.306C72.5199 114.357 73.063 113.582 73.5075 113.021C73.958 112.452 74.2943 112.118 74.4046 112.036L74.4759 111.983L74.4977 111.897C74.582 111.564 74.7379 111.254 74.9546 110.989C75.1706 110.724 75.4418 110.509 75.7493 110.359C76.3474 110.089 77.0263 110.111 77.5839 110.216C78.1387 110.32 78.5424 110.501 78.5664 110.512L78.5743 110.515L78.5823 110.518L83.3533 112.304L83.3612 112.33L83.4199 112.52C83.4702 112.684 83.5423 112.919 83.633 113.216C83.8145 113.809 84.0706 114.647 84.3762 115.647C84.9875 117.648 85.797 120.299 86.6047 122.946C87.4124 125.592 88.2182 128.232 88.8222 130.212L89.5516 132.602L89.7558 133.272L89.8096 133.448Z" fill="#F4F7FA" stroke="black" stroke-width="0.5"/>
<path d="M88.2429 101.025C88.2429 104.526 85.4002 107.365 81.8927 107.365C78.3852 107.365 75.5425 104.526 75.5425 101.025C75.5425 97.5244 78.3852 94.6855 81.8927 94.6855C85.4002 94.6855 88.2429 97.5244 88.2429 101.025Z" fill="#F4F7FA" stroke="black" stroke-width="0.5"/>
<path opacity="0.2" d="M87.5035 132.624L85.96 139.424L75.5074 124.863L87.5035 132.624Z" fill="#F4F7FA" stroke="black" stroke-width="0.5"/>
<path d="M110.611 134.661L110.581 134.684C110.285 134.918 109.941 135.084 109.574 135.171C109.206 135.258 108.824 135.263 108.455 135.186C108.085 135.11 107.736 134.953 107.434 134.728C107.131 134.502 106.882 134.213 106.704 133.881L106.619 133.725L106.444 133.753L96.9637 135.268L98.865 131.065L107.827 130.299L107.87 130.296L107.909 130.278C108.488 130.015 109.143 129.974 109.751 130.161C110.359 130.349 110.876 130.752 111.206 131.295C111.535 131.838 111.654 132.483 111.539 133.107C111.426 133.72 111.096 134.271 110.611 134.661Z" fill="#F4F7FA" stroke="black" stroke-width="0.5"/>
<path d="M99.523 135.007L99.4627 130.784L102.58 130.479L103.467 134.937L99.523 135.007Z" fill="#F4F7FA" stroke="black" stroke-width="0.5"/>
<path d="M84.5929 118.095L84.5929 118.095L89.7771 128.191L89.8355 128.305L89.9621 128.324L100.257 129.878L101.816 136.636L84.7927 135.122L76.0507 121.241L76.0329 121.16C75.7952 120.074 75.9616 118.938 76.501 117.966C77.0404 116.993 77.916 116.25 78.9643 115.874C80.0127 115.499 81.1621 115.517 82.1978 115.926C83.2336 116.335 84.0849 117.106 84.5929 118.095Z" fill="#F4F7FA" stroke="black" stroke-width="0.5"/>
<path d="M76.2708 106.747L81.749 106.943C82.0829 106.955 82.9892 103.357 83.1079 102.611C83.2016 102.125 83.4693 101.69 83.861 101.386C84.2527 101.083 84.7416 100.933 85.2363 100.963C85.6464 101.002 86.6804 100.237 87.7475 99.3309C89.7733 97.6113 89.6679 94.3816 87.4425 92.9286C87.3817 92.8888 87.322 92.8526 87.2635 92.8198C85.8596 92.0352 84.2173 91.7718 82.6086 91.7517C81.1503 91.7335 79.6506 91.9167 78.3659 92.6059C76.0626 93.8415 74.8368 96.5415 74.7291 99.1498C74.6214 101.758 75.4589 104.309 76.4093 106.741" fill="#7247FF"/>
</g>
<defs>
<linearGradient id="paint0_linear_1065:3435" x1="101.336" y1="90.5492" x2="128.376" y2="90.841" gradientUnits="userSpaceOnUse">
<stop stop-color="#4614E8"/>
<stop offset="1" stop-color="#BCA7FF"/>
</linearGradient>
</defs>
</svg>
