<svg width="24" height="24" viewBox="0 0 24 24" fill="none" xmlns="http://www.w3.org/2000/svg">
<g clip-path="url(#clip0_55:1805)">
<path d="M16.323 0.25H13.9273C12.0943 0.25 10.7778 0.685078 9.97765 1.55494C9.17728 2.4251 8.77746 3.70661 8.77746 5.40002V7.01418C8.77746 7.44076 8.43172 7.78649 8.00514 7.78649H7.17722C6.75064 7.78649 6.40491 8.13222 6.40491 8.5588V10.9777C6.40491 11.4042 6.75064 11.75 7.17722 11.75H8.00514C8.43172 11.75 8.77746 12.0957 8.77746 12.5223V22.4776C8.77746 22.9042 9.12319 23.25 9.54977 23.25H12.7641C13.1907 23.25 13.5364 22.9042 13.5364 22.4776V12.5223C13.5364 12.0957 13.8822 11.75 14.3087 11.75H15.9321C16.3587 11.75 16.7408 11.4061 16.7856 10.9821L17.042 8.55443C17.0868 8.1302 16.7773 7.78649 16.3507 7.78649H14.3085C13.8819 7.78649 13.5362 7.44076 13.5362 7.01418V5.80472C13.5362 5.50711 13.5501 5.27672 13.5781 5.11376C13.6059 4.95106 13.6687 4.79066 13.7666 4.63233C13.8641 4.47429 14.0225 4.36488 14.241 4.30435C14.4596 4.24386 14.7505 4.21349 15.1132 4.21349H16.3227C16.7492 4.21349 17.0949 3.86776 17.0949 3.44118V1.02231C17.0953 0.595732 16.7495 0.25 16.323 0.25Z" fill="#273895"/>
</g>
<defs>
<clipPath id="clip0_55:1805">
<rect width="23" height="23" fill="white" transform="translate(0.25 0.25)"/>
</clipPath>
</defs>
</svg>
