<svg width="161" height="80" viewBox="0 0 161 80" fill="none" xmlns="http://www.w3.org/2000/svg">
<rect x="161" width="80" height="161" rx="12" transform="rotate(90 161 0)" fill="url(#paint0_linear_1337:5)"/>
<path d="M32.1428 53.4603H40.6149V56H29.5669V24H32.1428V53.4603Z" fill="#3B1D8F"/>
<path d="M18.576 24H16V56H18.576V24Z" fill="#3B1D8F"/>
<path d="M45.1942 40.0282C45.1942 47.4215 51.3193 53.4603 58.8181 53.4603V56C49.8309 56 42.561 48.8325 42.561 40.0282C42.6183 31.1675 49.8882 24 58.8754 24V26.5397C51.3193 26.5397 45.1942 32.5785 45.1942 40.0282Z" fill="#3B1D8F"/>
<path d="M60.707 39.9718C60.707 40.9876 59.9056 41.7778 58.8752 41.7778C57.8449 41.7778 57.0435 40.9876 57.0435 39.9718C57.0435 38.9559 57.8449 38.1658 58.8752 38.1658C59.8484 38.1658 60.707 39.0123 60.707 39.9718Z" fill="#3B1D8F"/>
<path d="M74.288 35.096C73.5733 35.096 72.9733 34.864 72.488 34.4C72.0027 33.936 71.7147 33.344 71.624 32.624H70.704V35H69.72V29.4H70.704V31.744H71.632C71.728 31.04 72.0187 30.4587 72.504 30C72.9947 29.536 73.5947 29.304 74.304 29.304C75.088 29.304 75.7307 29.5813 76.232 30.136C76.7387 30.6907 76.992 31.3787 76.992 32.2C76.992 33.016 76.7387 33.704 76.232 34.264C75.7253 34.8187 75.0773 35.096 74.288 35.096ZM73.088 33.632C73.408 34.016 73.8133 34.208 74.304 34.208C74.7947 34.208 75.1973 34.0187 75.512 33.64C75.8267 33.256 75.984 32.776 75.984 32.2C75.984 31.6347 75.824 31.16 75.504 30.776C75.184 30.392 74.7787 30.2 74.288 30.2C73.7973 30.2 73.3947 30.3893 73.08 30.768C72.7707 31.1467 72.616 31.624 72.616 32.2C72.616 32.7653 72.7733 33.2427 73.088 33.632ZM78.9809 35V29.4H81.1889C81.8396 29.4 82.3569 29.5707 82.7409 29.912C83.1249 30.2533 83.3169 30.712 83.3169 31.288C83.3169 31.8907 83.1036 32.36 82.6769 32.696C82.2556 33.032 81.7223 33.2 81.0769 33.2H79.9649V35H78.9809ZM79.9649 32.312H81.1089C81.4769 32.312 81.7703 32.2187 81.9889 32.032C82.2076 31.8453 82.3169 31.6 82.3169 31.296C82.3169 30.976 82.2076 30.7307 81.9889 30.56C81.7756 30.384 81.4823 30.296 81.1089 30.296H79.9649V32.312ZM85.1247 35V29.4H86.0927V33.488L88.9247 29.4H89.8447V35H88.8767V30.92L86.0527 35H85.1247ZM91.4566 36.2V34.12H92.0006C92.4752 33.1813 92.7126 31.872 92.7126 30.192V29.4H96.6166V34.12H97.3126L97.1766 36.2H96.3606V35H92.4166L92.3206 36.2H91.4566ZM93.0486 34.12H95.6326V30.288H93.6566V30.928C93.6566 32.2347 93.4539 33.2987 93.0486 34.12ZM98.9903 35V29.4H99.9583V33.488L102.79 29.4H103.71V35H102.742V30.92L99.9183 35H98.9903ZM109.25 35V32.784C108.648 33.0987 108.117 33.256 107.658 33.256C107.093 33.256 106.642 33.1067 106.306 32.808C105.976 32.504 105.81 32.0587 105.81 31.472V29.4H106.794V31.224C106.794 31.5813 106.882 31.8587 107.058 32.056C107.234 32.248 107.493 32.344 107.834 32.344C108.341 32.344 108.813 32.1973 109.25 31.904V29.4H110.234V35H109.25ZM112.473 35V29.4H116.625V30.28H113.457V31.736H116.265V32.616H113.457V34.12H116.665V35H112.473ZM121.232 35.096C120.422 35.096 119.744 34.8187 119.2 34.264C118.656 33.704 118.384 33.016 118.384 32.2C118.384 31.3893 118.656 30.704 119.2 30.144C119.744 29.584 120.435 29.304 121.272 29.304C121.758 29.304 122.168 29.3787 122.504 29.528C122.846 29.6773 123.166 29.8933 123.464 30.176L122.832 30.904C122.331 30.44 121.808 30.208 121.264 30.208C120.731 30.208 120.288 30.4 119.936 30.784C119.59 31.168 119.416 31.64 119.416 32.2C119.416 32.7547 119.592 33.2267 119.944 33.616C120.296 34 120.736 34.192 121.264 34.192C121.584 34.192 121.867 34.1333 122.112 34.016C122.358 33.8933 122.611 33.7093 122.872 33.464L123.504 34.104C123.19 34.4347 122.856 34.6827 122.504 34.848C122.152 35.0133 121.728 35.096 121.232 35.096ZM125.339 35V29.4H126.323V32.216L128.987 29.4H130.195L127.867 31.808L130.299 35H129.107L127.195 32.48L126.323 33.376V35H125.339ZM131.936 35V29.4H132.904V33.488L135.736 29.4H136.656V35H135.688V30.92L132.864 35H131.936ZM142.14 28.664C141.916 28.8613 141.636 28.96 141.3 28.96C140.964 28.96 140.684 28.8613 140.46 28.664C140.236 28.4613 140.094 28.1867 140.036 27.84L140.636 27.728C140.737 28.0907 140.958 28.272 141.3 28.272C141.63 28.272 141.852 28.0907 141.964 27.728L142.556 27.84C142.502 28.1867 142.364 28.4613 142.14 28.664ZM138.908 35V29.4H139.876V33.488L142.707 29.4H143.628V35H142.66V30.92L139.836 35H138.908ZM69.72 50V44.4H74.288V50H73.304V45.288H70.704V50H69.72ZM81.3038 49.248C80.7491 49.8133 80.0478 50.096 79.1998 50.096C78.3518 50.096 77.6531 49.816 77.1038 49.256C76.5545 48.696 76.2798 48.0107 76.2798 47.2C76.2798 46.4 76.5571 45.7173 77.1118 45.152C77.6665 44.5867 78.3678 44.304 79.2158 44.304C80.0638 44.304 80.7625 44.584 81.3118 45.144C81.8611 45.704 82.1358 46.3893 82.1358 47.2C82.1358 48 81.8585 48.6827 81.3038 49.248ZM77.8478 48.616C78.2105 49 78.6665 49.192 79.2158 49.192C79.7651 49.192 80.2158 49 80.5678 48.616C80.9251 48.232 81.1038 47.76 81.1038 47.2C81.1038 46.6453 80.9225 46.176 80.5598 45.792C80.2025 45.4027 79.7491 45.208 79.1998 45.208C78.6505 45.208 78.1971 45.4 77.8398 45.784C77.4878 46.168 77.3118 46.64 77.3118 47.2C77.3118 47.7547 77.4905 48.2267 77.8478 48.616ZM84.1247 50.064C83.8954 50.064 83.6687 50.0347 83.4447 49.976L83.5407 49.168C83.6367 49.2 83.7434 49.216 83.8607 49.216C83.9887 49.216 84.098 49.1973 84.1887 49.16C84.2847 49.1173 84.3834 49.0213 84.4847 48.872C84.5914 48.7227 84.674 48.52 84.7327 48.264C84.7967 48.0027 84.85 47.64 84.8927 47.176C84.9354 46.712 84.9567 46.1547 84.9567 45.504V44.4H88.7967V50H87.8127V45.288H85.8767V45.792C85.8767 46.6613 85.8394 47.384 85.7647 47.96C85.69 48.5307 85.5727 48.968 85.4127 49.272C85.2527 49.5707 85.0714 49.7787 84.8687 49.896C84.6714 50.008 84.4234 50.064 84.1247 50.064ZM91.0419 50V44.4H92.0099V48.488L94.8419 44.4H95.7619V50H94.7939V45.92L91.9699 50H91.0419ZM100.614 50.096C99.8031 50.096 99.1258 49.8187 98.5818 49.264C98.0378 48.704 97.7658 48.016 97.7658 47.2C97.7658 46.3893 98.0378 45.704 98.5818 45.144C99.1258 44.584 99.8164 44.304 100.654 44.304C101.139 44.304 101.55 44.3787 101.886 44.528C102.227 44.6773 102.547 44.8933 102.846 45.176L102.214 45.904C101.712 45.44 101.19 45.208 100.646 45.208C100.112 45.208 99.6698 45.4 99.3178 45.784C98.9711 46.168 98.7978 46.64 98.7978 47.2C98.7978 47.7547 98.9738 48.2267 99.3258 48.616C99.6778 49 100.118 49.192 100.646 49.192C100.966 49.192 101.248 49.1333 101.494 49.016C101.739 48.8933 101.992 48.7093 102.254 48.464L102.886 49.104C102.571 49.4347 102.238 49.6827 101.886 49.848C101.534 50.0133 101.11 50.096 100.614 50.096Z" fill="#3B1D8F"/>
<defs>
<linearGradient id="paint0_linear_1337:5" x1="222.081" y1="155.561" x2="141.273" y2="95.8888" gradientUnits="userSpaceOnUse">
<stop stop-color="#F0EBFF"/>
<stop offset="1" stop-color="white"/>
</linearGradient>
</defs>
</svg>
