<svg width="241" height="106" viewBox="0 0 241 106" fill="none" xmlns="http://www.w3.org/2000/svg">
<rect x="241" width="106" height="241" rx="11.9362" transform="rotate(90 241 0)" fill="url(#paint0_linear_1489:2)"/>
<path d="M15.835 38L18.948 34.942C17.8993 34.6633 17.375 34.0143 17.375 32.995C17.375 32.159 17.7087 31.5027 18.376 31.026C19.0433 30.542 19.9417 30.3 21.071 30.3H24.107L22.05 38H21.17L21.962 35.085H19.872L16.957 38H15.835ZM20.059 34.337H22.149C22.4937 33.0903 22.787 32.0087 23.029 31.092H21.06C20.1653 31.092 19.4723 31.2607 18.981 31.598C18.497 31.928 18.255 32.3973 18.255 33.006C18.255 33.4313 18.4127 33.7613 18.728 33.996C19.0507 34.2233 19.4943 34.337 20.059 34.337ZM27.2711 38.088C26.9191 38.088 26.6625 38.0513 26.5011 37.978L26.7761 37.274C26.9155 37.3253 27.0585 37.351 27.2051 37.351C27.4105 37.351 27.5828 37.3107 27.7221 37.23C27.8688 37.1493 28.0411 36.966 28.2391 36.68C28.4371 36.394 28.6461 35.932 28.8661 35.294C29.0935 34.656 29.3465 33.82 29.6251 32.786L29.7571 32.313H33.8161L32.2871 38H31.4401L32.7711 33.039H30.3621L30.2851 33.314C30.0505 34.1867 29.8231 34.92 29.6031 35.514C29.3905 36.108 29.1961 36.5737 29.0201 36.911C28.8441 37.2483 28.6535 37.505 28.4481 37.681C28.2428 37.857 28.0558 37.967 27.8871 38.011C27.7258 38.0623 27.5205 38.088 27.2711 38.088ZM34.1694 38L35.6874 32.313H36.5234L35.3244 36.779L39.9004 32.313H40.7144L39.1854 38H38.3494L39.5594 33.512L34.9834 38H34.1694ZM44.5642 38L45.1912 35.646C44.4652 35.9833 43.8052 36.152 43.2112 36.152C42.7418 36.152 42.3715 36.0383 42.1002 35.811C41.8362 35.5837 41.7042 35.272 41.7042 34.876C41.7042 34.7293 41.7335 34.5497 41.7922 34.337L42.3312 32.313H43.1892L42.6502 34.337C42.6062 34.4983 42.5842 34.6193 42.5842 34.7C42.5842 34.92 42.6612 35.096 42.8152 35.228C42.9765 35.3527 43.2002 35.415 43.4862 35.415C44.1535 35.415 44.7915 35.2353 45.4002 34.876L46.0932 32.313H46.9402L45.4112 38H44.5642ZM47.2964 38L48.8144 32.313H49.6724L49.0124 34.733H52.2684L52.9284 32.313H53.7754L52.2464 38H51.3994L52.0814 35.459H48.8254L48.1434 38H47.2964ZM57.0547 38.132C56.2847 38.132 55.6613 37.8937 55.1847 37.417C54.708 36.9403 54.4697 36.328 54.4697 35.58C54.4697 34.6853 54.7997 33.897 55.4597 33.215C56.127 32.533 56.9117 32.192 57.8137 32.192C58.591 32.192 59.218 32.4303 59.6947 32.907C60.1713 33.3837 60.4097 33.9923 60.4097 34.733C60.4097 35.6423 60.0723 36.438 59.3977 37.12C58.7303 37.7947 57.9493 38.132 57.0547 38.132ZM57.1097 37.373C57.7477 37.373 58.3123 37.109 58.8037 36.581C59.295 36.0457 59.5407 35.4407 59.5407 34.766C59.5407 34.194 59.3757 33.7467 59.0457 33.424C58.723 33.1013 58.294 32.94 57.7587 32.94C57.1133 32.94 56.545 33.2113 56.0537 33.754C55.5697 34.2893 55.3277 34.8907 55.3277 35.558C55.3277 36.1227 55.489 36.5663 55.8117 36.889C56.1417 37.2117 56.5743 37.373 57.1097 37.373ZM67.4772 38.132C66.6412 38.132 65.9995 37.8937 65.5522 37.417C65.1048 36.9403 64.8812 36.317 64.8812 35.547C64.8812 35.085 64.9325 34.6193 65.0352 34.15C65.1452 33.6733 65.3102 33.2003 65.5302 32.731C65.7575 32.2543 66.0765 31.8437 66.4872 31.499C66.9052 31.147 67.3892 30.916 67.9392 30.806L71.2062 30.146L71.3052 30.861L68.0602 31.554C67.4735 31.6787 67.0152 31.9023 66.6852 32.225C66.3625 32.5403 66.1168 32.9657 65.9482 33.501C66.6155 32.7897 67.3928 32.434 68.2802 32.434C69.0208 32.434 69.6222 32.654 70.0842 33.094C70.5462 33.5267 70.7772 34.1023 70.7772 34.821C70.7772 35.6937 70.4362 36.4637 69.7542 37.131C69.0795 37.7983 68.3205 38.132 67.4772 38.132ZM67.4882 37.384C68.0895 37.384 68.6395 37.1273 69.1382 36.614C69.6368 36.0933 69.8862 35.4993 69.8862 34.832C69.8862 34.3113 69.7285 33.897 69.4132 33.589C69.0978 33.2737 68.6615 33.116 68.1042 33.116C67.4662 33.116 66.9125 33.3653 66.4432 33.864C65.9738 34.3553 65.7392 34.9383 65.7392 35.613C65.7392 36.1263 65.8895 36.5517 66.1902 36.889C66.4908 37.219 66.9235 37.384 67.4882 37.384ZM71.7188 39.793C71.2714 39.793 70.8571 39.661 70.4758 39.397L70.9378 38.759C71.1798 38.9497 71.4694 39.045 71.8068 39.045C72.2981 39.045 72.7931 38.693 73.2918 37.989L72.2578 32.313H73.1378L73.9298 37.054L76.9878 32.313H77.9448L74.0508 38.187C73.6621 38.7663 73.2844 39.177 72.9178 39.419C72.5511 39.6683 72.1514 39.793 71.7188 39.793ZM76.7372 39.507L77.3202 37.274H77.9692C78.7172 36.4087 79.3295 35.0923 79.8062 33.325L80.0812 32.313H84.1512L82.8202 37.274H83.7002L82.9742 39.507H82.2702L82.6772 38H77.9802L77.4522 39.507H76.7372ZM78.8822 37.274H81.9622L83.1062 33.039H80.6972L80.4662 33.908C80.2902 34.5607 80.0555 35.1987 79.7622 35.822C79.4689 36.4453 79.1755 36.9293 78.8822 37.274ZM84.9102 39.793C84.4629 39.793 84.0485 39.661 83.6672 39.397L84.1292 38.759C84.3712 38.9497 84.6609 39.045 84.9982 39.045C85.4895 39.045 85.9845 38.693 86.4832 37.989L85.4492 32.313H86.3292L87.1212 37.054L90.1792 32.313H91.1362L87.2422 38.187C86.8535 38.7663 86.4759 39.177 86.1092 39.419C85.7425 39.6683 85.3429 39.793 84.9102 39.793ZM94.2934 38L95.8114 32.313H100.64L99.1114 38H98.2644L99.5954 33.05H96.4714L95.1404 38H94.2934ZM103.923 38.132C103.153 38.132 102.529 37.8937 102.053 37.417C101.576 36.9403 101.338 36.328 101.338 35.58C101.338 34.6853 101.668 33.897 102.328 33.215C102.995 32.533 103.78 32.192 104.682 32.192C105.459 32.192 106.086 32.4303 106.563 32.907C107.039 33.3837 107.278 33.9923 107.278 34.733C107.278 35.6423 106.94 36.438 106.266 37.12C105.598 37.7947 104.817 38.132 103.923 38.132ZM103.978 37.373C104.616 37.373 105.18 37.109 105.672 36.581C106.163 36.0457 106.409 35.4407 106.409 34.766C106.409 34.194 106.244 33.7467 105.914 33.424C105.591 33.1013 105.162 32.94 104.627 32.94C103.981 32.94 103.413 33.2113 102.922 33.754C102.438 34.2893 102.196 34.8907 102.196 35.558C102.196 36.1227 102.357 36.5663 102.68 36.889C103.01 37.2117 103.442 37.373 103.978 37.373ZM106.933 39.507L107.516 37.274H108.165C108.913 36.4087 109.526 35.0923 110.002 33.325L110.277 32.313H114.347L113.016 37.274H113.896L113.17 39.507H112.466L112.873 38H108.176L107.648 39.507H106.933ZM109.078 37.274H112.158L113.302 33.039H110.893L110.662 33.908C110.486 34.5607 110.252 35.1987 109.958 35.822C109.665 36.4453 109.372 36.9293 109.078 37.274ZM113.808 39.507L114.391 37.274H115.04C115.788 36.4087 116.401 35.0923 116.877 33.325L117.152 32.313H121.222L119.891 37.274H120.771L120.045 39.507H119.341L119.748 38H115.051L114.523 39.507H113.808ZM115.953 37.274H119.033L120.177 33.039H117.768L117.537 33.908C117.361 34.5607 117.127 35.1987 116.833 35.822C116.54 36.4453 116.247 36.9293 115.953 37.274ZM124.61 38.132C123.855 38.132 123.246 37.9083 122.784 37.461C122.322 37.0137 122.091 36.4307 122.091 35.712C122.091 34.81 122.41 33.9997 123.048 33.281C123.694 32.555 124.478 32.192 125.402 32.192C126.092 32.192 126.631 32.401 127.019 32.819C127.408 33.2297 127.602 33.7467 127.602 34.37C127.602 34.7367 127.533 35.107 127.393 35.481H122.949C122.942 35.525 122.938 35.591 122.938 35.679C122.938 36.1997 123.092 36.6177 123.4 36.933C123.708 37.241 124.126 37.395 124.654 37.395C125.27 37.395 125.853 37.1713 126.403 36.724L126.843 37.285C126.176 37.8497 125.432 38.132 124.61 38.132ZM123.07 34.799H126.733C126.763 34.6523 126.777 34.5093 126.777 34.37C126.777 33.952 126.656 33.6037 126.414 33.325C126.172 33.0463 125.82 32.907 125.358 32.907C124.816 32.907 124.339 33.0867 123.928 33.446C123.525 33.798 123.239 34.249 123.07 34.799ZM127.755 39.76L129.746 32.313H130.593L130.329 33.292C130.982 32.5587 131.7 32.192 132.485 32.192C133.138 32.192 133.677 32.4157 134.102 32.863C134.527 33.303 134.74 33.8823 134.74 34.601C134.74 35.591 134.421 36.427 133.783 37.109C133.145 37.791 132.401 38.132 131.55 38.132C130.531 38.132 129.819 37.6627 129.416 36.724L128.602 39.76H127.755ZM131.473 37.384C132.14 37.384 132.701 37.1163 133.156 36.581C133.618 36.0457 133.849 35.4113 133.849 34.678C133.849 34.15 133.702 33.7283 133.409 33.413C133.116 33.0977 132.727 32.94 132.243 32.94C131.605 32.94 131.022 33.215 130.494 33.765C129.973 34.3077 129.713 34.9237 129.713 35.613C129.713 36.1117 129.878 36.5333 130.208 36.878C130.538 37.2153 130.96 37.384 131.473 37.384ZM134.72 38L137.976 34.678L136.491 32.313H137.415L139.428 35.624L140.319 32.313H141.166L140.286 35.602L144.026 32.313H145.082L142.222 34.788L143.663 38H142.75L141.551 35.349L140.011 36.658L139.648 38H138.801L139.186 36.581L138.394 35.338L135.798 38H134.72ZM144.803 38L146.321 32.313H147.157L145.958 36.779L150.534 32.313H151.348L149.819 38H148.983L150.193 33.512L145.617 38H144.803ZM151.689 38L153.218 32.313H155.693C156.25 32.313 156.687 32.434 157.002 32.676C157.317 32.9107 157.475 33.2297 157.475 33.633C157.475 34.0143 157.339 34.3333 157.068 34.59C156.797 34.8393 156.445 35.0117 156.012 35.107C156.313 35.1803 156.562 35.3233 156.76 35.536C156.958 35.7487 157.057 36.009 157.057 36.317C157.057 36.8157 156.841 37.2227 156.408 37.538C155.983 37.846 155.396 38 154.648 38H151.689ZM152.734 37.307H154.604C155.095 37.307 155.48 37.2153 155.759 37.032C156.045 36.8487 156.188 36.592 156.188 36.262C156.188 35.998 156.071 35.7927 155.836 35.646C155.609 35.4993 155.312 35.426 154.945 35.426H153.24L152.734 37.307ZM153.394 34.766H155.022C155.499 34.766 155.876 34.6743 156.155 34.491C156.441 34.3077 156.584 34.0583 156.584 33.743C156.584 33.259 156.225 33.017 155.506 33.017H153.867L153.394 34.766ZM159.939 38.121C159.433 38.121 159.007 37.9817 158.663 37.703C158.318 37.417 158.146 37.032 158.146 36.548C158.146 35.9173 158.38 35.4187 158.85 35.052C159.319 34.678 159.928 34.491 160.676 34.491C161.299 34.491 161.97 34.5937 162.689 34.799L162.733 34.656C162.777 34.4507 162.799 34.2783 162.799 34.139C162.799 33.3763 162.289 32.995 161.27 32.995C160.734 32.995 160.199 33.094 159.664 33.292L159.51 32.577C160.118 32.3423 160.749 32.225 161.402 32.225C162.113 32.225 162.663 32.3827 163.052 32.698C163.44 33.006 163.635 33.4387 163.635 33.996C163.635 34.2233 163.598 34.4837 163.525 34.777L162.667 38H161.831L162.062 37.109C161.482 37.7837 160.775 38.121 159.939 38.121ZM160.214 37.45C160.705 37.45 161.163 37.2923 161.589 36.977C162.021 36.6617 162.304 36.2583 162.436 35.767L162.546 35.371C161.915 35.2023 161.303 35.118 160.709 35.118C160.21 35.118 159.803 35.2427 159.488 35.492C159.172 35.7413 159.015 36.0603 159.015 36.449C159.015 36.7497 159.121 36.9917 159.334 37.175C159.554 37.3583 159.847 37.45 160.214 37.45ZM165.781 38L167.112 33.05H165.066L165.264 32.324H170.17L169.972 33.05H167.959L166.628 38H165.781ZM169.929 38L171.458 32.313H172.305L171.711 34.502H173.174C173.768 34.502 174.238 34.6377 174.582 34.909C174.927 35.173 175.099 35.5323 175.099 35.987C175.099 36.625 174.854 37.12 174.362 37.472C173.871 37.824 173.207 38 172.371 38H169.929ZM170.974 37.274H172.338C172.94 37.274 173.405 37.1677 173.735 36.955C174.065 36.735 174.23 36.427 174.23 36.031C174.23 35.7523 174.117 35.5433 173.889 35.404C173.669 35.2647 173.394 35.195 173.064 35.195H171.524L170.974 37.274ZM179.146 38L180.675 32.313H183.15C183.707 32.313 184.144 32.434 184.459 32.676C184.774 32.9107 184.932 33.2297 184.932 33.633C184.932 34.0143 184.796 34.3333 184.525 34.59C184.254 34.8393 183.902 35.0117 183.469 35.107C183.77 35.1803 184.019 35.3233 184.217 35.536C184.415 35.7487 184.514 36.009 184.514 36.317C184.514 36.8157 184.298 37.2227 183.865 37.538C183.44 37.846 182.853 38 182.105 38H179.146ZM180.191 37.307H182.061C182.552 37.307 182.937 37.2153 183.216 37.032C183.502 36.8487 183.645 36.592 183.645 36.262C183.645 35.998 183.528 35.7927 183.293 35.646C183.066 35.4993 182.769 35.426 182.402 35.426H180.697L180.191 37.307ZM180.851 34.766H182.479C182.956 34.766 183.333 34.6743 183.612 34.491C183.898 34.3077 184.041 34.0583 184.041 33.743C184.041 33.259 183.682 33.017 182.963 33.017H181.324L180.851 34.766ZM187.396 38.121C186.89 38.121 186.464 37.9817 186.12 37.703C185.775 37.417 185.603 37.032 185.603 36.548C185.603 35.9173 185.837 35.4187 186.307 35.052C186.776 34.678 187.385 34.491 188.133 34.491C188.756 34.491 189.427 34.5937 190.146 34.799L190.19 34.656C190.234 34.4507 190.256 34.2783 190.256 34.139C190.256 33.3763 189.746 32.995 188.727 32.995C188.191 32.995 187.656 33.094 187.121 33.292L186.967 32.577C187.575 32.3423 188.206 32.225 188.859 32.225C189.57 32.225 190.12 32.3827 190.509 32.698C190.897 33.006 191.092 33.4387 191.092 33.996C191.092 34.2233 191.055 34.4837 190.982 34.777L190.124 38H189.288L189.519 37.109C188.939 37.7837 188.232 38.121 187.396 38.121ZM187.671 37.45C188.162 37.45 188.62 37.2923 189.046 36.977C189.478 36.6617 189.761 36.2583 189.893 35.767L190.003 35.371C189.372 35.2023 188.76 35.118 188.166 35.118C187.667 35.118 187.26 35.2427 186.945 35.492C186.629 35.7413 186.472 36.0603 186.472 36.449C186.472 36.7497 186.578 36.9917 186.791 37.175C187.011 37.3583 187.304 37.45 187.671 37.45ZM194.778 38.132C194.082 38.132 193.488 37.9083 192.996 37.461C192.505 37.0063 192.259 36.4013 192.259 35.646C192.259 34.7147 192.589 33.908 193.249 33.226C193.917 32.5367 194.701 32.192 195.603 32.192C196.161 32.192 196.626 32.3167 197 32.566C197.374 32.8153 197.664 33.1343 197.869 33.523L197.187 33.952C196.784 33.2773 196.238 32.94 195.548 32.94C194.903 32.94 194.338 33.2113 193.854 33.754C193.37 34.2893 193.128 34.9127 193.128 35.624C193.128 36.1593 193.293 36.5883 193.623 36.911C193.953 37.2263 194.353 37.384 194.822 37.384C195.394 37.384 195.955 37.1347 196.505 36.636L197 37.186C196.333 37.8167 195.592 38.132 194.778 38.132ZM201.393 38L202.911 32.313H203.769L203.109 34.733H206.365L207.025 32.313H207.872L206.343 38H205.496L206.178 35.459H202.922L202.24 38H201.393ZM210.029 38.121C209.523 38.121 209.098 37.9817 208.753 37.703C208.409 37.417 208.236 37.032 208.236 36.548C208.236 35.9173 208.471 35.4187 208.94 35.052C209.41 34.678 210.018 34.491 210.766 34.491C211.39 34.491 212.061 34.5937 212.779 34.799L212.823 34.656C212.867 34.4507 212.889 34.2783 212.889 34.139C212.889 33.3763 212.38 32.995 211.36 32.995C210.825 32.995 210.29 33.094 209.754 33.292L209.6 32.577C210.209 32.3423 210.84 32.225 211.492 32.225C212.204 32.225 212.754 32.3827 213.142 32.698C213.531 33.006 213.725 33.4387 213.725 33.996C213.725 34.2233 213.689 34.4837 213.615 34.777L212.757 38H211.921L212.152 37.109C211.573 37.7837 210.865 38.121 210.029 38.121ZM210.304 37.45C210.796 37.45 211.254 37.2923 211.679 36.977C212.112 36.6617 212.394 36.2583 212.526 35.767L212.636 35.371C212.006 35.2023 211.393 35.118 210.799 35.118C210.301 35.118 209.894 35.2427 209.578 35.492C209.263 35.7413 209.105 36.0603 209.105 36.449C209.105 36.7497 209.212 36.9917 209.424 37.175C209.644 37.3583 209.938 37.45 210.304 37.45ZM16.187 54L17.716 48.313H20.191C20.7483 48.313 21.1847 48.434 21.5 48.676C21.8153 48.9107 21.973 49.2297 21.973 49.633C21.973 50.0143 21.8373 50.3333 21.566 50.59C21.2947 50.8393 20.9427 51.0117 20.51 51.107C20.8107 51.1803 21.06 51.3233 21.258 51.536C21.456 51.7487 21.555 52.009 21.555 52.317C21.555 52.8157 21.3387 53.2227 20.906 53.538C20.4807 53.846 19.894 54 19.146 54H16.187ZM17.232 53.307H19.102C19.5933 53.307 19.9783 53.2153 20.257 53.032C20.543 52.8487 20.686 52.592 20.686 52.262C20.686 51.998 20.5687 51.7927 20.334 51.646C20.1067 51.4993 19.8097 51.426 19.443 51.426H17.738L17.232 53.307ZM17.892 50.766H19.52C19.9967 50.766 20.3743 50.6743 20.653 50.491C20.939 50.3077 21.082 50.0583 21.082 49.743C21.082 49.259 20.7227 49.017 20.004 49.017H18.365L17.892 50.766ZM25.4816 54.132C24.7849 54.132 24.1909 53.9083 23.6996 53.461C23.2082 53.0063 22.9626 52.4013 22.9626 51.646C22.9626 50.7147 23.2926 49.908 23.9526 49.226C24.6199 48.5367 25.4046 48.192 26.3066 48.192C26.8639 48.192 27.3296 48.3167 27.7036 48.566C28.0776 48.8153 28.3672 49.1343 28.5726 49.523L27.8906 49.952C27.4872 49.2773 26.9409 48.94 26.2516 48.94C25.6062 48.94 25.0416 49.2113 24.5576 49.754C24.0736 50.2893 23.8316 50.9127 23.8316 51.624C23.8316 52.1593 23.9966 52.5883 24.3266 52.911C24.6566 53.2263 25.0562 53.384 25.5256 53.384C26.0976 53.384 26.6586 53.1347 27.2086 52.636L27.7036 53.186C27.0362 53.8167 26.2956 54.132 25.4816 54.132ZM31.6583 54.132C30.903 54.132 30.2943 53.9083 29.8323 53.461C29.3703 53.0137 29.1393 52.4307 29.1393 51.712C29.1393 50.81 29.4583 49.9997 30.0963 49.281C30.7417 48.555 31.5263 48.192 32.4503 48.192C33.1397 48.192 33.6787 48.401 34.0673 48.819C34.456 49.2297 34.6503 49.7467 34.6503 50.37C34.6503 50.7367 34.5807 51.107 34.4413 51.481H29.9973C29.99 51.525 29.9863 51.591 29.9863 51.679C29.9863 52.1997 30.1403 52.6177 30.4483 52.933C30.7563 53.241 31.1743 53.395 31.7023 53.395C32.3183 53.395 32.9013 53.1713 33.4513 52.724L33.8913 53.285C33.224 53.8497 32.4797 54.132 31.6583 54.132ZM30.1183 50.799H33.7813C33.8107 50.6523 33.8253 50.5093 33.8253 50.37C33.8253 49.952 33.7043 49.6037 33.4623 49.325C33.2203 49.0463 32.8683 48.907 32.4063 48.907C31.8637 48.907 31.387 49.0867 30.9763 49.446C30.573 49.798 30.287 50.249 30.1183 50.799ZM34.7039 54L37.7619 51.052L36.3319 48.313H37.2669L38.3449 50.48L40.5119 48.313H41.5789L38.6859 51.129L40.1709 54H39.2359L38.1029 51.69L35.7709 54H34.7039ZM46.9277 54.132C46.363 54.132 45.8864 54.0037 45.4977 53.747C45.109 53.4903 44.8194 53.1603 44.6287 52.757L45.3107 52.361C45.692 53.0503 46.2384 53.395 46.9497 53.395C47.485 53.395 47.969 53.2117 48.4017 52.845C48.8417 52.471 49.1387 52.0053 49.2927 51.448H46.6967L46.8507 50.755H49.3697C49.3697 50.1757 49.2084 49.7283 48.8857 49.413C48.563 49.0977 48.1597 48.94 47.6757 48.94C47.0744 48.94 46.5317 49.171 46.0477 49.633L45.5527 49.072C46.176 48.4853 46.9057 48.192 47.7417 48.192C48.4237 48.192 49.0104 48.423 49.5017 48.885C50.0004 49.347 50.2497 49.952 50.2497 50.7C50.2497 51.6313 49.9197 52.438 49.2597 53.12C48.607 53.7947 47.8297 54.132 46.9277 54.132ZM52.2795 54L53.6105 49.05H51.5645L51.7625 48.324H56.6685L56.4705 49.05H54.4575L53.1265 54H52.2795ZM58.2422 54.121C57.7362 54.121 57.3109 53.9817 56.9662 53.703C56.6216 53.417 56.4492 53.032 56.4492 52.548C56.4492 51.9173 56.6839 51.4187 57.1532 51.052C57.6226 50.678 58.2312 50.491 58.9792 50.491C59.6026 50.491 60.2736 50.5937 60.9922 50.799L61.0362 50.656C61.0802 50.4507 61.1022 50.2783 61.1022 50.139C61.1022 49.3763 60.5926 48.995 59.5732 48.995C59.0379 48.995 58.5026 49.094 57.9672 49.292L57.8132 48.577C58.4219 48.3423 59.0526 48.225 59.7052 48.225C60.4166 48.225 60.9666 48.3827 61.3552 48.698C61.7439 49.006 61.9382 49.4387 61.9382 49.996C61.9382 50.2233 61.9016 50.4837 61.8282 50.777L60.9702 54H60.1342L60.3652 53.109C59.7859 53.7837 59.0782 54.121 58.2422 54.121ZM58.5172 53.45C59.0086 53.45 59.4669 53.2923 59.8922 52.977C60.3249 52.6617 60.6072 52.2583 60.7392 51.767L60.8492 51.371C60.2186 51.2023 59.6062 51.118 59.0122 51.118C58.5136 51.118 58.1066 51.2427 57.7912 51.492C57.4759 51.7413 57.3182 52.0603 57.3182 52.449C57.3182 52.7497 57.4246 52.9917 57.6372 53.175C57.8572 53.3583 58.1506 53.45 58.5172 53.45ZM62.7651 54L64.2831 48.313H69.1121L67.5831 54H66.7361L68.0671 49.05H64.9431L63.6121 54H62.7651ZM71.2725 54.121C70.7665 54.121 70.3412 53.9817 69.9965 53.703C69.6518 53.417 69.4795 53.032 69.4795 52.548C69.4795 51.9173 69.7142 51.4187 70.1835 51.052C70.6528 50.678 71.2615 50.491 72.0095 50.491C72.6328 50.491 73.3038 50.5937 74.0225 50.799L74.0665 50.656C74.1105 50.4507 74.1325 50.2783 74.1325 50.139C74.1325 49.3763 73.6228 48.995 72.6035 48.995C72.0682 48.995 71.5328 49.094 70.9975 49.292L70.8435 48.577C71.4522 48.3423 72.0828 48.225 72.7355 48.225C73.4468 48.225 73.9968 48.3827 74.3855 48.698C74.7742 49.006 74.9685 49.4387 74.9685 49.996C74.9685 50.2233 74.9318 50.4837 74.8585 50.777L74.0005 54H73.1645L73.3955 53.109C72.8162 53.7837 72.1085 54.121 71.2725 54.121ZM71.5475 53.45C72.0388 53.45 72.4972 53.2923 72.9225 52.977C73.3552 52.6617 73.6375 52.2583 73.7695 51.767L73.8795 51.371C73.2488 51.2023 72.6365 51.118 72.0425 51.118C71.5438 51.118 71.1368 51.2427 70.8215 51.492C70.5062 51.7413 70.3485 52.0603 70.3485 52.449C70.3485 52.7497 70.4548 52.9917 70.6675 53.175C70.8875 53.3583 71.1808 53.45 71.5475 53.45ZM75.2234 54L78.2814 51.052L76.8514 48.313H77.7864L78.8644 50.48L81.0314 48.313H82.0984L79.2054 51.129L80.6904 54H79.7554L78.6224 51.69L76.2904 54H75.2234ZM84.8292 55.76L86.8202 48.313H87.6672L87.4032 49.292C88.0559 48.5587 88.7746 48.192 89.5592 48.192C90.2119 48.192 90.7509 48.4157 91.1762 48.863C91.6016 49.303 91.8142 49.8823 91.8142 50.601C91.8142 51.591 91.4952 52.427 90.8572 53.109C90.2192 53.791 89.4749 54.132 88.6242 54.132C87.6049 54.132 86.8936 53.6627 86.4902 52.724L85.6762 55.76H84.8292ZM88.5472 53.384C89.2146 53.384 89.7756 53.1163 90.2302 52.581C90.6922 52.0457 90.9232 51.4113 90.9232 50.678C90.9232 50.15 90.7766 49.7283 90.4832 49.413C90.1899 49.0977 89.8012 48.94 89.3172 48.94C88.6792 48.94 88.0962 49.215 87.5682 49.765C87.0476 50.3077 86.7872 50.9237 86.7872 51.613C86.7872 52.1117 86.9522 52.5333 87.2822 52.878C87.6122 53.2153 88.0339 53.384 88.5472 53.384ZM94.3682 54.121C93.8622 54.121 93.4369 53.9817 93.0922 53.703C92.7475 53.417 92.5752 53.032 92.5752 52.548C92.5752 51.9173 92.8099 51.4187 93.2792 51.052C93.7485 50.678 94.3572 50.491 95.1052 50.491C95.7285 50.491 96.3995 50.5937 97.1182 50.799L97.1622 50.656C97.2062 50.4507 97.2282 50.2783 97.2282 50.139C97.2282 49.3763 96.7185 48.995 95.6992 48.995C95.1639 48.995 94.6285 49.094 94.0932 49.292L93.9392 48.577C94.5479 48.3423 95.1785 48.225 95.8312 48.225C96.5425 48.225 97.0925 48.3827 97.4812 48.698C97.8699 49.006 98.0642 49.4387 98.0642 49.996C98.0642 50.2233 98.0275 50.4837 97.9542 50.777L97.0962 54H96.2602L96.4912 53.109C95.9119 53.7837 95.2042 54.121 94.3682 54.121ZM94.6432 53.45C95.1345 53.45 95.5929 53.2923 96.0182 52.977C96.4509 52.6617 96.7332 52.2583 96.8652 51.767L96.9752 51.371C96.3445 51.2023 95.7322 51.118 95.1382 51.118C94.6395 51.118 94.2325 51.2427 93.9172 51.492C93.6019 51.7413 93.4442 52.0603 93.4442 52.449C93.4442 52.7497 93.5505 52.9917 93.7632 53.175C93.9832 53.3583 94.2765 53.45 94.6432 53.45ZM100.959 54.121C100.035 54.121 99.2688 53.8387 98.6601 53.274L99.1881 52.636C99.7234 53.1347 100.314 53.384 100.959 53.384C101.377 53.384 101.744 53.274 102.059 53.054C102.374 52.834 102.532 52.559 102.532 52.229C102.532 51.7083 102.114 51.448 101.278 51.448H100.519L100.695 50.755H101.399C101.802 50.755 102.143 50.656 102.422 50.458C102.701 50.2527 102.84 49.9887 102.84 49.666C102.84 49.4387 102.741 49.259 102.543 49.127C102.345 48.995 102.085 48.929 101.762 48.929C101.073 48.929 100.464 49.1197 99.9361 49.501L99.6171 48.907C100.299 48.4303 101.058 48.192 101.894 48.192C102.459 48.192 102.906 48.324 103.236 48.588C103.573 48.852 103.742 49.1783 103.742 49.567C103.742 50.2637 103.353 50.755 102.576 51.041C102.84 51.1437 103.045 51.2977 103.192 51.503C103.346 51.7083 103.423 51.9503 103.423 52.229C103.423 52.7643 103.199 53.2153 102.752 53.582C102.312 53.9413 101.714 54.121 100.959 54.121ZM104.456 54L105.985 48.313H108.46C109.017 48.313 109.453 48.434 109.769 48.676C110.084 48.9107 110.242 49.2297 110.242 49.633C110.242 50.0143 110.106 50.3333 109.835 50.59C109.563 50.8393 109.211 51.0117 108.779 51.107C109.079 51.1803 109.329 51.3233 109.527 51.536C109.725 51.7487 109.824 52.009 109.824 52.317C109.824 52.8157 109.607 53.2227 109.175 53.538C108.749 53.846 108.163 54 107.415 54H104.456ZM105.501 53.307H107.371C107.862 53.307 108.247 53.2153 108.526 53.032C108.812 52.8487 108.955 52.592 108.955 52.262C108.955 51.998 108.837 51.7927 108.603 51.646C108.375 51.4993 108.078 51.426 107.712 51.426H106.007L105.501 53.307ZM106.161 50.766H107.789C108.265 50.766 108.643 50.6743 108.922 50.491C109.208 50.3077 109.351 50.0583 109.351 49.743C109.351 49.259 108.991 49.017 108.273 49.017H106.634L106.161 50.766ZM110.89 54L112.408 48.313H113.244L112.045 52.779L116.621 48.313H117.435L115.906 54H115.07L116.28 49.512L111.704 54H110.89ZM119.096 54L120.427 49.05H118.381L118.579 48.324H123.485L123.287 49.05H121.274L119.943 54H119.096ZM123.244 54L124.762 48.313H125.598L124.399 52.779L128.975 48.313H129.789L128.26 54H127.424L128.634 49.512L124.058 54H123.244ZM129.766 54L131.988 51.789C131.629 51.701 131.35 51.5323 131.152 51.283C130.954 51.0337 130.855 50.7257 130.855 50.359C130.855 49.7283 131.101 49.2297 131.592 48.863C132.091 48.4963 132.762 48.313 133.605 48.313H136.146L134.628 54H133.781L134.331 51.91H132.923L130.855 54H129.766ZM132.89 51.217H134.518L135.101 49.05H133.616C132.993 49.05 132.513 49.1637 132.175 49.391C131.845 49.6183 131.68 49.9373 131.68 50.348C131.68 50.9273 132.084 51.217 132.89 51.217ZM139.808 54L141.337 48.313H143.812C144.369 48.313 144.806 48.434 145.121 48.676C145.436 48.9107 145.594 49.2297 145.594 49.633C145.594 50.0143 145.458 50.3333 145.187 50.59C144.916 50.8393 144.564 51.0117 144.131 51.107C144.432 51.1803 144.681 51.3233 144.879 51.536C145.077 51.7487 145.176 52.009 145.176 52.317C145.176 52.8157 144.96 53.2227 144.527 53.538C144.102 53.846 143.515 54 142.767 54H139.808ZM140.853 53.307H142.723C143.214 53.307 143.599 53.2153 143.878 53.032C144.164 52.8487 144.307 52.592 144.307 52.262C144.307 51.998 144.19 51.7927 143.955 51.646C143.728 51.4993 143.431 51.426 143.064 51.426H141.359L140.853 53.307ZM141.513 50.766H143.141C143.618 50.766 143.995 50.6743 144.274 50.491C144.56 50.3077 144.703 50.0583 144.703 49.743C144.703 49.259 144.344 49.017 143.625 49.017H141.986L141.513 50.766ZM149.541 54L151.059 48.313H155.888L154.359 54H153.512L154.843 49.05H151.719L150.388 54H149.541ZM155.76 55.76L157.751 48.313H158.598L158.334 49.292C158.987 48.5587 159.705 48.192 160.49 48.192C161.143 48.192 161.682 48.4157 162.107 48.863C162.532 49.303 162.745 49.8823 162.745 50.601C162.745 51.591 162.426 52.427 161.788 53.109C161.15 53.791 160.406 54.132 159.555 54.132C158.536 54.132 157.824 53.6627 157.421 52.724L156.607 55.76H155.76ZM159.478 53.384C160.145 53.384 160.706 53.1163 161.161 52.581C161.623 52.0457 161.854 51.4113 161.854 50.678C161.854 50.15 161.707 49.7283 161.414 49.413C161.121 49.0977 160.732 48.94 160.248 48.94C159.61 48.94 159.027 49.215 158.499 49.765C157.978 50.3077 157.718 50.9237 157.718 51.613C157.718 52.1117 157.883 52.5333 158.213 52.878C158.543 53.2153 158.965 53.384 159.478 53.384ZM166.421 54.132C165.651 54.132 165.028 53.8937 164.551 53.417C164.074 52.9403 163.836 52.328 163.836 51.58C163.836 50.6853 164.166 49.897 164.826 49.215C165.493 48.533 166.278 48.192 167.18 48.192C167.957 48.192 168.584 48.4303 169.061 48.907C169.538 49.3837 169.776 49.9923 169.776 50.733C169.776 51.6423 169.439 52.438 168.764 53.12C168.097 53.7947 167.316 54.132 166.421 54.132ZM166.476 53.373C167.114 53.373 167.679 53.109 168.17 52.581C168.661 52.0457 168.907 51.4407 168.907 50.766C168.907 50.194 168.742 49.7467 168.412 49.424C168.089 49.1013 167.66 48.94 167.125 48.94C166.48 48.94 165.911 49.2113 165.42 49.754C164.936 50.2893 164.694 50.8907 164.694 51.558C164.694 52.1227 164.855 52.5663 165.178 52.889C165.508 53.2117 165.941 53.373 166.476 53.373ZM170.499 54L172.017 48.313H175.878L175.68 49.05H172.666L171.335 54H170.499ZM175.096 55.76L177.087 48.313H177.934L177.67 49.292C178.323 48.5587 179.041 48.192 179.826 48.192C180.479 48.192 181.018 48.4157 181.443 48.863C181.868 49.303 182.081 49.8823 182.081 50.601C182.081 51.591 181.762 52.427 181.124 53.109C180.486 53.791 179.742 54.132 178.891 54.132C177.872 54.132 177.16 53.6627 176.757 52.724L175.943 55.76H175.096ZM178.814 53.384C179.481 53.384 180.042 53.1163 180.497 52.581C180.959 52.0457 181.19 51.4113 181.19 50.678C181.19 50.15 181.043 49.7283 180.75 49.413C180.457 49.0977 180.068 48.94 179.584 48.94C178.946 48.94 178.363 49.215 177.835 49.765C177.314 50.3077 177.054 50.9237 177.054 51.613C177.054 52.1117 177.219 52.5333 177.549 52.878C177.879 53.2153 178.301 53.384 178.814 53.384ZM184.635 54.121C184.129 54.121 183.703 53.9817 183.359 53.703C183.014 53.417 182.842 53.032 182.842 52.548C182.842 51.9173 183.076 51.4187 183.546 51.052C184.015 50.678 184.624 50.491 185.372 50.491C185.995 50.491 186.666 50.5937 187.385 50.799L187.429 50.656C187.473 50.4507 187.495 50.2783 187.495 50.139C187.495 49.3763 186.985 48.995 185.966 48.995C185.43 48.995 184.895 49.094 184.36 49.292L184.206 48.577C184.814 48.3423 185.445 48.225 186.098 48.225C186.809 48.225 187.359 48.3827 187.748 48.698C188.136 49.006 188.331 49.4387 188.331 49.996C188.331 50.2233 188.294 50.4837 188.221 50.777L187.363 54H186.527L186.758 53.109C186.178 53.7837 185.471 54.121 184.635 54.121ZM184.91 53.45C185.401 53.45 185.859 53.2923 186.285 52.977C186.717 52.6617 187 52.2583 187.132 51.767L187.242 51.371C186.611 51.2023 185.999 51.118 185.405 51.118C184.906 51.118 184.499 51.2427 184.184 51.492C183.868 51.7413 183.711 52.0603 183.711 52.449C183.711 52.7497 183.817 52.9917 184.03 53.175C184.25 53.3583 184.543 53.45 184.91 53.45ZM189.158 54L190.676 48.313H191.413L192.722 51.327L195.648 48.313H196.517L194.988 54H194.141L195.307 49.666L192.436 52.548L191.16 49.655L189.994 54H189.158ZM196.86 54L198.378 48.313H199.115L200.424 51.327L203.35 48.313H204.219L202.69 54H201.843L203.009 49.666L200.138 52.548L198.862 49.655L197.696 54H196.86ZM207.422 54.132C206.667 54.132 206.058 53.9083 205.596 53.461C205.134 53.0137 204.903 52.4307 204.903 51.712C204.903 50.81 205.222 49.9997 205.86 49.281C206.505 48.555 207.29 48.192 208.214 48.192C208.903 48.192 209.442 48.401 209.831 48.819C210.22 49.2297 210.414 49.7467 210.414 50.37C210.414 50.7367 210.344 51.107 210.205 51.481H205.761C205.754 51.525 205.75 51.591 205.75 51.679C205.75 52.1997 205.904 52.6177 206.212 52.933C206.52 53.241 206.938 53.395 207.466 53.395C208.082 53.395 208.665 53.1713 209.215 52.724L209.655 53.285C208.988 53.8497 208.243 54.132 207.422 54.132ZM205.882 50.799H209.545C209.574 50.6523 209.589 50.5093 209.589 50.37C209.589 49.952 209.468 49.6037 209.226 49.325C208.984 49.0463 208.632 48.907 208.17 48.907C207.627 48.907 207.151 49.0867 206.74 49.446C206.337 49.798 206.051 50.249 205.882 50.799ZM210.985 54L211.304 52.845H212.305L211.997 54H210.985ZM20.345 70.143C19.3623 70.143 18.552 69.824 17.914 69.186C17.2833 68.548 16.968 67.7523 16.968 66.799C16.968 66.007 17.1623 65.259 17.551 64.555C17.9397 63.8437 18.4823 63.268 19.179 62.828C19.8757 62.388 20.6347 62.168 21.456 62.168C22.4387 62.168 23.2453 62.487 23.876 63.125C24.514 63.763 24.833 64.555 24.833 65.501C24.833 66.293 24.6387 67.0447 24.25 67.756C23.8613 68.4673 23.3187 69.043 22.622 69.483C21.9253 69.923 21.1663 70.143 20.345 70.143ZM20.4 69.34C21.0527 69.34 21.6503 69.1567 22.193 68.79C22.743 68.4233 23.1683 67.9503 23.469 67.371C23.7697 66.7843 23.92 66.172 23.92 65.534C23.92 64.7933 23.689 64.181 23.227 63.697C22.765 63.213 22.1563 62.971 21.401 62.971C20.7483 62.971 20.147 63.1543 19.597 63.521C19.0543 63.8877 18.6327 64.3643 18.332 64.951C18.0313 65.5303 17.881 66.139 17.881 66.777C17.881 67.5177 18.112 68.13 18.574 68.614C19.036 69.098 19.6447 69.34 20.4 69.34ZM28.4938 70.132C27.6578 70.132 27.0161 69.8937 26.5688 69.417C26.1214 68.9403 25.8978 68.317 25.8978 67.547C25.8978 67.085 25.9491 66.6193 26.0518 66.15C26.1618 65.6733 26.3268 65.2003 26.5468 64.731C26.7741 64.2543 27.0931 63.8437 27.5038 63.499C27.9218 63.147 28.4058 62.916 28.9558 62.806L32.2228 62.146L32.3218 62.861L29.0768 63.554C28.4901 63.6787 28.0318 63.9023 27.7018 64.225C27.3791 64.5403 27.1334 64.9657 26.9648 65.501C27.6321 64.7897 28.4094 64.434 29.2968 64.434C30.0374 64.434 30.6388 64.654 31.1008 65.094C31.5628 65.5267 31.7938 66.1023 31.7938 66.821C31.7938 67.6937 31.4528 68.4637 30.7708 69.131C30.0961 69.7983 29.3371 70.132 28.4938 70.132ZM28.5048 69.384C29.1061 69.384 29.6561 69.1273 30.1548 68.614C30.6534 68.0933 30.9028 67.4993 30.9028 66.832C30.9028 66.3113 30.7451 65.897 30.4298 65.589C30.1144 65.2737 29.6781 65.116 29.1208 65.116C28.4828 65.116 27.9291 65.3653 27.4598 65.864C26.9904 66.3553 26.7558 66.9383 26.7558 67.613C26.7558 68.1263 26.9061 68.5517 27.2068 68.889C27.5074 69.219 27.9401 69.384 28.5048 69.384ZM32.0314 71.76L34.0224 64.313H34.8694L34.6054 65.292C35.258 64.5587 35.9767 64.192 36.7614 64.192C37.414 64.192 37.953 64.4157 38.3784 64.863C38.8037 65.303 39.0164 65.8823 39.0164 66.601C39.0164 67.591 38.6974 68.427 38.0594 69.109C37.4214 69.791 36.677 70.132 35.8264 70.132C34.807 70.132 34.0957 69.6627 33.6924 68.724L32.8784 71.76H32.0314ZM35.7494 69.384C36.4167 69.384 36.9777 69.1163 37.4324 68.581C37.8944 68.0457 38.1254 67.4113 38.1254 66.678C38.1254 66.15 37.9787 65.7283 37.6854 65.413C37.392 65.0977 37.0034 64.94 36.5194 64.94C35.8814 64.94 35.2984 65.215 34.7704 65.765C34.2497 66.3077 33.9894 66.9237 33.9894 67.613C33.9894 68.1117 34.1544 68.5333 34.4844 68.878C34.8144 69.2153 35.236 69.384 35.7494 69.384ZM41.5704 70.121C41.0644 70.121 40.639 69.9817 40.2944 69.703C39.9497 69.417 39.7774 69.032 39.7774 68.548C39.7774 67.9173 40.012 67.4187 40.4814 67.052C40.9507 66.678 41.5594 66.491 42.3074 66.491C42.9307 66.491 43.6017 66.5937 44.3204 66.799L44.3644 66.656C44.4084 66.4507 44.4304 66.2783 44.4304 66.139C44.4304 65.3763 43.9207 64.995 42.9014 64.995C42.366 64.995 41.8307 65.094 41.2954 65.292L41.1414 64.577C41.75 64.3423 42.3807 64.225 43.0334 64.225C43.7447 64.225 44.2947 64.3827 44.6834 64.698C45.072 65.006 45.2664 65.4387 45.2664 65.996C45.2664 66.2233 45.2297 66.4837 45.1564 66.777L44.2984 70H43.4624L43.6934 69.109C43.114 69.7837 42.4064 70.121 41.5704 70.121ZM41.8454 69.45C42.3367 69.45 42.795 69.2923 43.2204 68.977C43.653 68.6617 43.9354 68.2583 44.0674 67.767L44.1774 67.371C43.5467 67.2023 42.9344 67.118 42.3404 67.118C41.8417 67.118 41.4347 67.2427 41.1194 67.492C40.804 67.7413 40.6464 68.0603 40.6464 68.449C40.6464 68.7497 40.7527 68.9917 40.9654 69.175C41.1854 69.3583 41.4787 69.45 41.8454 69.45ZM53.7493 71.507L54.1673 70H46.0933L47.6113 64.313H48.4693L47.1383 69.274H49.8773L51.2083 64.313H52.0553L50.7243 69.274H53.4633L54.7943 64.313H55.6413L54.3103 69.274H55.1903L54.4643 71.507H53.7493ZM57.9844 70.121C57.4784 70.121 57.0531 69.9817 56.7084 69.703C56.3638 69.417 56.1914 69.032 56.1914 68.548C56.1914 67.9173 56.4261 67.4187 56.8954 67.052C57.3648 66.678 57.9734 66.491 58.7214 66.491C59.3448 66.491 60.0158 66.5937 60.7344 66.799L60.7784 66.656C60.8224 66.4507 60.8444 66.2783 60.8444 66.139C60.8444 65.3763 60.3348 64.995 59.3154 64.995C58.7801 64.995 58.2448 65.094 57.7094 65.292L57.5554 64.577C58.1641 64.3423 58.7948 64.225 59.4474 64.225C60.1588 64.225 60.7088 64.3827 61.0974 64.698C61.4861 65.006 61.6804 65.4387 61.6804 65.996C61.6804 66.2233 61.6438 66.4837 61.5704 66.777L60.7124 70H59.8764L60.1074 69.109C59.5281 69.7837 58.8204 70.121 57.9844 70.121ZM58.2594 69.45C58.7508 69.45 59.2091 69.2923 59.6344 68.977C60.0671 68.6617 60.3494 68.2583 60.4814 67.767L60.5914 67.371C59.9608 67.2023 59.3484 67.118 58.7544 67.118C58.2558 67.118 57.8488 67.2427 57.5334 67.492C57.2181 67.7413 57.0604 68.0603 57.0604 68.449C57.0604 68.7497 57.1668 68.9917 57.3794 69.175C57.5994 69.3583 57.8928 69.45 58.2594 69.45ZM66.6213 63.477C66.218 63.477 65.8953 63.356 65.6533 63.114C65.4113 62.872 65.283 62.553 65.2683 62.157L65.8513 62.036C65.932 62.5493 66.2033 62.806 66.6653 62.806C67.208 62.806 67.5856 62.5493 67.7983 62.036L68.3703 62.157C68.2456 62.553 68.0256 62.872 67.7103 63.114C67.395 63.356 67.032 63.477 66.6213 63.477ZM62.5073 70L64.0253 64.313H64.8613L63.6623 68.779L68.2383 64.313H69.0523L67.5233 70H66.6873L67.8973 65.512L63.3213 70H62.5073ZM70.7131 70L72.0441 65.05H69.9981L70.1961 64.324H75.1021L74.9041 65.05H72.8911L71.5601 70H70.7131ZM77.7208 70.132C76.9655 70.132 76.3568 69.9083 75.8948 69.461C75.4328 69.0137 75.2018 68.4307 75.2018 67.712C75.2018 66.81 75.5208 65.9997 76.1588 65.281C76.8042 64.555 77.5888 64.192 78.5128 64.192C79.2022 64.192 79.7412 64.401 80.1298 64.819C80.5185 65.2297 80.7128 65.7467 80.7128 66.37C80.7128 66.7367 80.6432 67.107 80.5038 67.481H76.0598C76.0525 67.525 76.0488 67.591 76.0488 67.679C76.0488 68.1997 76.2028 68.6177 76.5108 68.933C76.8188 69.241 77.2368 69.395 77.7648 69.395C78.3808 69.395 78.9638 69.1713 79.5138 68.724L79.9538 69.285C79.2865 69.8497 78.5422 70.132 77.7208 70.132ZM76.1808 66.799H79.8438C79.8732 66.6523 79.8878 66.5093 79.8878 66.37C79.8878 65.952 79.7668 65.6037 79.5248 65.325C79.2828 65.0463 78.9308 64.907 78.4688 64.907C77.9262 64.907 77.4495 65.0867 77.0388 65.446C76.6355 65.798 76.3495 66.249 76.1808 66.799ZM84.1984 70.132C83.5017 70.132 82.9077 69.9083 82.4164 69.461C81.925 69.0063 81.6794 68.4013 81.6794 67.646C81.6794 66.7147 82.0094 65.908 82.6694 65.226C83.3367 64.5367 84.1214 64.192 85.0234 64.192C85.5807 64.192 86.0464 64.3167 86.4204 64.566C86.7944 64.8153 87.084 65.1343 87.2894 65.523L86.6074 65.952C86.204 65.2773 85.6577 64.94 84.9684 64.94C84.323 64.94 83.7584 65.2113 83.2744 65.754C82.7904 66.2893 82.5484 66.9127 82.5484 67.624C82.5484 68.1593 82.7134 68.5883 83.0434 68.911C83.3734 69.2263 83.773 69.384 84.2424 69.384C84.8144 69.384 85.3754 69.1347 85.9254 68.636L86.4204 69.186C85.753 69.8167 85.0124 70.132 84.1984 70.132ZM87.5151 70L89.0441 64.313H89.8911L89.2971 66.502H90.7601C91.3541 66.502 91.8235 66.6377 92.1681 66.909C92.5128 67.173 92.6851 67.5323 92.6851 67.987C92.6851 68.625 92.4395 69.12 91.9481 69.472C91.4568 69.824 90.7931 70 89.9571 70H87.5151ZM88.5601 69.274H89.9241C90.5255 69.274 90.9911 69.1677 91.3211 68.955C91.6511 68.735 91.8161 68.427 91.8161 68.031C91.8161 67.7523 91.7025 67.5433 91.4751 67.404C91.2551 67.2647 90.9801 67.195 90.6501 67.195H89.1101L88.5601 69.274ZM96.7319 70L98.2499 64.313H99.1079L98.2279 67.58L102.133 64.313H103.255L100.219 66.832L101.781 70H100.835L99.5149 67.382L97.9309 68.669L97.5789 70H96.7319ZM105.921 70.132C105.151 70.132 104.528 69.8937 104.051 69.417C103.574 68.9403 103.336 68.328 103.336 67.58C103.336 66.6853 103.666 65.897 104.326 65.215C104.993 64.533 105.778 64.192 106.68 64.192C107.457 64.192 108.084 64.4303 108.561 64.907C109.038 65.3837 109.276 65.9923 109.276 66.733C109.276 67.6423 108.939 68.438 108.264 69.12C107.597 69.7947 106.816 70.132 105.921 70.132ZM105.976 69.373C106.614 69.373 107.179 69.109 107.67 68.581C108.161 68.0457 108.407 67.4407 108.407 66.766C108.407 66.194 108.242 65.7467 107.912 65.424C107.589 65.1013 107.16 64.94 106.625 64.94C105.98 64.94 105.411 65.2113 104.92 65.754C104.436 66.2893 104.194 66.8907 104.194 67.558C104.194 68.1227 104.355 68.5663 104.678 68.889C105.008 69.2117 105.441 69.373 105.976 69.373ZM113.296 70L114.814 64.313H115.551L116.86 67.327L119.786 64.313H120.655L119.126 70H118.279L119.445 65.666L116.574 68.548L115.298 65.655L114.132 70H113.296ZM120.999 70L122.517 64.313H123.375L122.715 66.733H125.971L126.631 64.313H127.478L125.949 70H125.102L125.784 67.459H122.528L121.846 70H120.999ZM130.68 70.132C129.924 70.132 129.316 69.9083 128.854 69.461C128.392 69.0137 128.161 68.4307 128.161 67.712C128.161 66.81 128.48 65.9997 129.118 65.281C129.763 64.555 130.548 64.192 131.472 64.192C132.161 64.192 132.7 64.401 133.089 64.819C133.477 65.2297 133.672 65.7467 133.672 66.37C133.672 66.7367 133.602 67.107 133.463 67.481H129.019C129.011 67.525 129.008 67.591 129.008 67.679C129.008 68.1997 129.162 68.6177 129.47 68.933C129.778 69.241 130.196 69.395 130.724 69.395C131.34 69.395 131.923 69.1713 132.473 68.724L132.913 69.285C132.245 69.8497 131.501 70.132 130.68 70.132ZM129.14 66.799H132.803C132.832 66.6523 132.847 66.5093 132.847 66.37C132.847 65.952 132.726 65.6037 132.484 65.325C132.242 65.0463 131.89 64.907 131.428 64.907C130.885 64.907 130.408 65.0867 129.998 65.446C129.594 65.798 129.308 66.249 129.14 66.799ZM140.455 70.132C139.759 70.132 139.165 69.9083 138.673 69.461C138.182 69.0063 137.936 68.4013 137.936 67.646C137.936 66.7147 138.266 65.908 138.926 65.226C139.594 64.5367 140.378 64.192 141.28 64.192C141.838 64.192 142.303 64.3167 142.677 64.566C143.051 64.8153 143.341 65.1343 143.546 65.523L142.864 65.952C142.461 65.2773 141.915 64.94 141.225 64.94C140.58 64.94 140.015 65.2113 139.531 65.754C139.047 66.2893 138.805 66.9127 138.805 67.624C138.805 68.1593 138.97 68.5883 139.3 68.911C139.63 69.2263 140.03 69.384 140.499 69.384C141.071 69.384 141.632 69.1347 142.182 68.636L142.677 69.186C142.01 69.8167 141.269 70.132 140.455 70.132ZM146.993 70.088C146.641 70.088 146.384 70.0513 146.223 69.978L146.498 69.274C146.637 69.3253 146.78 69.351 146.927 69.351C147.132 69.351 147.304 69.3107 147.444 69.23C147.59 69.1493 147.763 68.966 147.961 68.68C148.159 68.394 148.368 67.932 148.588 67.294C148.815 66.656 149.068 65.82 149.347 64.786L149.479 64.313H153.538L152.009 70H151.162L152.493 65.039H150.084L150.007 65.314C149.772 66.1867 149.545 66.92 149.325 67.514C149.112 68.108 148.918 68.5737 148.742 68.911C148.566 69.2483 148.375 69.505 148.17 69.681C147.964 69.857 147.777 69.967 147.609 70.011C147.447 70.0623 147.242 70.088 146.993 70.088ZM159.083 70.132C158.306 70.132 157.708 69.89 157.29 69.406C156.872 68.9147 156.663 68.284 156.663 67.514H155.398L154.738 70H153.891L155.409 64.313H156.256L155.596 66.777H156.762C156.953 66.0437 157.334 65.4313 157.906 64.94C158.485 64.4413 159.153 64.192 159.908 64.192C160.656 64.192 161.246 64.423 161.679 64.885C162.112 65.3397 162.328 65.9263 162.328 66.645C162.328 67.5837 162.016 68.4013 161.393 69.098C160.77 69.7873 160 70.132 159.083 70.132ZM159.149 69.384C159.794 69.384 160.341 69.1163 160.788 68.581C161.235 68.0383 161.459 67.404 161.459 66.678C161.459 66.15 161.312 65.732 161.019 65.424C160.733 65.1087 160.337 64.951 159.831 64.951C159.178 64.951 158.628 65.2223 158.181 65.765C157.734 66.3077 157.51 66.9347 157.51 67.646C157.51 68.1813 157.653 68.6067 157.939 68.922C158.232 69.23 158.636 69.384 159.149 69.384ZM166.09 70.132C165.254 70.132 164.613 69.8937 164.165 69.417C163.718 68.9403 163.494 68.317 163.494 67.547C163.494 67.085 163.546 66.6193 163.648 66.15C163.758 65.6733 163.923 65.2003 164.143 64.731C164.371 64.2543 164.69 63.8437 165.1 63.499C165.518 63.147 166.002 62.916 166.552 62.806L169.819 62.146L169.918 62.861L166.673 63.554C166.087 63.6787 165.628 63.9023 165.298 64.225C164.976 64.5403 164.73 64.9657 164.561 65.501C165.229 64.7897 166.006 64.434 166.893 64.434C167.634 64.434 168.235 64.654 168.697 65.094C169.159 65.5267 169.39 66.1023 169.39 66.821C169.39 67.6937 169.049 68.4637 168.367 69.131C167.693 69.7983 166.934 70.132 166.09 70.132ZM166.101 69.384C166.703 69.384 167.253 69.1273 167.751 68.614C168.25 68.0933 168.499 67.4993 168.499 66.832C168.499 66.3113 168.342 65.897 168.026 65.589C167.711 65.2737 167.275 65.116 166.717 65.116C166.079 65.116 165.526 65.3653 165.056 65.864C164.587 66.3553 164.352 66.9383 164.352 67.613C164.352 68.1263 164.503 68.5517 164.803 68.889C165.104 69.219 165.537 69.384 166.101 69.384ZM170.101 70L171.63 64.313H172.477L171.883 66.502H173.28C173.874 66.502 174.343 66.6377 174.688 66.909C175.033 67.173 175.205 67.5323 175.205 67.987C175.205 68.625 174.959 69.12 174.468 69.472C173.977 69.824 173.313 70 172.477 70H170.101ZM171.146 69.274H172.444C173.045 69.274 173.511 69.1677 173.841 68.955C174.171 68.735 174.336 68.427 174.336 68.031C174.336 67.7523 174.222 67.5433 173.995 67.404C173.775 67.2647 173.5 67.195 173.17 67.195H171.696L171.146 69.274ZM175.7 70L177.229 64.313H178.076L176.547 70H175.7ZM178.426 70L179.944 64.313H180.681L181.99 67.327L184.916 64.313H185.785L184.256 70H183.409L184.575 65.666L181.704 68.548L180.428 65.655L179.262 70H178.426ZM16.187 86L17.716 80.313H20.191C20.7483 80.313 21.1847 80.434 21.5 80.676C21.8153 80.9107 21.973 81.2297 21.973 81.633C21.973 82.0143 21.8373 82.3333 21.566 82.59C21.2947 82.8393 20.9427 83.0117 20.51 83.107C20.8107 83.1803 21.06 83.3233 21.258 83.536C21.456 83.7487 21.555 84.009 21.555 84.317C21.555 84.8157 21.3387 85.2227 20.906 85.538C20.4807 85.846 19.894 86 19.146 86H16.187ZM17.232 85.307H19.102C19.5933 85.307 19.9783 85.2153 20.257 85.032C20.543 84.8487 20.686 84.592 20.686 84.262C20.686 83.998 20.5687 83.7927 20.334 83.646C20.1067 83.4993 19.8097 83.426 19.443 83.426H17.738L17.232 85.307ZM17.892 82.766H19.52C19.9967 82.766 20.3743 82.6743 20.653 82.491C20.939 82.3077 21.082 82.0583 21.082 81.743C21.082 81.259 20.7227 81.017 20.004 81.017H18.365L17.892 82.766ZM25.5586 86.132C24.7886 86.132 24.1652 85.8937 23.6886 85.417C23.2119 84.9403 22.9736 84.328 22.9736 83.58C22.9736 82.6853 23.3036 81.897 23.9636 81.215C24.6309 80.533 25.4156 80.192 26.3176 80.192C27.0949 80.192 27.7219 80.4303 28.1986 80.907C28.6752 81.3837 28.9136 81.9923 28.9136 82.733C28.9136 83.6423 28.5762 84.438 27.9016 85.12C27.2342 85.7947 26.4532 86.132 25.5586 86.132ZM25.6136 85.373C26.2516 85.373 26.8162 85.109 27.3076 84.581C27.7989 84.0457 28.0446 83.4407 28.0446 82.766C28.0446 82.194 27.8796 81.7467 27.5496 81.424C27.2269 81.1013 26.7979 80.94 26.2626 80.94C25.6172 80.94 25.0489 81.2113 24.5576 81.754C24.0736 82.2893 23.8316 82.8907 23.8316 83.558C23.8316 84.1227 23.9929 84.5663 24.3156 84.889C24.6456 85.2117 25.0782 85.373 25.6136 85.373ZM29.6362 86L31.1542 80.313H35.9832L34.4542 86H33.6072L34.9382 81.05H31.8142L30.4832 86H29.6362ZM35.8556 87.76L37.8466 80.313H38.6936L38.4296 81.292C39.0823 80.5587 39.8009 80.192 40.5856 80.192C41.2383 80.192 41.7773 80.4157 42.2026 80.863C42.6279 81.303 42.8406 81.8823 42.8406 82.601C42.8406 83.591 42.5216 84.427 41.8836 85.109C41.2456 85.791 40.5013 86.132 39.6506 86.132C38.6313 86.132 37.9199 85.6627 37.5166 84.724L36.7026 87.76H35.8556ZM39.5736 85.384C40.2409 85.384 40.8019 85.1163 41.2566 84.581C41.7186 84.0457 41.9496 83.4113 41.9496 82.678C41.9496 82.15 41.8029 81.7283 41.5096 81.413C41.2163 81.0977 40.8276 80.94 40.3436 80.94C39.7056 80.94 39.1226 81.215 38.5946 81.765C38.0739 82.3077 37.8136 82.9237 37.8136 83.613C37.8136 84.1117 37.9786 84.5333 38.3086 84.878C38.6386 85.2153 39.0603 85.384 39.5736 85.384ZM46.5166 86.132C45.7466 86.132 45.1232 85.8937 44.6466 85.417C44.1699 84.9403 43.9316 84.328 43.9316 83.58C43.9316 82.6853 44.2616 81.897 44.9216 81.215C45.5889 80.533 46.3736 80.192 47.2756 80.192C48.0529 80.192 48.6799 80.4303 49.1566 80.907C49.6332 81.3837 49.8716 81.9923 49.8716 82.733C49.8716 83.6423 49.5342 84.438 48.8596 85.12C48.1922 85.7947 47.4112 86.132 46.5166 86.132ZM46.5716 85.373C47.2096 85.373 47.7742 85.109 48.2656 84.581C48.7569 84.0457 49.0026 83.4407 49.0026 82.766C49.0026 82.194 48.8376 81.7467 48.5076 81.424C48.1849 81.1013 47.7559 80.94 47.2206 80.94C46.5752 80.94 46.0069 81.2113 45.5156 81.754C45.0316 82.2893 44.7896 82.8907 44.7896 83.558C44.7896 84.1227 44.9509 84.5663 45.2736 84.889C45.6036 85.2117 46.0362 85.373 46.5716 85.373ZM53.4542 86.132C52.7576 86.132 52.1636 85.9083 51.6722 85.461C51.1809 85.0063 50.9352 84.4013 50.9352 83.646C50.9352 82.7147 51.2652 81.908 51.9252 81.226C52.5926 80.5367 53.3772 80.192 54.2792 80.192C54.8366 80.192 55.3022 80.3167 55.6762 80.566C56.0502 80.8153 56.3399 81.1343 56.5452 81.523L55.8632 81.952C55.4599 81.2773 54.9136 80.94 54.2242 80.94C53.5789 80.94 53.0142 81.2113 52.5302 81.754C52.0462 82.2893 51.8042 82.9127 51.8042 83.624C51.8042 84.1593 51.9692 84.5883 52.2992 84.911C52.6292 85.2263 53.0289 85.384 53.4982 85.384C54.0702 85.384 54.6312 85.1347 55.1812 84.636L55.6762 85.186C55.0089 85.8167 54.2682 86.132 53.4542 86.132ZM59.708 86.132C58.938 86.132 58.3147 85.8937 57.838 85.417C57.3613 84.9403 57.123 84.328 57.123 83.58C57.123 82.6853 57.453 81.897 58.113 81.215C58.7803 80.533 59.565 80.192 60.467 80.192C61.2443 80.192 61.8713 80.4303 62.348 80.907C62.8247 81.3837 63.063 81.9923 63.063 82.733C63.063 83.6423 62.7257 84.438 62.051 85.12C61.3837 85.7947 60.6027 86.132 59.708 86.132ZM59.763 85.373C60.401 85.373 60.9657 85.109 61.457 84.581C61.9483 84.0457 62.194 83.4407 62.194 82.766C62.194 82.194 62.029 81.7467 61.699 81.424C61.3763 81.1013 60.9473 80.94 60.412 80.94C59.7667 80.94 59.1983 81.2113 58.707 81.754C58.223 82.2893 57.981 82.8907 57.981 83.558C57.981 84.1227 58.1423 84.5663 58.465 84.889C58.795 85.2117 59.2277 85.373 59.763 85.373ZM63.7856 86L65.3036 80.313H66.0406L67.3496 83.327L70.2756 80.313H71.1446L69.6156 86H68.7686L69.9346 81.666L67.0636 84.548L65.7876 81.655L64.6216 86H63.7856ZM75.9846 83.481C75.9773 83.525 75.9736 83.591 75.9736 83.679C75.9736 84.1997 76.1276 84.6177 76.4356 84.933C76.7436 85.241 77.1616 85.395 77.6896 85.395C78.3056 85.395 78.8886 85.1713 79.4386 84.724L79.8786 85.285C79.2113 85.8497 78.467 86.132 77.6456 86.132C76.8903 86.132 76.2816 85.9083 75.8196 85.461C75.3576 85.0137 75.1266 84.4307 75.1266 83.712C75.1266 82.81 75.4456 81.9997 76.0836 81.281C76.729 80.555 77.5136 80.192 78.4376 80.192C79.127 80.192 79.666 80.401 80.0546 80.819C80.4433 81.2297 80.6376 81.7467 80.6376 82.37C80.6376 82.7367 80.568 83.107 80.4286 83.481H75.9846ZM76.1056 82.799H79.7686C79.798 82.6523 79.8126 82.5093 79.8126 82.37C79.8126 81.952 79.6916 81.6037 79.4496 81.325C79.2076 81.0463 78.8556 80.907 78.3936 80.907C77.851 80.907 77.3743 81.0867 76.9636 81.446C76.5603 81.798 76.2743 82.249 76.1056 82.799ZM81.2632 86L82.7812 80.313H83.6282L83.3862 81.237C83.6868 80.8997 83.9802 80.643 84.2662 80.467C84.5595 80.2837 84.8968 80.192 85.2782 80.192C85.7255 80.192 86.0848 80.3167 86.3562 80.566C86.6275 80.808 86.8072 81.1123 86.8952 81.479C87.4525 80.621 88.2152 80.192 89.1832 80.192C89.6965 80.192 90.1145 80.3533 90.4372 80.676C90.7598 80.9987 90.9212 81.424 90.9212 81.952C90.9212 82.0767 90.8698 82.37 90.7672 82.832L89.9202 86H89.0732L89.9422 82.777C89.9935 82.557 90.0192 82.3443 90.0192 82.139C90.0192 81.7723 89.9128 81.4827 89.7002 81.27C89.4948 81.0573 89.2088 80.951 88.8422 80.951C88.4242 80.951 88.0245 81.127 87.6432 81.479C87.2692 81.8237 87.0125 82.26 86.8732 82.788L86.0262 86H85.1792L86.0372 82.777C86.0958 82.579 86.1252 82.3663 86.1252 82.139C86.1252 81.7723 86.0188 81.4827 85.8062 81.27C85.5935 81.0573 85.3038 80.951 84.9372 80.951C84.5192 80.951 84.1195 81.127 83.7382 81.479C83.3642 81.8237 83.1075 82.26 82.9682 82.788L82.1102 86H81.2632ZM93.5303 86.121C93.0243 86.121 92.599 85.9817 92.2543 85.703C91.9097 85.417 91.7373 85.032 91.7373 84.548C91.7373 83.9173 91.972 83.4187 92.4413 83.052C92.9107 82.678 93.5193 82.491 94.2673 82.491C94.8907 82.491 95.5617 82.5937 96.2803 82.799L96.3243 82.656C96.3683 82.4507 96.3903 82.2783 96.3903 82.139C96.3903 81.3763 95.8807 80.995 94.8613 80.995C94.326 80.995 93.7907 81.094 93.2553 81.292L93.1013 80.577C93.71 80.3423 94.3407 80.225 94.9933 80.225C95.7047 80.225 96.2547 80.3827 96.6433 80.698C97.032 81.006 97.2263 81.4387 97.2263 81.996C97.2263 82.2233 97.1897 82.4837 97.1163 82.777L96.2583 86H95.4223L95.6533 85.109C95.074 85.7837 94.3663 86.121 93.5303 86.121ZM93.8053 85.45C94.2967 85.45 94.755 85.2923 95.1803 84.977C95.613 84.6617 95.8953 84.2583 96.0273 83.767L96.1373 83.371C95.5067 83.2023 94.8943 83.118 94.3003 83.118C93.8017 83.118 93.3947 83.2427 93.0793 83.492C92.764 83.7413 92.6063 84.0603 92.6063 84.449C92.6063 84.7497 92.7127 84.9917 92.9253 85.175C93.1453 85.3583 93.4387 85.45 93.8053 85.45ZM99.9342 79.07L100.187 78.135H101.155L100.902 79.07H99.9342ZM98.1302 86L99.6592 80.313H100.506L98.9772 86H98.1302ZM101.031 86L103.187 77.97H104.034L101.878 86H101.031ZM103.799 86L104.118 84.845H105.119L104.811 86H103.799Z" fill="#303030"/>
<path d="M20.72 20.248V18.376C20.72 17.512 20.9227 16.872 21.328 16.456C21.7333 16.0293 22.352 15.784 23.184 15.72L23.392 16.552C22.4747 16.712 22.016 17.16 22.016 17.896V18.04H22.848V20.248H20.72ZM17.008 20.248V18.376C17.008 17.512 17.2107 16.872 17.616 16.456C18.0213 16.0293 18.64 15.784 19.472 15.72L19.68 16.552C18.7627 16.712 18.304 17.1493 18.304 17.864C18.304 17.8853 18.304 17.9173 18.304 17.96C18.3147 17.992 18.32 18.0187 18.32 18.04H19.136V20.248H17.008Z" fill="#303030"/>
<defs>
<linearGradient id="paint0_linear_1489:2" x1="329.192" y1="278.154" x2="259.192" y2="221.669" gradientUnits="userSpaceOnUse">
<stop stop-color="#F0EBFF"/>
<stop offset="1" stop-color="white"/>
</linearGradient>
</defs>
</svg>
