<svg width="13" height="22" viewBox="0 0 13 22" fill="none" xmlns="http://www.w3.org/2000/svg">
<g clip-path="url(#clip0)">
<path fill-rule="evenodd" clip-rule="evenodd" d="M0.181152 3.66665C0.181152 2.27444 1.30977 1.14582 2.70199 1.14582H10.0353C11.4276 1.14582 12.5562 2.27444 12.5562 3.66665V18.3333C12.5562 19.7256 11.4276 20.8542 10.0353 20.8542H2.70199C1.30977 20.8542 0.181152 19.7256 0.181152 18.3333V3.66665ZM2.70199 2.52082C2.06916 2.52082 1.55615 3.03382 1.55615 3.66665V18.3333C1.55615 18.9662 2.06916 19.4792 2.70199 19.4792H10.0353C10.6682 19.4792 11.1812 18.9662 11.1812 18.3333V3.66665C11.1812 3.03382 10.6682 2.52082 10.0353 2.52082H2.70199Z" fill="white"/>
<path fill-rule="evenodd" clip-rule="evenodd" d="M3.61865 1.14582C3.23896 1.14582 2.93115 1.45363 2.93115 1.83332V2.74999C2.93115 3.63595 3.64936 4.35415 4.53532 4.35415H8.20199C9.08794 4.35415 9.80615 3.63595 9.80615 2.74999V1.83332C9.80615 1.45363 9.49834 1.14582 9.11865 1.14582H3.61865Z" fill="white"/>
</g>
<defs>
<clipPath id="clip0">
<rect width="12.7368" height="22" fill="white"/>
</clipPath>
</defs>
</svg>
