<svg width="54" height="40" viewBox="0 0 54 40" fill="none" xmlns="http://www.w3.org/2000/svg">
<path d="M19.4981 36.8254H29.7311V40H16.3867V0H19.4981V36.8254Z" fill="#3B1D8F"/>
<path d="M3.1114 0H0V40H3.1114V0Z" fill="#3B1D8F"/>
<path d="M35.2626 20.0353C35.2626 29.2769 42.6608 36.8254 51.7184 36.8254V40C40.8631 40 32.082 31.0406 32.082 20.0353C32.1512 8.95944 40.9322 0 51.7875 0V3.1746C42.6608 3.1746 35.2626 10.7231 35.2626 20.0353Z" fill="#3B1D8F"/>
<path d="M54.0003 19.9648C54.0003 21.2346 53.0323 22.2223 51.7877 22.2223C50.5432 22.2223 49.5752 21.2346 49.5752 19.9648C49.5752 18.6949 50.5432 17.7073 51.7877 17.7073C52.9632 17.7073 54.0003 18.7655 54.0003 19.9648Z" fill="#3B1D8F"/>
</svg>
