<svg width="325" height="261" viewBox="0 0 325 261" fill="none" xmlns="http://www.w3.org/2000/svg">
<ellipse cx="273.634" cy="51.3044" rx="51.3662" ry="51.3044" fill="url(#paint0_linear_1314:2)"/>
<ellipse cx="12.5993" cy="141.584" rx="12.5993" ry="12.5841" fill="url(#paint1_linear_1314:2)"/>
<rect y="28" width="140.169" height="94" rx="5" fill="url(#paint2_linear_1314:2)"/>
<rect x="156.188" y="44" width="124.149" height="91" rx="5" fill="url(#paint3_linear_1314:2)"/>
<rect x="16.0193" y="138" width="124.149" height="91" rx="5" fill="url(#paint4_linear_1314:2)"/>
<rect x="156.188" y="151" width="132.159" height="110" rx="5" fill="url(#paint5_linear_1314:2)"/>
<path d="M21.7153 68V50.432L17.8113 51.392L16.7873 47.36L23.2193 45.44H26.5793V68H21.7153ZM48.3673 65.088C46.5113 67.2853 44.1113 68.384 41.1673 68.384C38.2233 68.384 35.834 67.2853 33.9993 65.088C32.1646 62.8907 31.2473 60.128 31.2473 56.8C31.2473 53.4933 32.1753 50.7413 34.0313 48.544C35.8873 46.3253 38.2873 45.216 41.2313 45.216C44.154 45.216 46.5326 46.3147 48.3673 48.512C50.2233 50.7093 51.1513 53.472 51.1513 56.8C51.1513 60.1067 50.2233 62.8693 48.3673 65.088ZM37.6473 61.92C38.5646 63.264 39.7593 63.936 41.2313 63.936C42.7033 63.936 43.8766 63.2747 44.7513 61.952C45.6473 60.608 46.0953 58.8907 46.0953 56.8C46.0953 54.752 45.6366 53.056 44.7193 51.712C43.802 50.3467 42.618 49.664 41.1673 49.664C39.7166 49.664 38.5433 50.336 37.6473 51.68C36.7513 53.0027 36.3033 54.7093 36.3033 56.8C36.3033 58.8693 36.7513 60.576 37.6473 61.92ZM71.7423 65.088C69.8863 67.2853 67.4863 68.384 64.5423 68.384C61.5983 68.384 59.209 67.2853 57.3743 65.088C55.5396 62.8907 54.6223 60.128 54.6223 56.8C54.6223 53.4933 55.5503 50.7413 57.4063 48.544C59.2623 46.3253 61.6623 45.216 64.6063 45.216C67.529 45.216 69.9076 46.3147 71.7423 48.512C73.5983 50.7093 74.5263 53.472 74.5263 56.8C74.5263 60.1067 73.5983 62.8693 71.7423 65.088ZM61.0223 61.92C61.9396 63.264 63.1343 63.936 64.6063 63.936C66.0783 63.936 67.2516 63.2747 68.1263 61.952C69.0223 60.608 69.4703 58.8907 69.4703 56.8C69.4703 54.752 69.0116 53.056 68.0943 51.712C67.177 50.3467 65.993 49.664 64.5423 49.664C63.0916 49.664 61.9183 50.336 61.0223 51.68C60.1263 53.0027 59.6783 54.7093 59.6783 56.8C59.6783 58.8693 60.1263 60.576 61.0223 61.92ZM84.2373 64.704V58.944H78.4453V54.528H84.2373V48.768H88.7813V54.528H94.5733V58.944H88.7813V64.704H84.2373Z" fill="#7247FF"/>
<path d="M21.7153 68V50.432L17.8113 51.392L16.7873 47.36L23.2193 45.44H26.5793V68H21.7153ZM48.3673 65.088C46.5113 67.2853 44.1113 68.384 41.1673 68.384C38.2233 68.384 35.834 67.2853 33.9993 65.088C32.1646 62.8907 31.2473 60.128 31.2473 56.8C31.2473 53.4933 32.1753 50.7413 34.0313 48.544C35.8873 46.3253 38.2873 45.216 41.2313 45.216C44.154 45.216 46.5326 46.3147 48.3673 48.512C50.2233 50.7093 51.1513 53.472 51.1513 56.8C51.1513 60.1067 50.2233 62.8693 48.3673 65.088ZM37.6473 61.92C38.5646 63.264 39.7593 63.936 41.2313 63.936C42.7033 63.936 43.8766 63.2747 44.7513 61.952C45.6473 60.608 46.0953 58.8907 46.0953 56.8C46.0953 54.752 45.6366 53.056 44.7193 51.712C43.802 50.3467 42.618 49.664 41.1673 49.664C39.7166 49.664 38.5433 50.336 37.6473 51.68C36.7513 53.0027 36.3033 54.7093 36.3033 56.8C36.3033 58.8693 36.7513 60.576 37.6473 61.92ZM71.7423 65.088C69.8863 67.2853 67.4863 68.384 64.5423 68.384C61.5983 68.384 59.209 67.2853 57.3743 65.088C55.5396 62.8907 54.6223 60.128 54.6223 56.8C54.6223 53.4933 55.5503 50.7413 57.4063 48.544C59.2623 46.3253 61.6623 45.216 64.6063 45.216C67.529 45.216 69.9076 46.3147 71.7423 48.512C73.5983 50.7093 74.5263 53.472 74.5263 56.8C74.5263 60.1067 73.5983 62.8693 71.7423 65.088ZM61.0223 61.92C61.9396 63.264 63.1343 63.936 64.6063 63.936C66.0783 63.936 67.2516 63.2747 68.1263 61.952C69.0223 60.608 69.4703 58.8907 69.4703 56.8C69.4703 54.752 69.0116 53.056 68.0943 51.712C67.177 50.3467 65.993 49.664 64.5423 49.664C63.0916 49.664 61.9183 50.336 61.0223 51.68C60.1263 53.0027 59.6783 54.7093 59.6783 56.8C59.6783 58.8693 60.1263 60.576 61.0223 61.92ZM84.2373 64.704V58.944H78.4453V54.528H84.2373V48.768H88.7813V54.528H94.5733V58.944H88.7813V64.704H84.2373Z" fill="url(#paint6_linear_1314:2)"/>
<path d="M177.903 84V66.432L173.999 67.392L172.975 63.36L179.407 61.44H182.767V84H177.903ZM195.467 84.384C192.225 84.384 189.43 83.264 187.083 81.024L190.059 77.472C191.851 79.0933 193.633 79.904 195.403 79.904C196.577 79.904 197.494 79.6267 198.155 79.072C198.817 78.5173 199.147 77.7387 199.147 76.736C199.147 75.7973 198.785 75.0613 198.059 74.528C197.334 73.9733 196.374 73.696 195.179 73.696C193.985 73.696 192.737 73.9733 191.435 74.528L188.587 72.64L189.227 61.6H202.987V65.92H193.451L193.195 69.792C194.219 69.536 195.201 69.408 196.139 69.408C198.465 69.408 200.353 70.0053 201.803 71.2C203.254 72.3947 203.979 74.208 203.979 76.64C203.979 79.008 203.201 80.896 201.643 82.304C200.107 83.6907 198.049 84.384 195.467 84.384Z" fill="#7247FF"/>
<path d="M177.903 84V66.432L173.999 67.392L172.975 63.36L179.407 61.44H182.767V84H177.903ZM195.467 84.384C192.225 84.384 189.43 83.264 187.083 81.024L190.059 77.472C191.851 79.0933 193.633 79.904 195.403 79.904C196.577 79.904 197.494 79.6267 198.155 79.072C198.817 78.5173 199.147 77.7387 199.147 76.736C199.147 75.7973 198.785 75.0613 198.059 74.528C197.334 73.9733 196.374 73.696 195.179 73.696C193.985 73.696 192.737 73.9733 191.435 74.528L188.587 72.64L189.227 61.6H202.987V65.92H193.451L193.195 69.792C194.219 69.536 195.201 69.408 196.139 69.408C198.465 69.408 200.353 70.0053 201.803 71.2C203.254 72.3947 203.979 74.208 203.979 76.64C203.979 79.008 203.201 80.896 201.643 82.304C200.107 83.6907 198.049 84.384 195.467 84.384Z" fill="url(#paint7_linear_1314:2)"/>
<path d="M41.7986 178.384C38.5559 178.384 35.7612 177.264 33.4146 175.024L36.3906 171.472C38.1826 173.093 39.9639 173.904 41.7346 173.904C42.9079 173.904 43.8252 173.627 44.4866 173.072C45.1479 172.517 45.4786 171.739 45.4786 170.736C45.4786 169.797 45.1159 169.061 44.3906 168.528C43.6652 167.973 42.7052 167.696 41.5106 167.696C40.3159 167.696 39.0679 167.973 37.7666 168.528L34.9186 166.64L35.5586 155.6H49.3186V159.92H39.7826L39.5266 163.792C40.5506 163.536 41.5319 163.408 42.4706 163.408C44.7959 163.408 46.6839 164.005 48.1346 165.2C49.5852 166.395 50.3106 168.208 50.3106 170.64C50.3106 173.008 49.5319 174.896 47.9746 176.304C46.4386 177.691 44.3799 178.384 41.7986 178.384ZM71.0428 175.088C69.1868 177.285 66.7868 178.384 63.8428 178.384C60.8988 178.384 58.5095 177.285 56.6748 175.088C54.8402 172.891 53.9228 170.128 53.9228 166.8C53.9228 163.493 54.8508 160.741 56.7068 158.544C58.5628 156.325 60.9628 155.216 63.9068 155.216C66.8295 155.216 69.2082 156.315 71.0428 158.512C72.8988 160.709 73.8268 163.472 73.8268 166.8C73.8268 170.107 72.8988 172.869 71.0428 175.088ZM60.3228 171.92C61.2402 173.264 62.4348 173.936 63.9068 173.936C65.3788 173.936 66.5522 173.275 67.4268 171.952C68.3228 170.608 68.7708 168.891 68.7708 166.8C68.7708 164.752 68.3122 163.056 67.3948 161.712C66.4775 160.347 65.2935 159.664 63.8428 159.664C62.3922 159.664 61.2188 160.336 60.3228 161.68C59.4268 163.003 58.9788 164.709 58.9788 166.8C58.9788 168.869 59.4268 170.576 60.3228 171.92ZM83.5378 174.704V168.944H77.7458V164.528H83.5378V158.768H88.0818V164.528H93.8738V168.944H88.0818V174.704H83.5378Z" fill="#7247FF"/>
<path d="M41.7986 178.384C38.5559 178.384 35.7612 177.264 33.4146 175.024L36.3906 171.472C38.1826 173.093 39.9639 173.904 41.7346 173.904C42.9079 173.904 43.8252 173.627 44.4866 173.072C45.1479 172.517 45.4786 171.739 45.4786 170.736C45.4786 169.797 45.1159 169.061 44.3906 168.528C43.6652 167.973 42.7052 167.696 41.5106 167.696C40.3159 167.696 39.0679 167.973 37.7666 168.528L34.9186 166.64L35.5586 155.6H49.3186V159.92H39.7826L39.5266 163.792C40.5506 163.536 41.5319 163.408 42.4706 163.408C44.7959 163.408 46.6839 164.005 48.1346 165.2C49.5852 166.395 50.3106 168.208 50.3106 170.64C50.3106 173.008 49.5319 174.896 47.9746 176.304C46.4386 177.691 44.3799 178.384 41.7986 178.384ZM71.0428 175.088C69.1868 177.285 66.7868 178.384 63.8428 178.384C60.8988 178.384 58.5095 177.285 56.6748 175.088C54.8402 172.891 53.9228 170.128 53.9228 166.8C53.9228 163.493 54.8508 160.741 56.7068 158.544C58.5628 156.325 60.9628 155.216 63.9068 155.216C66.8295 155.216 69.2082 156.315 71.0428 158.512C72.8988 160.709 73.8268 163.472 73.8268 166.8C73.8268 170.107 72.8988 172.869 71.0428 175.088ZM60.3228 171.92C61.2402 173.264 62.4348 173.936 63.9068 173.936C65.3788 173.936 66.5522 173.275 67.4268 171.952C68.3228 170.608 68.7708 168.891 68.7708 166.8C68.7708 164.752 68.3122 163.056 67.3948 161.712C66.4775 160.347 65.2935 159.664 63.8428 159.664C62.3922 159.664 61.2188 160.336 60.3228 161.68C59.4268 163.003 58.9788 164.709 58.9788 166.8C58.9788 168.869 59.4268 170.576 60.3228 171.92ZM83.5378 174.704V168.944H77.7458V164.528H83.5378V158.768H88.0818V164.528H93.8738V168.944H88.0818V174.704H83.5378Z" fill="url(#paint8_linear_1314:2)"/>
<path d="M180.047 178.801C179.793 178.703 179.51 178.615 179.198 178.537C178.928 178.471 178.608 178.41 178.237 178.355C177.869 178.297 177.463 178.268 177.018 178.268C176.35 178.268 175.862 178.32 175.553 178.426C175.244 178.531 175.09 178.709 175.09 178.959C175.09 179.1 175.137 179.217 175.231 179.311C175.328 179.404 175.467 179.484 175.647 179.551C175.826 179.613 176.047 179.668 176.309 179.715C176.571 179.758 176.869 179.803 177.205 179.85C178.01 179.963 178.682 180.094 179.221 180.242C179.764 180.391 180.199 180.57 180.528 180.781C180.856 180.992 181.088 181.242 181.225 181.531C181.365 181.816 181.436 182.154 181.436 182.545C181.436 183.471 181.057 184.15 180.299 184.584C179.545 185.018 178.412 185.234 176.901 185.234C176.522 185.234 176.17 185.219 175.846 185.188C175.522 185.16 175.223 185.123 174.949 185.076C174.676 185.029 174.428 184.977 174.205 184.918C173.983 184.855 173.783 184.793 173.608 184.73C173.194 184.582 172.854 184.414 172.588 184.227L173.655 182.68C173.908 182.801 174.198 182.91 174.522 183.008C174.799 183.09 175.127 183.164 175.506 183.23C175.889 183.297 176.315 183.33 176.783 183.33C177.127 183.33 177.448 183.32 177.744 183.301C178.045 183.281 178.303 183.242 178.518 183.184C178.737 183.125 178.908 183.045 179.033 182.943C179.158 182.842 179.221 182.709 179.221 182.545C179.221 182.404 179.176 182.295 179.086 182.217C178.996 182.135 178.852 182.066 178.653 182.012C178.457 181.953 178.205 181.902 177.897 181.859C177.588 181.816 177.215 181.762 176.778 181.695C176.043 181.578 175.426 181.443 174.926 181.291C174.43 181.135 174.03 180.951 173.725 180.74C173.42 180.525 173.201 180.277 173.069 179.996C172.94 179.715 172.875 179.389 172.875 179.018C172.875 178.643 172.946 178.293 173.086 177.969C173.227 177.645 173.455 177.365 173.772 177.131C174.092 176.893 174.508 176.705 175.02 176.568C175.531 176.432 176.158 176.363 176.901 176.363C177.272 176.363 177.615 176.377 177.932 176.404C178.248 176.428 178.539 176.461 178.805 176.504C179.074 176.543 179.317 176.59 179.531 176.645C179.75 176.699 179.946 176.754 180.117 176.809C180.516 176.938 180.848 177.086 181.114 177.254L180.047 178.801ZM184.648 176.598H186.863V185H184.648V176.598ZM190.426 185V176.598H195.858C196.408 176.598 196.906 176.652 197.352 176.762C197.801 176.871 198.182 177.043 198.494 177.277C198.807 177.512 199.047 177.811 199.215 178.174C199.387 178.537 199.473 178.973 199.473 179.48C199.473 179.816 199.426 180.111 199.332 180.365C199.242 180.619 199.119 180.84 198.963 181.027C198.807 181.215 198.625 181.373 198.418 181.502C198.215 181.627 198.002 181.73 197.779 181.812L199.608 185H197.123L195.5 182.176H192.641V185H190.426ZM192.641 178.502V180.459H195.858C196.315 180.459 196.653 180.387 196.871 180.242C197.09 180.094 197.199 179.84 197.199 179.48C197.199 179.121 197.09 178.869 196.871 178.725C196.653 178.576 196.315 178.502 195.858 178.502H192.641ZM202.943 176.598H205.157V185H202.943V176.598ZM213.35 185.234C212.502 185.234 211.783 185.145 211.193 184.965C210.608 184.781 210.131 184.516 209.764 184.168C209.397 183.82 209.131 183.395 208.967 182.891C208.803 182.383 208.721 181.805 208.721 181.156V176.598H210.936V181.156C210.936 181.539 210.975 181.867 211.053 182.141C211.131 182.414 211.264 182.639 211.451 182.814C211.639 182.99 211.887 183.121 212.195 183.207C212.504 183.289 212.889 183.33 213.35 183.33C213.811 183.33 214.195 183.289 214.504 183.207C214.813 183.121 215.061 182.99 215.248 182.814C215.436 182.639 215.568 182.414 215.647 182.141C215.725 181.867 215.764 181.539 215.764 181.156V176.598H217.979V181.156C217.979 181.805 217.897 182.383 217.733 182.891C217.568 183.395 217.303 183.82 216.936 184.168C216.568 184.516 216.09 184.781 215.5 184.965C214.914 185.145 214.197 185.234 213.35 185.234ZM228.591 178.801C228.337 178.703 228.054 178.615 227.741 178.537C227.472 178.471 227.151 178.41 226.78 178.355C226.413 178.297 226.007 178.268 225.562 178.268C224.894 178.268 224.405 178.32 224.097 178.426C223.788 178.531 223.634 178.709 223.634 178.959C223.634 179.1 223.681 179.217 223.774 179.311C223.872 179.404 224.011 179.484 224.19 179.551C224.37 179.613 224.591 179.668 224.853 179.715C225.114 179.758 225.413 179.803 225.749 179.85C226.554 179.963 227.226 180.094 227.765 180.242C228.308 180.391 228.743 180.57 229.071 180.781C229.399 180.992 229.632 181.242 229.769 181.531C229.909 181.816 229.98 182.154 229.98 182.545C229.98 183.471 229.601 184.15 228.843 184.584C228.089 185.018 226.956 185.234 225.444 185.234C225.065 185.234 224.714 185.219 224.39 185.188C224.065 185.16 223.767 185.123 223.493 185.076C223.22 185.029 222.972 184.977 222.749 184.918C222.526 184.855 222.327 184.793 222.151 184.73C221.737 184.582 221.398 184.414 221.132 184.227L222.198 182.68C222.452 182.801 222.741 182.91 223.065 183.008C223.343 183.09 223.671 183.164 224.05 183.23C224.433 183.297 224.858 183.33 225.327 183.33C225.671 183.33 225.991 183.32 226.288 183.301C226.589 183.281 226.847 183.242 227.062 183.184C227.28 183.125 227.452 183.045 227.577 182.943C227.702 182.842 227.765 182.709 227.765 182.545C227.765 182.404 227.72 182.295 227.63 182.217C227.54 182.135 227.396 182.066 227.196 182.012C227.001 181.953 226.749 181.902 226.44 181.859C226.132 181.816 225.759 181.762 225.321 181.695C224.587 181.578 223.97 181.443 223.47 181.291C222.974 181.135 222.573 180.951 222.269 180.74C221.964 180.525 221.745 180.277 221.612 179.996C221.483 179.715 221.419 179.389 221.419 179.018C221.419 178.643 221.489 178.293 221.63 177.969C221.771 177.645 221.999 177.365 222.315 177.131C222.636 176.893 223.052 176.705 223.564 176.568C224.075 176.432 224.702 176.363 225.444 176.363C225.815 176.363 226.159 176.377 226.476 176.404C226.792 176.428 227.083 176.461 227.349 176.504C227.618 176.543 227.86 176.59 228.075 176.645C228.294 176.699 228.489 176.754 228.661 176.809C229.06 176.938 229.392 177.086 229.657 177.254L228.591 178.801Z" fill="#7247FF"/>
<path d="M180.047 178.801C179.793 178.703 179.51 178.615 179.198 178.537C178.928 178.471 178.608 178.41 178.237 178.355C177.869 178.297 177.463 178.268 177.018 178.268C176.35 178.268 175.862 178.32 175.553 178.426C175.244 178.531 175.09 178.709 175.09 178.959C175.09 179.1 175.137 179.217 175.231 179.311C175.328 179.404 175.467 179.484 175.647 179.551C175.826 179.613 176.047 179.668 176.309 179.715C176.571 179.758 176.869 179.803 177.205 179.85C178.01 179.963 178.682 180.094 179.221 180.242C179.764 180.391 180.199 180.57 180.528 180.781C180.856 180.992 181.088 181.242 181.225 181.531C181.365 181.816 181.436 182.154 181.436 182.545C181.436 183.471 181.057 184.15 180.299 184.584C179.545 185.018 178.412 185.234 176.901 185.234C176.522 185.234 176.17 185.219 175.846 185.188C175.522 185.16 175.223 185.123 174.949 185.076C174.676 185.029 174.428 184.977 174.205 184.918C173.983 184.855 173.783 184.793 173.608 184.73C173.194 184.582 172.854 184.414 172.588 184.227L173.655 182.68C173.908 182.801 174.198 182.91 174.522 183.008C174.799 183.09 175.127 183.164 175.506 183.23C175.889 183.297 176.315 183.33 176.783 183.33C177.127 183.33 177.448 183.32 177.744 183.301C178.045 183.281 178.303 183.242 178.518 183.184C178.737 183.125 178.908 183.045 179.033 182.943C179.158 182.842 179.221 182.709 179.221 182.545C179.221 182.404 179.176 182.295 179.086 182.217C178.996 182.135 178.852 182.066 178.653 182.012C178.457 181.953 178.205 181.902 177.897 181.859C177.588 181.816 177.215 181.762 176.778 181.695C176.043 181.578 175.426 181.443 174.926 181.291C174.43 181.135 174.03 180.951 173.725 180.74C173.42 180.525 173.201 180.277 173.069 179.996C172.94 179.715 172.875 179.389 172.875 179.018C172.875 178.643 172.946 178.293 173.086 177.969C173.227 177.645 173.455 177.365 173.772 177.131C174.092 176.893 174.508 176.705 175.02 176.568C175.531 176.432 176.158 176.363 176.901 176.363C177.272 176.363 177.615 176.377 177.932 176.404C178.248 176.428 178.539 176.461 178.805 176.504C179.074 176.543 179.317 176.59 179.531 176.645C179.75 176.699 179.946 176.754 180.117 176.809C180.516 176.938 180.848 177.086 181.114 177.254L180.047 178.801ZM184.648 176.598H186.863V185H184.648V176.598ZM190.426 185V176.598H195.858C196.408 176.598 196.906 176.652 197.352 176.762C197.801 176.871 198.182 177.043 198.494 177.277C198.807 177.512 199.047 177.811 199.215 178.174C199.387 178.537 199.473 178.973 199.473 179.48C199.473 179.816 199.426 180.111 199.332 180.365C199.242 180.619 199.119 180.84 198.963 181.027C198.807 181.215 198.625 181.373 198.418 181.502C198.215 181.627 198.002 181.73 197.779 181.812L199.608 185H197.123L195.5 182.176H192.641V185H190.426ZM192.641 178.502V180.459H195.858C196.315 180.459 196.653 180.387 196.871 180.242C197.09 180.094 197.199 179.84 197.199 179.48C197.199 179.121 197.09 178.869 196.871 178.725C196.653 178.576 196.315 178.502 195.858 178.502H192.641ZM202.943 176.598H205.157V185H202.943V176.598ZM213.35 185.234C212.502 185.234 211.783 185.145 211.193 184.965C210.608 184.781 210.131 184.516 209.764 184.168C209.397 183.82 209.131 183.395 208.967 182.891C208.803 182.383 208.721 181.805 208.721 181.156V176.598H210.936V181.156C210.936 181.539 210.975 181.867 211.053 182.141C211.131 182.414 211.264 182.639 211.451 182.814C211.639 182.99 211.887 183.121 212.195 183.207C212.504 183.289 212.889 183.33 213.35 183.33C213.811 183.33 214.195 183.289 214.504 183.207C214.813 183.121 215.061 182.99 215.248 182.814C215.436 182.639 215.568 182.414 215.647 182.141C215.725 181.867 215.764 181.539 215.764 181.156V176.598H217.979V181.156C217.979 181.805 217.897 182.383 217.733 182.891C217.568 183.395 217.303 183.82 216.936 184.168C216.568 184.516 216.09 184.781 215.5 184.965C214.914 185.145 214.197 185.234 213.35 185.234ZM228.591 178.801C228.337 178.703 228.054 178.615 227.741 178.537C227.472 178.471 227.151 178.41 226.78 178.355C226.413 178.297 226.007 178.268 225.562 178.268C224.894 178.268 224.405 178.32 224.097 178.426C223.788 178.531 223.634 178.709 223.634 178.959C223.634 179.1 223.681 179.217 223.774 179.311C223.872 179.404 224.011 179.484 224.19 179.551C224.37 179.613 224.591 179.668 224.853 179.715C225.114 179.758 225.413 179.803 225.749 179.85C226.554 179.963 227.226 180.094 227.765 180.242C228.308 180.391 228.743 180.57 229.071 180.781C229.399 180.992 229.632 181.242 229.769 181.531C229.909 181.816 229.98 182.154 229.98 182.545C229.98 183.471 229.601 184.15 228.843 184.584C228.089 185.018 226.956 185.234 225.444 185.234C225.065 185.234 224.714 185.219 224.39 185.188C224.065 185.16 223.767 185.123 223.493 185.076C223.22 185.029 222.972 184.977 222.749 184.918C222.526 184.855 222.327 184.793 222.151 184.73C221.737 184.582 221.398 184.414 221.132 184.227L222.198 182.68C222.452 182.801 222.741 182.91 223.065 183.008C223.343 183.09 223.671 183.164 224.05 183.23C224.433 183.297 224.858 183.33 225.327 183.33C225.671 183.33 225.991 183.32 226.288 183.301C226.589 183.281 226.847 183.242 227.062 183.184C227.28 183.125 227.452 183.045 227.577 182.943C227.702 182.842 227.765 182.709 227.765 182.545C227.765 182.404 227.72 182.295 227.63 182.217C227.54 182.135 227.396 182.066 227.196 182.012C227.001 181.953 226.749 181.902 226.44 181.859C226.132 181.816 225.759 181.762 225.321 181.695C224.587 181.578 223.97 181.443 223.47 181.291C222.974 181.135 222.573 180.951 222.269 180.74C221.964 180.525 221.745 180.277 221.612 179.996C221.483 179.715 221.419 179.389 221.419 179.018C221.419 178.643 221.489 178.293 221.63 177.969C221.771 177.645 221.999 177.365 222.315 177.131C222.636 176.893 223.052 176.705 223.564 176.568C224.075 176.432 224.702 176.363 225.444 176.363C225.815 176.363 226.159 176.377 226.476 176.404C226.792 176.428 227.083 176.461 227.349 176.504C227.618 176.543 227.86 176.59 228.075 176.645C228.294 176.699 228.489 176.754 228.661 176.809C229.06 176.938 229.392 177.086 229.657 177.254L228.591 178.801Z" fill="url(#paint9_linear_1314:2)"/>
<path d="M104.961 60.64V61.94H103.371V66H101.831V61.94H100.241V60.64H104.961ZM105.79 66V60.64H107.31V62.41H108.41C109.057 62.41 109.574 62.56 109.96 62.86C110.354 63.16 110.55 63.6 110.55 64.18C110.55 64.7467 110.367 65.1933 110 65.52C109.64 65.84 109.137 66 108.49 66H105.79ZM108.26 63.56H107.31V64.8H108.27C108.77 64.8 109.02 64.5867 109.02 64.16C109.02 63.9733 108.954 63.8267 108.82 63.72C108.694 63.6133 108.507 63.56 108.26 63.56ZM111.26 66V60.64H112.78V66H111.26ZM116.67 66.12C115.87 66.12 115.203 65.85 114.67 65.31C114.143 64.77 113.88 64.11 113.88 63.33C113.88 62.5567 114.147 61.9 114.68 61.36C115.213 60.8133 115.883 60.54 116.69 60.54C117.55 60.54 118.26 60.8533 118.82 61.48L117.93 62.38C117.557 62.0267 117.14 61.85 116.68 61.85C116.307 61.85 115.997 61.9933 115.75 62.28C115.503 62.5667 115.38 62.9167 115.38 63.33C115.38 63.75 115.503 64.1033 115.75 64.39C116.003 64.67 116.333 64.81 116.74 64.81C117.16 64.81 117.57 64.62 117.97 64.24L118.86 65.14C118.567 65.46 118.253 65.7033 117.92 65.87C117.587 66.0367 117.17 66.12 116.67 66.12Z" fill="#7247FF"/>
<path d="M104.961 60.64V61.94H103.371V66H101.831V61.94H100.241V60.64H104.961ZM105.79 66V60.64H107.31V62.41H108.41C109.057 62.41 109.574 62.56 109.96 62.86C110.354 63.16 110.55 63.6 110.55 64.18C110.55 64.7467 110.367 65.1933 110 65.52C109.64 65.84 109.137 66 108.49 66H105.79ZM108.26 63.56H107.31V64.8H108.27C108.77 64.8 109.02 64.5867 109.02 64.16C109.02 63.9733 108.954 63.8267 108.82 63.72C108.694 63.6133 108.507 63.56 108.26 63.56ZM111.26 66V60.64H112.78V66H111.26ZM116.67 66.12C115.87 66.12 115.203 65.85 114.67 65.31C114.143 64.77 113.88 64.11 113.88 63.33C113.88 62.5567 114.147 61.9 114.68 61.36C115.213 60.8133 115.883 60.54 116.69 60.54C117.55 60.54 118.26 60.8533 118.82 61.48L117.93 62.38C117.557 62.0267 117.14 61.85 116.68 61.85C116.307 61.85 115.997 61.9933 115.75 62.28C115.503 62.5667 115.38 62.9167 115.38 63.33C115.38 63.75 115.503 64.1033 115.75 64.39C116.003 64.67 116.333 64.81 116.74 64.81C117.16 64.81 117.57 64.62 117.97 64.24L118.86 65.14C118.567 65.46 118.253 65.7033 117.92 65.87C117.587 66.0367 117.17 66.12 116.67 66.12Z" fill="url(#paint10_linear_1314:2)"/>
<path d="M213.355 78.64H217.665V84H216.145V79.94H214.785C214.785 80.6467 214.759 81.2433 214.705 81.73C214.652 82.2167 214.579 82.6133 214.485 82.92C214.392 83.2267 214.262 83.4633 214.095 83.63C213.929 83.7967 213.749 83.91 213.555 83.97C213.362 84.03 213.122 84.06 212.835 84.06C212.562 84.06 212.305 84.03 212.065 83.97L212.165 82.74C212.285 82.76 212.392 82.77 212.485 82.77C212.645 82.77 212.772 82.7333 212.865 82.66C212.959 82.58 213.045 82.4067 213.125 82.14C213.212 81.8667 213.272 81.45 213.305 80.89C213.339 80.3233 213.355 79.5733 213.355 78.64ZM221.564 84.12C220.751 84.12 220.081 83.8633 219.554 83.35C219.027 82.83 218.764 82.1567 218.764 81.33C218.764 80.55 219.014 79.89 219.514 79.35C220.014 78.81 220.647 78.54 221.414 78.54C222.261 78.54 222.907 78.82 223.354 79.38C223.801 79.94 224.024 80.63 224.024 81.45C224.024 81.53 224.017 81.6633 224.004 81.85H220.274C220.347 82.19 220.497 82.45 220.724 82.63C220.951 82.81 221.237 82.9 221.584 82.9C222.057 82.9 222.491 82.7167 222.884 82.35L223.754 83.12C223.214 83.7867 222.484 84.12 221.564 84.12ZM220.254 80.9H222.544C222.497 80.5533 222.374 80.2767 222.174 80.07C221.981 79.8633 221.727 79.76 221.414 79.76C221.107 79.76 220.851 79.8633 220.644 80.07C220.444 80.27 220.314 80.5467 220.254 80.9ZM229.347 78.64V79.94H227.757V84H226.217V79.94H224.627V78.64H229.347Z" fill="#7247FF"/>
<path d="M213.355 78.64H217.665V84H216.145V79.94H214.785C214.785 80.6467 214.759 81.2433 214.705 81.73C214.652 82.2167 214.579 82.6133 214.485 82.92C214.392 83.2267 214.262 83.4633 214.095 83.63C213.929 83.7967 213.749 83.91 213.555 83.97C213.362 84.03 213.122 84.06 212.835 84.06C212.562 84.06 212.305 84.03 212.065 83.97L212.165 82.74C212.285 82.76 212.392 82.77 212.485 82.77C212.645 82.77 212.772 82.7333 212.865 82.66C212.959 82.58 213.045 82.4067 213.125 82.14C213.212 81.8667 213.272 81.45 213.305 80.89C213.339 80.3233 213.355 79.5733 213.355 78.64ZM221.564 84.12C220.751 84.12 220.081 83.8633 219.554 83.35C219.027 82.83 218.764 82.1567 218.764 81.33C218.764 80.55 219.014 79.89 219.514 79.35C220.014 78.81 220.647 78.54 221.414 78.54C222.261 78.54 222.907 78.82 223.354 79.38C223.801 79.94 224.024 80.63 224.024 81.45C224.024 81.53 224.017 81.6633 224.004 81.85H220.274C220.347 82.19 220.497 82.45 220.724 82.63C220.951 82.81 221.237 82.9 221.584 82.9C222.057 82.9 222.491 82.7167 222.884 82.35L223.754 83.12C223.214 83.7867 222.484 84.12 221.564 84.12ZM220.254 80.9H222.544C222.497 80.5533 222.374 80.2767 222.174 80.07C221.981 79.8633 221.727 79.76 221.414 79.76C221.107 79.76 220.851 79.8633 220.644 80.07C220.444 80.27 220.314 80.5467 220.254 80.9ZM229.347 78.64V79.94H227.757V84H226.217V79.94H224.627V78.64H229.347Z" fill="url(#paint11_linear_1314:2)"/>
<path d="M17.0093 88V81H17.7993V85.18L21.8193 81H22.8393L19.8393 84.06L22.9693 88H21.9793L19.2893 84.61L17.7993 86.12V88H17.0093ZM23.8168 88.08C23.6168 88.08 23.4101 88.0533 23.1968 88L23.2868 87.34C23.4401 87.3867 23.5635 87.41 23.6568 87.41C23.8035 87.41 23.9235 87.3933 24.0168 87.36C24.1101 87.32 24.2101 87.2233 24.3168 87.07C24.4301 86.91 24.5168 86.6867 24.5768 86.4C24.6368 86.1133 24.6868 85.7067 24.7268 85.18C24.7735 84.6533 24.7968 84.0133 24.7968 83.26V82.83H28.4568V88H27.6868V83.51H25.5268V83.63C25.5268 84.4167 25.4968 85.0867 25.4368 85.64C25.3768 86.1933 25.3001 86.6267 25.2068 86.94C25.1201 87.2533 24.9968 87.4967 24.8368 87.67C24.6768 87.8433 24.5201 87.9533 24.3668 88C24.2201 88.0533 24.0368 88.08 23.8168 88.08ZM30.1801 88V82.83H30.9501V86.92L34.0201 82.83H34.7701V88H34.0001V83.91L30.9201 88H30.1801ZM38.7487 88.12C38.022 88.12 37.4087 87.87 36.9087 87.37C36.4153 86.8633 36.1687 86.2133 36.1687 85.42C36.1687 84.6667 36.4053 84.03 36.8787 83.51C37.352 82.9833 37.942 82.72 38.6487 82.72C39.3887 82.72 39.9753 82.98 40.4087 83.5C40.842 84.02 41.0587 84.6733 41.0587 85.46C41.0587 85.56 41.0553 85.65 41.0487 85.73H36.9487C37.002 86.2567 37.1987 86.6767 37.5387 86.99C37.8853 87.2967 38.2953 87.45 38.7687 87.45C39.3887 87.45 39.932 87.2067 40.3987 86.72L40.8787 87.15C40.2987 87.7967 39.5887 88.12 38.7487 88.12ZM36.9487 85.11H40.2787C40.232 84.61 40.0653 84.1967 39.7787 83.87C39.4987 83.5367 39.1153 83.37 38.6287 83.37C38.1887 83.37 37.812 83.5333 37.4987 83.86C37.1853 84.1867 37.002 84.6033 36.9487 85.11ZM42.4066 88V82.83H43.1766V85.06H46.1566V82.83H46.9266V88H46.1566V85.74H43.1766V88H42.4066ZM49.8969 88V83.51H48.0469V82.83H52.5269V83.51H50.6769V88H49.8969ZM57.9369 87.33C57.4169 87.8567 56.7735 88.12 56.0069 88.12C55.2402 88.12 54.6002 87.8567 54.0869 87.33C53.5802 86.8033 53.3269 86.1667 53.3269 85.42C53.3269 84.68 53.5835 84.0467 54.0969 83.52C54.6169 82.9867 55.2602 82.72 56.0269 82.72C56.7935 82.72 57.4335 82.9833 57.9469 83.51C58.4602 84.0367 58.7169 84.6733 58.7169 85.42C58.7169 86.16 58.4569 86.7967 57.9369 87.33ZM56.0269 87.43C56.5802 87.43 57.0335 87.2367 57.3869 86.85C57.7469 86.4633 57.9269 85.9867 57.9269 85.42C57.9269 84.86 57.7402 84.3833 57.3669 83.99C57.0002 83.5967 56.5469 83.4 56.0069 83.4C55.4535 83.4 55.0002 83.5967 54.6469 83.99C54.2935 84.3767 54.1169 84.8533 54.1169 85.42C54.1169 85.98 54.3002 86.4567 54.6669 86.85C55.0335 87.2367 55.4869 87.43 56.0269 87.43ZM60.1117 88V82.83H62.6117C63.125 82.83 63.535 82.9467 63.8417 83.18C64.1484 83.4133 64.3017 83.7267 64.3017 84.12C64.3017 84.6733 64.015 85.07 63.4417 85.31C64.2017 85.5167 64.5817 85.9433 64.5817 86.59C64.5817 87.0233 64.4117 87.3667 64.0717 87.62C63.7317 87.8733 63.275 88 62.7017 88H60.1117ZM60.8817 87.34H62.6017C62.9684 87.34 63.2584 87.2633 63.4717 87.11C63.685 86.9567 63.7917 86.7433 63.7917 86.47C63.7917 86.2167 63.6784 86.02 63.4517 85.88C63.2317 85.74 62.915 85.67 62.5017 85.67H60.8817V87.34ZM60.8817 85.05H62.4717C62.7917 85.05 63.045 84.98 63.2317 84.84C63.425 84.6933 63.5217 84.4867 63.5217 84.22C63.5217 84 63.4317 83.8233 63.2517 83.69C63.0717 83.5567 62.8184 83.49 62.4917 83.49H60.8817V85.05ZM16.8793 103V97.83H21.3593V103H20.5893V98.51H17.6493V103H16.8793ZM27.3705 102.33C26.8505 102.857 26.2071 103.12 25.4405 103.12C24.6738 103.12 24.0338 102.857 23.5205 102.33C23.0138 101.803 22.7605 101.167 22.7605 100.42C22.7605 99.68 23.0171 99.0467 23.5305 98.52C24.0505 97.9867 24.6938 97.72 25.4605 97.72C26.2271 97.72 26.8671 97.9833 27.3805 98.51C27.8938 99.0367 28.1505 99.6733 28.1505 100.42C28.1505 101.16 27.8905 101.797 27.3705 102.33ZM25.4605 102.43C26.0138 102.43 26.4671 102.237 26.8205 101.85C27.1805 101.463 27.3605 100.987 27.3605 100.42C27.3605 99.86 27.1738 99.3833 26.8005 98.99C26.4338 98.5967 25.9805 98.4 25.4405 98.4C24.8871 98.4 24.4338 98.5967 24.0805 98.99C23.7271 99.3767 23.5505 99.8533 23.5505 100.42C23.5505 100.98 23.7338 101.457 24.1005 101.85C24.4671 102.237 24.9205 102.43 25.4605 102.43ZM32.5433 103V97.83H35.0433C35.5567 97.83 35.9667 97.9467 36.2733 98.18C36.58 98.4133 36.7333 98.7267 36.7333 99.12C36.7333 99.6733 36.4467 100.07 35.8733 100.31C36.6334 100.517 37.0134 100.943 37.0134 101.59C37.0134 102.023 36.8434 102.367 36.5033 102.62C36.1633 102.873 35.7067 103 35.1333 103H32.5433ZM33.3133 102.34H35.0333C35.4 102.34 35.69 102.263 35.9033 102.11C36.1167 101.957 36.2233 101.743 36.2233 101.47C36.2233 101.217 36.11 101.02 35.8833 100.88C35.6633 100.74 35.3467 100.67 34.9333 100.67H33.3133V102.34ZM33.3133 100.05H34.9033C35.2233 100.05 35.4767 99.98 35.6633 99.84C35.8567 99.6933 35.9533 99.4867 35.9533 99.22C35.9533 99 35.8633 98.8233 35.6833 98.69C35.5033 98.5567 35.25 98.49 34.9233 98.49H33.3133V100.05ZM40.7327 103.12C39.9861 103.12 39.3561 102.857 38.8427 102.33C38.3361 101.797 38.0827 101.16 38.0827 100.42C38.0827 99.68 38.3361 99.0467 38.8427 98.52C39.3561 97.9867 39.9861 97.72 40.7327 97.72C41.5327 97.72 42.2227 98.0267 42.8027 98.64L42.3127 99.16C41.8327 98.6533 41.3027 98.4 40.7227 98.4C40.2027 98.4 39.7627 98.5967 39.4027 98.99C39.0494 99.3767 38.8727 99.8533 38.8727 100.42C38.8727 100.98 39.0527 101.457 39.4127 101.85C39.7794 102.237 40.2327 102.43 40.7727 102.43C41.3261 102.43 41.8461 102.17 42.3327 101.65L42.8427 102.12C42.2427 102.787 41.5394 103.12 40.7327 103.12ZM46.3756 103.12C45.6489 103.12 45.0356 102.87 44.5356 102.37C44.0423 101.863 43.7956 101.213 43.7956 100.42C43.7956 99.6667 44.0323 99.03 44.5056 98.51C44.9789 97.9833 45.5689 97.72 46.2756 97.72C47.0156 97.72 47.6023 97.98 48.0356 98.5C48.4689 99.02 48.6856 99.6733 48.6856 100.46C48.6856 100.56 48.6823 100.65 48.6756 100.73H44.5756C44.6289 101.257 44.8256 101.677 45.1656 101.99C45.5123 102.297 45.9223 102.45 46.3956 102.45C47.0156 102.45 47.5589 102.207 48.0256 101.72L48.5056 102.15C47.9256 102.797 47.2156 103.12 46.3756 103.12ZM44.5756 100.11H47.9056C47.8589 99.61 47.6923 99.1967 47.4056 98.87C47.1256 98.5367 46.7423 98.37 46.2556 98.37C45.8156 98.37 45.4389 98.5333 45.1256 98.86C44.8123 99.1867 44.6289 99.6033 44.5756 100.11ZM50.0336 103V97.83H50.7636L52.6936 100.55L54.6236 97.83H55.3636V103H54.5836V99.06L52.6736 101.68L50.7836 99.06V103H50.0336ZM57.8844 104.63C57.511 104.63 57.1444 104.543 56.7844 104.37L57.0444 103.76C57.291 103.887 57.561 103.95 57.8544 103.95C58.0877 103.95 58.2844 103.877 58.4444 103.73C58.6044 103.59 58.761 103.34 58.9144 102.98L56.5644 97.83H57.4144L59.2944 102.14L60.9544 97.83H61.7744L59.6044 103.17C59.3844 103.697 59.141 104.07 58.8744 104.29C58.6077 104.517 58.2777 104.63 57.8844 104.63ZM65.9906 103V97.83H66.7206L68.6506 100.55L70.5806 97.83H71.3206V103H70.5406V99.06L68.6306 101.68L66.7406 99.06V103H65.9906ZM73.0414 103V97.83H73.8114V101.92L76.8814 97.83H77.6314V103H76.8614V98.91L73.7814 103H73.0414ZM79.35 104.6V97.83H80.12V98.87C80.64 98.1033 81.3 97.72 82.1 97.72C82.76 97.72 83.3367 97.9667 83.83 98.46C84.3233 98.9467 84.57 99.6 84.57 100.42C84.57 101.227 84.3233 101.877 83.83 102.37C83.3367 102.863 82.76 103.11 82.1 103.11C81.2867 103.11 80.6267 102.743 80.12 102.01V104.6H79.35ZM81.96 102.42C82.48 102.42 82.9133 102.24 83.26 101.88C83.6067 101.513 83.78 101.023 83.78 100.41C83.78 99.8167 83.6033 99.3367 83.25 98.97C82.8967 98.5967 82.4667 98.41 81.96 98.41C81.46 98.41 81.0233 98.6 80.65 98.98C80.2767 99.36 80.09 99.84 80.09 100.42C80.09 101 80.2767 101.48 80.65 101.86C81.0233 102.233 81.46 102.42 81.96 102.42ZM86.7906 104.63C86.4173 104.63 86.0506 104.543 85.6906 104.37L85.9506 103.76C86.1973 103.887 86.4673 103.95 86.7606 103.95C86.9939 103.95 87.1906 103.877 87.3506 103.73C87.5106 103.59 87.6673 103.34 87.8206 102.98L85.4706 97.83H86.3206L88.2006 102.14L89.8606 97.83H90.6806L88.5106 103.17C88.2906 103.697 88.0473 104.07 87.7806 104.29C87.5139 104.517 87.1839 104.63 86.7906 104.63Z" fill="#404040"/>
<path d="M178.697 103.12C177.777 103.12 177.017 102.813 176.417 102.2C175.817 101.58 175.481 100.793 175.407 99.84H173.987V103H173.197V96H173.987V99.12H175.407C175.487 98.1867 175.831 97.4133 176.437 96.8C177.051 96.1867 177.811 95.88 178.717 95.88C179.691 95.88 180.484 96.2233 181.097 96.91C181.717 97.5967 182.027 98.4567 182.027 99.49C182.027 100.523 181.714 101.387 181.087 102.08C180.467 102.773 179.671 103.12 178.697 103.12ZM176.917 101.57C177.391 102.123 177.991 102.4 178.717 102.4C179.444 102.4 180.041 102.127 180.507 101.58C180.981 101.027 181.217 100.333 181.217 99.5C181.217 98.68 180.977 97.9933 180.497 97.44C180.024 96.88 179.424 96.6 178.697 96.6C177.971 96.6 177.374 96.8767 176.907 97.43C176.441 97.9767 176.207 98.6667 176.207 99.5C176.207 100.32 176.444 101.01 176.917 101.57ZM183.565 104.6V97.83H184.335V98.87C184.855 98.1033 185.515 97.72 186.315 97.72C186.975 97.72 187.552 97.9667 188.045 98.46C188.539 98.9467 188.785 99.6 188.785 100.42C188.785 101.227 188.539 101.877 188.045 102.37C187.552 102.863 186.975 103.11 186.315 103.11C185.502 103.11 184.842 102.743 184.335 102.01V104.6H183.565ZM186.175 102.42C186.695 102.42 187.129 102.24 187.475 101.88C187.822 101.513 187.995 101.023 187.995 100.41C187.995 99.8167 187.819 99.3367 187.465 98.97C187.112 98.5967 186.682 98.41 186.175 98.41C185.675 98.41 185.239 98.6 184.865 98.98C184.492 99.36 184.305 99.84 184.305 100.42C184.305 101 184.492 101.48 184.865 101.86C185.239 102.233 185.675 102.42 186.175 102.42ZM190.206 103V97.83H190.976V101.92L194.046 97.83H194.796V103H194.026V98.91L190.946 103H190.206ZM195.755 104.29V102.32H196.315C196.775 101.473 197.005 100.277 197.005 98.73V97.83H200.685V102.32H201.465L201.345 104.29H200.705V103H196.525L196.385 104.29H195.755ZM197.135 102.32H199.915V98.51H197.745V99.23C197.745 100.53 197.541 101.56 197.135 102.32ZM202.52 103V97.83H203.29V101.92L206.36 97.83H207.11V103H206.34V98.91L203.26 103H202.52ZM212.109 103V100.87C211.902 100.99 211.632 101.1 211.299 101.2C210.966 101.293 210.659 101.34 210.379 101.34C209.859 101.34 209.442 101.207 209.129 100.94C208.822 100.673 208.669 100.29 208.669 99.79V97.83H209.439V99.68C209.439 99.9867 209.529 100.23 209.709 100.41C209.896 100.583 210.152 100.67 210.479 100.67C211.092 100.67 211.636 100.507 212.109 100.18V97.83H212.879V103H212.109ZM216.86 103.12C216.134 103.12 215.52 102.87 215.02 102.37C214.527 101.863 214.28 101.213 214.28 100.42C214.28 99.6667 214.517 99.03 214.99 98.51C215.464 97.9833 216.054 97.72 216.76 97.72C217.5 97.72 218.087 97.98 218.52 98.5C218.954 99.02 219.17 99.6733 219.17 100.46C219.17 100.56 219.167 100.65 219.16 100.73H215.06C215.114 101.257 215.31 101.677 215.65 101.99C215.997 102.297 216.407 102.45 216.88 102.45C217.5 102.45 218.044 102.207 218.51 101.72L218.99 102.15C218.41 102.797 217.7 103.12 216.86 103.12ZM215.06 100.11H218.39C218.344 99.61 218.177 99.1967 217.89 98.87C217.61 98.5367 217.227 98.37 216.74 98.37C216.3 98.37 215.924 98.5333 215.61 98.86C215.297 99.1867 215.114 99.6033 215.06 100.11ZM222.848 103.12C222.102 103.12 221.472 102.857 220.958 102.33C220.452 101.797 220.198 101.16 220.198 100.42C220.198 99.68 220.452 99.0467 220.958 98.52C221.472 97.9867 222.102 97.72 222.848 97.72C223.648 97.72 224.338 98.0267 224.918 98.64L224.428 99.16C223.948 98.6533 223.418 98.4 222.838 98.4C222.318 98.4 221.878 98.5967 221.518 98.99C221.165 99.3767 220.988 99.8533 220.988 100.42C220.988 100.98 221.168 101.457 221.528 101.85C221.895 102.237 222.348 102.43 222.888 102.43C223.442 102.43 223.962 102.17 224.448 101.65L224.958 102.12C224.358 102.787 223.655 103.12 222.848 103.12ZM226.231 103V97.83H227.001V100.81L229.831 97.83H230.781L228.621 100.07L230.841 103H229.931L228.091 100.63L227.001 101.75V103H226.231ZM236.195 102.33C235.675 102.857 235.032 103.12 234.265 103.12C233.498 103.12 232.858 102.857 232.345 102.33C231.838 101.803 231.585 101.167 231.585 100.42C231.585 99.68 231.842 99.0467 232.355 98.52C232.875 97.9867 233.518 97.72 234.285 97.72C235.052 97.72 235.692 97.9833 236.205 98.51C236.718 99.0367 236.975 99.6733 236.975 100.42C236.975 101.16 236.715 101.797 236.195 102.33ZM234.285 102.43C234.838 102.43 235.292 102.237 235.645 101.85C236.005 101.463 236.185 100.987 236.185 100.42C236.185 99.86 235.998 99.3833 235.625 98.99C235.258 98.5967 234.805 98.4 234.265 98.4C233.712 98.4 233.258 98.5967 232.905 98.99C232.552 99.3767 232.375 99.8533 232.375 100.42C232.375 100.98 232.558 101.457 232.925 101.85C233.292 102.237 233.745 102.43 234.285 102.43ZM238.37 103V97.83H239.14V101.92L242.21 97.83H242.96V103H242.19V98.91L239.11 103H238.37ZM241.57 96.75C241.317 96.9767 241.007 97.09 240.64 97.09C240.273 97.09 239.96 96.9767 239.7 96.75C239.447 96.5233 239.29 96.23 239.23 95.87L239.76 95.76C239.893 96.2267 240.187 96.46 240.64 96.46C241.093 96.46 241.387 96.2267 241.52 95.76L242.05 95.87C241.99 96.23 241.83 96.5233 241.57 96.75ZM173.067 118V112.83H177.547V118H176.777V113.51H173.837V118H173.067ZM179.268 119.6V112.83H180.038V113.87C180.558 113.103 181.218 112.72 182.018 112.72C182.678 112.72 183.255 112.967 183.748 113.46C184.242 113.947 184.488 114.6 184.488 115.42C184.488 116.227 184.242 116.877 183.748 117.37C183.255 117.863 182.678 118.11 182.018 118.11C181.205 118.11 180.545 117.743 180.038 117.01V119.6H179.268ZM181.878 117.42C182.398 117.42 182.832 117.24 183.178 116.88C183.525 116.513 183.698 116.023 183.698 115.41C183.698 114.817 183.522 114.337 183.168 113.97C182.815 113.597 182.385 113.41 181.878 113.41C181.378 113.41 180.942 113.6 180.568 113.98C180.195 114.36 180.008 114.84 180.008 115.42C180.008 116 180.195 116.48 180.568 116.86C180.942 117.233 181.378 117.42 181.878 117.42ZM187.449 118.11C186.922 118.11 186.469 117.967 186.089 117.68C185.709 117.393 185.519 116.993 185.519 116.48C185.519 115.94 185.719 115.523 186.119 115.23C186.519 114.937 187.056 114.79 187.729 114.79C188.262 114.79 188.789 114.863 189.309 115.01V114.85C189.309 114.397 189.176 114.05 188.909 113.81C188.642 113.57 188.266 113.45 187.779 113.45C187.272 113.45 186.749 113.573 186.209 113.82L185.979 113.19C186.619 112.897 187.246 112.75 187.859 112.75C188.592 112.75 189.149 112.94 189.529 113.32C189.889 113.68 190.069 114.187 190.069 114.84V118H189.309V117.23C188.849 117.817 188.229 118.11 187.449 118.11ZM187.599 117.49C188.079 117.49 188.486 117.36 188.819 117.1C189.152 116.84 189.319 116.507 189.319 116.1V115.62C188.812 115.473 188.309 115.4 187.809 115.4C187.336 115.4 186.966 115.497 186.699 115.69C186.432 115.877 186.299 116.133 186.299 116.46C186.299 116.773 186.422 117.023 186.669 117.21C186.922 117.397 187.232 117.49 187.599 117.49ZM191.7 118V112.83H192.47V115.81L195.3 112.83H196.25L194.09 115.07L196.31 118H195.4L193.56 115.63L192.47 116.75V118H191.7ZM198.624 118V113.51H196.774V112.83H201.254V113.51H199.404V118H198.624ZM202.374 118V112.83H203.144V116.92L206.214 112.83H206.964V118H206.194V113.91L203.114 118H202.374ZM208.683 118V112.83H209.453V115.81L212.283 112.83H213.233L211.073 115.07L213.293 118H212.383L210.543 115.63L209.453 116.75V118H208.683ZM214.356 118V112.83H215.126V116.92L218.196 112.83H218.946V118H218.176V113.91L215.096 118H214.356Z" fill="#404040"/>
<path d="M38.8486 196.06C38.1752 196.767 37.3186 197.12 36.2786 197.12C35.2386 197.12 34.3852 196.767 33.7186 196.06C33.0519 195.353 32.7186 194.5 32.7186 193.5C32.7186 192.507 33.0552 191.657 33.7286 190.95C34.4019 190.237 35.2586 189.88 36.2986 189.88C37.3386 189.88 38.1919 190.233 38.8586 190.94C39.5252 191.647 39.8586 192.5 39.8586 193.5C39.8586 194.493 39.5219 195.347 38.8486 196.06ZM34.3186 195.55C34.8452 196.11 35.5052 196.39 36.2986 196.39C37.0919 196.39 37.7452 196.113 38.2586 195.56C38.7786 195 39.0386 194.313 39.0386 193.5C39.0386 192.693 38.7752 192.01 38.2486 191.45C37.7286 190.89 37.0719 190.61 36.2786 190.61C35.4852 190.61 34.8286 190.89 34.3086 191.45C33.7952 192.003 33.5386 192.687 33.5386 193.5C33.5386 194.307 33.7986 194.99 34.3186 195.55ZM41.3947 197V191.83H45.8747V197H45.1047V192.51H42.1647V197H41.3947ZM47.5958 197V191.83H48.3658V193.77H49.7458C50.3458 193.77 50.8358 193.9 51.2158 194.16C51.5958 194.413 51.7858 194.8 51.7858 195.32C51.7858 195.833 51.6092 196.243 51.2558 196.55C50.9025 196.85 50.4292 197 49.8358 197H47.5958ZM48.3658 196.32H49.7658C50.1592 196.32 50.4625 196.237 50.6758 196.07C50.8958 195.903 51.0058 195.66 51.0058 195.34C51.0058 195.047 50.8925 194.823 50.6658 194.67C50.4458 194.51 50.1358 194.43 49.7358 194.43H48.3658V196.32ZM52.7158 197V191.83H53.4858V197H52.7158ZM56.4533 197V192.51H54.6033V191.83H59.0833V192.51H57.2333V197H56.4533ZM60.2033 197V191.83H60.9733V194.06H63.9533V191.83H64.7233V197H63.9533V194.74H60.9733V197H60.2033ZM66.4435 197V191.83H67.2135V193.77H68.5935C69.1935 193.77 69.6835 193.9 70.0635 194.16C70.4435 194.413 70.6335 194.8 70.6335 195.32C70.6335 195.833 70.4568 196.243 70.1035 196.55C69.7502 196.85 69.2768 197 68.6835 197H66.4435ZM67.2135 196.32H68.6135C69.0068 196.32 69.3102 196.237 69.5235 196.07C69.7435 195.903 69.8535 195.66 69.8535 195.34C69.8535 195.047 69.7402 194.823 69.5135 194.67C69.2935 194.51 68.9835 194.43 68.5835 194.43H67.2135V196.32ZM71.5635 197V191.83H72.3335V197H71.5635ZM73.5809 197L75.6109 194.37L73.6609 191.83H74.5409L76.0709 193.83L77.6009 191.83H78.4609L76.5009 194.35L78.5409 197H77.6509L76.0509 194.89L74.4409 197H73.5809ZM87.2312 197.12C86.5245 197.12 85.9445 196.893 85.4912 196.44C85.0378 195.987 84.7778 195.417 84.7112 194.73H83.5612V197H82.7912V191.83H83.5612V194.08H84.7112C84.7912 193.407 85.0578 192.847 85.5112 192.4C85.9712 191.947 86.5512 191.72 87.2512 191.72C88.0112 191.72 88.6245 191.98 89.0912 192.5C89.5645 193.02 89.8012 193.66 89.8012 194.42C89.8012 195.167 89.5645 195.803 89.0912 196.33C88.6178 196.857 87.9978 197.12 87.2312 197.12ZM87.2512 196.43C87.7912 196.43 88.2178 196.24 88.5312 195.86C88.8445 195.473 89.0012 194.993 89.0012 194.42C89.0012 193.847 88.8378 193.37 88.5112 192.99C88.1845 192.603 87.7578 192.41 87.2312 192.41C86.6978 192.41 86.2745 192.603 85.9612 192.99C85.6478 193.37 85.4912 193.847 85.4912 194.42C85.4912 194.993 85.6512 195.473 85.9712 195.86C86.2978 196.24 86.7245 196.43 87.2512 196.43ZM91.1896 198.6V191.83H91.9596V192.87C92.4796 192.103 93.1396 191.72 93.9396 191.72C94.5996 191.72 95.1763 191.967 95.6696 192.46C96.1629 192.947 96.4096 193.6 96.4096 194.42C96.4096 195.227 96.1629 195.877 95.6696 196.37C95.1763 196.863 94.5996 197.11 93.9396 197.11C93.1263 197.11 92.4663 196.743 91.9596 196.01V198.6H91.1896ZM93.7996 196.42C94.3196 196.42 94.7529 196.24 95.0996 195.88C95.4463 195.513 95.6196 195.023 95.6196 194.41C95.6196 193.817 95.4429 193.337 95.0896 192.97C94.7363 192.597 94.3063 192.41 93.7996 192.41C93.2996 192.41 92.8629 192.6 92.4896 192.98C92.1163 193.36 91.9296 193.84 91.9296 194.42C91.9296 195 92.1163 195.48 92.4896 195.86C92.8629 196.233 93.2996 196.42 93.7996 196.42ZM97.8302 197V191.83H98.6002V195.92L101.67 191.83H102.42V197H101.65V192.91L98.5702 197H97.8302ZM106.469 197.12C105.722 197.12 105.092 196.857 104.579 196.33C104.072 195.797 103.819 195.16 103.819 194.42C103.819 193.68 104.072 193.047 104.579 192.52C105.092 191.987 105.722 191.72 106.469 191.72C107.269 191.72 107.959 192.027 108.539 192.64L108.049 193.16C107.569 192.653 107.039 192.4 106.459 192.4C105.939 192.4 105.499 192.597 105.139 192.99C104.785 193.377 104.609 193.853 104.609 194.42C104.609 194.98 104.789 195.457 105.149 195.85C105.515 196.237 105.969 196.43 106.509 196.43C107.062 196.43 107.582 196.17 108.069 195.65L108.579 196.12C107.979 196.787 107.275 197.12 106.469 197.12ZM111.102 197V192.51H109.252V191.83H113.732V192.51H111.882V197H111.102ZM119.142 196.33C118.622 196.857 117.978 197.12 117.212 197.12C116.445 197.12 115.805 196.857 115.292 196.33C114.785 195.803 114.532 195.167 114.532 194.42C114.532 193.68 114.788 193.047 115.302 192.52C115.822 191.987 116.465 191.72 117.232 191.72C117.998 191.72 118.638 191.983 119.152 192.51C119.665 193.037 119.922 193.673 119.922 194.42C119.922 195.16 119.662 195.797 119.142 196.33ZM117.232 196.43C117.785 196.43 118.238 196.237 118.592 195.85C118.952 195.463 119.132 194.987 119.132 194.42C119.132 193.86 118.945 193.383 118.572 192.99C118.205 192.597 117.752 192.4 117.212 192.4C116.658 192.4 116.205 192.597 115.852 192.99C115.498 193.377 115.322 193.853 115.322 194.42C115.322 194.98 115.505 195.457 115.872 195.85C116.238 196.237 116.692 196.43 117.232 196.43ZM121.317 197V191.83H123.817C124.33 191.83 124.74 191.947 125.047 192.18C125.353 192.413 125.507 192.727 125.507 193.12C125.507 193.673 125.22 194.07 124.647 194.31C125.407 194.517 125.787 194.943 125.787 195.59C125.787 196.023 125.617 196.367 125.277 196.62C124.937 196.873 124.48 197 123.907 197H121.317ZM122.087 196.34H123.807C124.173 196.34 124.463 196.263 124.677 196.11C124.89 195.957 124.997 195.743 124.997 195.47C124.997 195.217 124.883 195.02 124.657 194.88C124.437 194.74 124.12 194.67 123.707 194.67H122.087V196.34ZM122.087 194.05H123.677C123.997 194.05 124.25 193.98 124.437 193.84C124.63 193.693 124.727 193.487 124.727 193.22C124.727 193 124.637 192.823 124.457 192.69C124.277 192.557 124.023 192.49 123.697 192.49H122.087V194.05ZM32.8986 212V206.83H35.3986C35.9119 206.83 36.3219 206.947 36.6286 207.18C36.9352 207.413 37.0886 207.727 37.0886 208.12C37.0886 208.673 36.8019 209.07 36.2286 209.31C36.9886 209.517 37.3686 209.943 37.3686 210.59C37.3686 211.023 37.1986 211.367 36.8586 211.62C36.5186 211.873 36.0619 212 35.4886 212H32.8986ZM33.6686 211.34H35.3886C35.7552 211.34 36.0452 211.263 36.2586 211.11C36.4719 210.957 36.5786 210.743 36.5786 210.47C36.5786 210.217 36.4652 210.02 36.2386 209.88C36.0186 209.74 35.7019 209.67 35.2886 209.67H33.6686V211.34ZM33.6686 209.05H35.2586C35.5786 209.05 35.8319 208.98 36.0186 208.84C36.2119 208.693 36.3086 208.487 36.3086 208.22C36.3086 208 36.2186 207.823 36.0386 207.69C35.8586 207.557 35.6052 207.49 35.2786 207.49H33.6686V209.05ZM41.756 212V206.83H42.526V211.32H45.046V206.83H45.816V211.32H48.336V206.83H49.116V212H41.756ZM52.088 212V207.51H50.238V206.83H54.718V207.51H52.868V212H52.088ZM57.378 212.11C56.8514 212.11 56.398 211.967 56.018 211.68C55.638 211.393 55.448 210.993 55.448 210.48C55.448 209.94 55.648 209.523 56.048 209.23C56.448 208.937 56.9847 208.79 57.658 208.79C58.1914 208.79 58.718 208.863 59.238 209.01V208.85C59.238 208.397 59.1047 208.05 58.838 207.81C58.5714 207.57 58.1947 207.45 57.708 207.45C57.2014 207.45 56.678 207.573 56.138 207.82L55.908 207.19C56.548 206.897 57.1747 206.75 57.788 206.75C58.5214 206.75 59.078 206.94 59.458 207.32C59.818 207.68 59.998 208.187 59.998 208.84V212H59.238V211.23C58.778 211.817 58.158 212.11 57.378 212.11ZM57.528 211.49C58.008 211.49 58.4147 211.36 58.748 211.1C59.0814 210.84 59.248 210.507 59.248 210.1V209.62C58.7414 209.473 58.238 209.4 57.738 209.4C57.2647 209.4 56.8947 209.497 56.628 209.69C56.3614 209.877 56.228 210.133 56.228 210.46C56.228 210.773 56.3514 211.023 56.598 211.21C56.8514 211.397 57.1614 211.49 57.528 211.49ZM62.879 212V207.51H61.029V206.83H65.509V207.51H63.659V212H62.879ZM68.889 212.12C68.1624 212.12 67.549 211.87 67.049 211.37C66.5557 210.863 66.309 210.213 66.309 209.42C66.309 208.667 66.5457 208.03 67.019 207.51C67.4924 206.983 68.0824 206.72 68.789 206.72C69.529 206.72 70.1157 206.98 70.549 207.5C70.9824 208.02 71.199 208.673 71.199 209.46C71.199 209.56 71.1957 209.65 71.189 209.73H67.089C67.1424 210.257 67.339 210.677 67.679 210.99C68.0257 211.297 68.4357 211.45 68.909 211.45C69.529 211.45 70.0724 211.207 70.539 210.72L71.019 211.15C70.439 211.797 69.729 212.12 68.889 212.12ZM67.089 209.11H70.419C70.3724 208.61 70.2057 208.197 69.919 207.87C69.639 207.537 69.2557 207.37 68.769 207.37C68.329 207.37 67.9524 207.533 67.639 207.86C67.3257 208.187 67.1424 208.603 67.089 209.11Z" fill="#404040"/>
<path d="M176.397 210.12C175.391 210.12 174.554 209.773 173.887 209.08C173.221 208.38 172.887 207.52 172.887 206.5C172.887 205.493 173.224 204.64 173.897 203.94C174.571 203.233 175.414 202.88 176.427 202.88C177.014 202.88 177.514 202.977 177.927 203.17C178.341 203.357 178.744 203.637 179.137 204.01L178.617 204.57C177.944 203.93 177.211 203.61 176.417 203.61C175.644 203.61 174.997 203.887 174.477 204.44C173.964 204.993 173.707 205.68 173.707 206.5C173.707 207.313 173.967 208 174.487 208.56C175.007 209.113 175.651 209.39 176.417 209.39C176.871 209.39 177.271 209.307 177.617 209.14C177.964 208.973 178.317 208.72 178.677 208.38L179.197 208.93C178.804 209.323 178.391 209.62 177.957 209.82C177.524 210.02 177.004 210.12 176.397 210.12ZM180.45 210V204.83H181.22V208.92L184.29 204.83H185.04V210H184.27V205.91L181.19 210H180.45ZM189.089 210.12C188.342 210.12 187.712 209.857 187.199 209.33C186.692 208.797 186.439 208.16 186.439 207.42C186.439 206.68 186.692 206.047 187.199 205.52C187.712 204.987 188.342 204.72 189.089 204.72C189.889 204.72 190.579 205.027 191.159 205.64L190.669 206.16C190.189 205.653 189.659 205.4 189.079 205.4C188.559 205.4 188.119 205.597 187.759 205.99C187.405 206.377 187.229 206.853 187.229 207.42C187.229 207.98 187.409 208.457 187.769 208.85C188.135 209.237 188.589 209.43 189.129 209.43C189.682 209.43 190.202 209.17 190.689 208.65L191.199 209.12C190.599 209.787 189.895 210.12 189.089 210.12ZM193.722 210V205.51H191.872V204.83H196.352V205.51H194.502V210H193.722ZM199.732 210.12C199.005 210.12 198.392 209.87 197.892 209.37C197.398 208.863 197.152 208.213 197.152 207.42C197.152 206.667 197.388 206.03 197.862 205.51C198.335 204.983 198.925 204.72 199.632 204.72C200.372 204.72 200.958 204.98 201.392 205.5C201.825 206.02 202.042 206.673 202.042 207.46C202.042 207.56 202.038 207.65 202.032 207.73H197.932C197.985 208.257 198.182 208.677 198.522 208.99C198.868 209.297 199.278 209.45 199.752 209.45C200.372 209.45 200.915 209.207 201.382 208.72L201.862 209.15C201.282 209.797 200.572 210.12 199.732 210.12ZM197.932 207.11H201.262C201.215 206.61 201.048 206.197 200.762 205.87C200.482 205.537 200.098 205.37 199.612 205.37C199.172 205.37 198.795 205.533 198.482 205.86C198.168 206.187 197.985 206.603 197.932 207.11ZM203.39 210V204.83H204.12L206.05 207.55L207.98 204.83H208.72V210H207.94V206.06L206.03 208.68L204.14 206.06V210H203.39ZM211.98 210.11C211.454 210.11 211 209.967 210.62 209.68C210.24 209.393 210.05 208.993 210.05 208.48C210.05 207.94 210.25 207.523 210.65 207.23C211.05 206.937 211.587 206.79 212.26 206.79C212.794 206.79 213.32 206.863 213.84 207.01V206.85C213.84 206.397 213.707 206.05 213.44 205.81C213.174 205.57 212.797 205.45 212.31 205.45C211.804 205.45 211.28 205.573 210.74 205.82L210.51 205.19C211.15 204.897 211.777 204.75 212.39 204.75C213.124 204.75 213.68 204.94 214.06 205.32C214.42 205.68 214.6 206.187 214.6 206.84V210H213.84V209.23C213.38 209.817 212.76 210.11 211.98 210.11ZM212.13 209.49C212.61 209.49 213.017 209.36 213.35 209.1C213.684 208.84 213.85 208.507 213.85 208.1V207.62C213.344 207.473 212.84 207.4 212.34 207.4C211.867 207.4 211.497 207.497 211.23 207.69C210.964 207.877 210.83 208.133 210.83 208.46C210.83 208.773 210.954 209.023 211.2 209.21C211.454 209.397 211.764 209.49 212.13 209.49ZM219.229 210V204.83H219.999V207.06H222.979V204.83H223.749V210H222.979V207.74H219.999V210H219.229ZM227.01 210.11C226.483 210.11 226.03 209.967 225.65 209.68C225.27 209.393 225.08 208.993 225.08 208.48C225.08 207.94 225.28 207.523 225.68 207.23C226.08 206.937 226.616 206.79 227.29 206.79C227.823 206.79 228.35 206.863 228.87 207.01V206.85C228.87 206.397 228.736 206.05 228.47 205.81C228.203 205.57 227.826 205.45 227.34 205.45C226.833 205.45 226.31 205.573 225.77 205.82L225.54 205.19C226.18 204.897 226.806 204.75 227.42 204.75C228.153 204.75 228.71 204.94 229.09 205.32C229.45 205.68 229.63 206.187 229.63 206.84V210H228.87V209.23C228.41 209.817 227.79 210.11 227.01 210.11ZM227.16 209.49C227.64 209.49 228.046 209.36 228.38 209.1C228.713 208.84 228.88 208.507 228.88 208.1V207.62C228.373 207.473 227.87 207.4 227.37 207.4C226.896 207.4 226.526 207.497 226.26 207.69C225.993 207.877 225.86 208.133 225.86 208.46C225.86 208.773 225.983 209.023 226.23 209.21C226.483 209.397 226.793 209.49 227.16 209.49ZM236.689 210.12C235.895 210.12 235.259 209.86 234.779 209.34C234.305 208.813 234.069 208.103 234.069 207.21C234.069 206.883 234.075 206.607 234.089 206.38C234.102 206.147 234.129 205.89 234.169 205.61C234.209 205.33 234.272 205.09 234.359 204.89C234.445 204.69 234.555 204.493 234.689 204.3C234.829 204.107 235.009 203.943 235.229 203.81C235.449 203.677 235.705 203.577 235.999 203.51L238.879 202.83L239.029 203.48L236.229 204.17C235.709 204.303 235.335 204.517 235.109 204.81C234.889 205.097 234.759 205.497 234.719 206.01C235.159 205.263 235.872 204.89 236.859 204.89C237.539 204.89 238.122 205.143 238.609 205.65C239.095 206.15 239.339 206.753 239.339 207.46C239.339 208.193 239.085 208.82 238.579 209.34C238.072 209.86 237.442 210.12 236.689 210.12ZM236.709 209.43C237.235 209.43 237.672 209.243 238.019 208.87C238.365 208.49 238.539 208.027 238.539 207.48C238.539 206.94 238.359 206.48 237.999 206.1C237.645 205.72 237.209 205.53 236.689 205.53C236.162 205.53 235.725 205.72 235.379 206.1C235.032 206.473 234.859 206.933 234.859 207.48C234.859 208.02 235.035 208.48 235.389 208.86C235.749 209.24 236.189 209.43 236.709 209.43ZM242.273 210.11C241.747 210.11 241.293 209.967 240.913 209.68C240.533 209.393 240.343 208.993 240.343 208.48C240.343 207.94 240.543 207.523 240.943 207.23C241.343 206.937 241.88 206.79 242.553 206.79C243.087 206.79 243.613 206.863 244.133 207.01V206.85C244.133 206.397 244 206.05 243.733 205.81C243.467 205.57 243.09 205.45 242.603 205.45C242.097 205.45 241.573 205.573 241.033 205.82L240.803 205.19C241.443 204.897 242.07 204.75 242.683 204.75C243.417 204.75 243.973 204.94 244.353 205.32C244.713 205.68 244.893 206.187 244.893 206.84V210H244.133V209.23C243.673 209.817 243.053 210.11 242.273 210.11ZM242.423 209.49C242.903 209.49 243.31 209.36 243.643 209.1C243.977 208.84 244.143 208.507 244.143 208.1V207.62C243.637 207.473 243.133 207.4 242.633 207.4C242.16 207.4 241.79 207.497 241.523 207.69C241.257 207.877 241.123 208.133 241.123 208.46C241.123 208.773 241.247 209.023 241.493 209.21C241.747 209.397 242.057 209.49 242.423 209.49ZM248.164 210.12C247.371 210.12 246.658 209.863 246.024 209.35L246.414 208.78C246.941 209.227 247.518 209.45 248.144 209.45C248.498 209.45 248.798 209.37 249.044 209.21C249.298 209.043 249.424 208.817 249.424 208.53C249.424 208.263 249.311 208.057 249.084 207.91C248.858 207.757 248.538 207.68 248.124 207.68H247.434V207.05H248.134C248.474 207.05 248.751 206.97 248.964 206.81C249.178 206.643 249.284 206.427 249.284 206.16C249.284 205.927 249.178 205.74 248.964 205.6C248.758 205.46 248.491 205.39 248.164 205.39C247.551 205.39 247.028 205.563 246.594 205.91L246.214 205.37C246.774 204.937 247.441 204.72 248.214 204.72C248.788 204.72 249.241 204.85 249.574 205.11C249.914 205.363 250.084 205.693 250.084 206.1C250.084 206.667 249.808 207.063 249.254 207.29C249.894 207.517 250.214 207.94 250.214 208.56C250.214 208.993 250.028 209.363 249.654 209.67C249.281 209.97 248.784 210.12 248.164 210.12ZM253.901 210.12C253.175 210.12 252.561 209.87 252.061 209.37C251.568 208.863 251.321 208.213 251.321 207.42C251.321 206.667 251.558 206.03 252.031 205.51C252.505 204.983 253.095 204.72 253.801 204.72C254.541 204.72 255.128 204.98 255.561 205.5C255.995 206.02 256.211 206.673 256.211 207.46C256.211 207.56 256.208 207.65 256.201 207.73H252.101C252.155 208.257 252.351 208.677 252.691 208.99C253.038 209.297 253.448 209.45 253.921 209.45C254.541 209.45 255.085 209.207 255.551 208.72L256.031 209.15C255.451 209.797 254.741 210.12 253.901 210.12ZM252.101 207.11H255.431C255.385 206.61 255.218 206.197 254.931 205.87C254.651 205.537 254.268 205.37 253.781 205.37C253.341 205.37 252.965 205.533 252.651 205.86C252.338 206.187 252.155 206.603 252.101 207.11ZM173.067 225V219.83H173.837V223.92L176.907 219.83H177.657V225H176.887V220.91L173.807 225H173.067ZM181.706 225.12C180.959 225.12 180.329 224.857 179.816 224.33C179.309 223.797 179.056 223.16 179.056 222.42C179.056 221.68 179.309 221.047 179.816 220.52C180.329 219.987 180.959 219.72 181.706 219.72C182.506 219.72 183.196 220.027 183.776 220.64L183.286 221.16C182.806 220.653 182.276 220.4 181.696 220.4C181.176 220.4 180.736 220.597 180.376 220.99C180.023 221.377 179.846 221.853 179.846 222.42C179.846 222.98 180.026 223.457 180.386 223.85C180.753 224.237 181.206 224.43 181.746 224.43C182.299 224.43 182.819 224.17 183.306 223.65L183.816 224.12C183.216 224.787 182.513 225.12 181.706 225.12ZM185.089 225V219.83H185.859V222.81L188.689 219.83H189.639L187.479 222.07L189.699 225H188.789L186.949 222.63L185.859 223.75V225H185.089ZM191.563 226.63C191.189 226.63 190.823 226.543 190.463 226.37L190.723 225.76C190.969 225.887 191.239 225.95 191.533 225.95C191.766 225.95 191.963 225.877 192.123 225.73C192.283 225.59 192.439 225.34 192.593 224.98L190.243 219.83H191.093L192.973 224.14L194.633 219.83H195.453L193.283 225.17C193.063 225.697 192.819 226.07 192.553 226.29C192.286 226.517 191.956 226.63 191.563 226.63ZM199.001 225.12C198.254 225.12 197.624 224.857 197.111 224.33C196.604 223.797 196.351 223.16 196.351 222.42C196.351 221.68 196.604 221.047 197.111 220.52C197.624 219.987 198.254 219.72 199.001 219.72C199.801 219.72 200.491 220.027 201.071 220.64L200.581 221.16C200.101 220.653 199.571 220.4 198.991 220.4C198.471 220.4 198.031 220.597 197.671 220.99C197.317 221.377 197.141 221.853 197.141 222.42C197.141 222.98 197.321 223.457 197.681 223.85C198.047 224.237 198.501 224.43 199.041 224.43C199.594 224.43 200.114 224.17 200.601 223.65L201.111 224.12C200.511 224.787 199.807 225.12 199.001 225.12ZM204.714 225.12C203.967 225.12 203.337 224.857 202.824 224.33C202.317 223.797 202.064 223.16 202.064 222.42C202.064 221.68 202.317 221.047 202.824 220.52C203.337 219.987 203.967 219.72 204.714 219.72C205.514 219.72 206.204 220.027 206.784 220.64L206.294 221.16C205.814 220.653 205.284 220.4 204.704 220.4C204.184 220.4 203.744 220.597 203.384 220.99C203.03 221.377 202.854 221.853 202.854 222.42C202.854 222.98 203.034 223.457 203.394 223.85C203.76 224.237 204.214 224.43 204.754 224.43C205.307 224.43 205.827 224.17 206.314 223.65L206.824 224.12C206.224 224.787 205.52 225.12 204.714 225.12ZM209.347 225V220.51H207.497V219.83H211.977V220.51H210.127V225H209.347ZM213.097 225V219.83H215.597C216.11 219.83 216.52 219.947 216.827 220.18C217.133 220.413 217.287 220.727 217.287 221.12C217.287 221.673 217 222.07 216.427 222.31C217.187 222.517 217.567 222.943 217.567 223.59C217.567 224.023 217.397 224.367 217.057 224.62C216.717 224.873 216.26 225 215.687 225H213.097ZM213.867 224.34H215.587C215.953 224.34 216.243 224.263 216.457 224.11C216.67 223.957 216.777 223.743 216.777 223.47C216.777 223.217 216.663 223.02 216.437 222.88C216.217 222.74 215.9 222.67 215.487 222.67H213.867V224.34ZM213.867 222.05H215.457C215.777 222.05 216.03 221.98 216.217 221.84C216.41 221.693 216.507 221.487 216.507 221.22C216.507 221 216.417 220.823 216.237 220.69C216.057 220.557 215.803 220.49 215.477 220.49H213.867V222.05ZM221.216 225.12C220.489 225.12 219.876 224.87 219.376 224.37C218.883 223.863 218.636 223.213 218.636 222.42C218.636 221.667 218.873 221.03 219.346 220.51C219.819 219.983 220.409 219.72 221.116 219.72C221.856 219.72 222.443 219.98 222.876 220.5C223.309 221.02 223.526 221.673 223.526 222.46C223.526 222.56 223.523 222.65 223.516 222.73H219.416C219.469 223.257 219.666 223.677 220.006 223.99C220.353 224.297 220.763 224.45 221.236 224.45C221.856 224.45 222.399 224.207 222.866 223.72L223.346 224.15C222.766 224.797 222.056 225.12 221.216 225.12ZM219.416 222.11H222.746C222.699 221.61 222.533 221.197 222.246 220.87C221.966 220.537 221.583 220.37 221.096 220.37C220.656 220.37 220.279 220.533 219.966 220.86C219.653 221.187 219.469 221.603 219.416 222.11ZM224.874 225V219.83H225.644V222.06H228.624V219.83H229.394V225H228.624V222.74H225.644V225H224.874ZM231.114 225V219.83H231.884V222.06H234.864V219.83H235.634V225H234.864V222.74H231.884V225H231.114ZM241.644 224.33C241.124 224.857 240.481 225.12 239.714 225.12C238.948 225.12 238.308 224.857 237.794 224.33C237.288 223.803 237.034 223.167 237.034 222.42C237.034 221.68 237.291 221.047 237.804 220.52C238.324 219.987 238.968 219.72 239.734 219.72C240.501 219.72 241.141 219.983 241.654 220.51C242.168 221.037 242.424 221.673 242.424 222.42C242.424 223.16 242.164 223.797 241.644 224.33ZM239.734 224.43C240.288 224.43 240.741 224.237 241.094 223.85C241.454 223.463 241.634 222.987 241.634 222.42C241.634 221.86 241.448 221.383 241.074 220.99C240.708 220.597 240.254 220.4 239.714 220.4C239.161 220.4 238.708 220.597 238.354 220.99C238.001 221.377 237.824 221.853 237.824 222.42C237.824 222.98 238.008 223.457 238.374 223.85C238.741 224.237 239.194 224.43 239.734 224.43ZM243.819 225V219.83H247.329V220.51H244.589V225H243.819ZM252.738 224.33C252.218 224.857 251.575 225.12 250.808 225.12C250.041 225.12 249.401 224.857 248.888 224.33C248.381 223.803 248.128 223.167 248.128 222.42C248.128 221.68 248.385 221.047 248.898 220.52C249.418 219.987 250.061 219.72 250.828 219.72C251.595 219.72 252.235 219.983 252.748 220.51C253.261 221.037 253.518 221.673 253.518 222.42C253.518 223.16 253.258 223.797 252.738 224.33ZM250.828 224.43C251.381 224.43 251.835 224.237 252.188 223.85C252.548 223.463 252.728 222.987 252.728 222.42C252.728 221.86 252.541 221.383 252.168 220.99C251.801 220.597 251.348 220.4 250.808 220.4C250.255 220.4 249.801 220.597 249.448 220.99C249.095 221.377 248.918 221.853 248.918 222.42C248.918 222.98 249.101 223.457 249.468 223.85C249.835 224.237 250.288 224.43 250.828 224.43ZM173.067 240V234.83H173.837V238.92L176.907 234.83H177.657V240H176.887V235.91L173.807 240H173.067ZM179.376 240V234.83H180.146V237.06H183.126V234.83H183.896V240H183.126V237.74H180.146V240H179.376ZM186.866 240V235.51H185.016V234.83H189.496V235.51H187.646V240H186.866ZM192.876 240.12C192.149 240.12 191.536 239.87 191.036 239.37C190.543 238.863 190.296 238.213 190.296 237.42C190.296 236.667 190.533 236.03 191.006 235.51C191.479 234.983 192.069 234.72 192.776 234.72C193.516 234.72 194.103 234.98 194.536 235.5C194.969 236.02 195.186 236.673 195.186 237.46C195.186 237.56 195.183 237.65 195.176 237.73H191.076C191.129 238.257 191.326 238.677 191.666 238.99C192.013 239.297 192.423 239.45 192.896 239.45C193.516 239.45 194.059 239.207 194.526 238.72L195.006 239.15C194.426 239.797 193.716 240.12 192.876 240.12ZM191.076 237.11H194.406C194.359 236.61 194.193 236.197 193.906 235.87C193.626 235.537 193.243 235.37 192.756 235.37C192.316 235.37 191.939 235.533 191.626 235.86C191.313 236.187 191.129 236.603 191.076 237.11ZM196.284 240.08C196.084 240.08 195.877 240.053 195.664 240L195.754 239.34C195.907 239.387 196.031 239.41 196.124 239.41C196.271 239.41 196.391 239.393 196.484 239.36C196.577 239.32 196.677 239.223 196.784 239.07C196.897 238.91 196.984 238.687 197.044 238.4C197.104 238.113 197.154 237.707 197.194 237.18C197.241 236.653 197.264 236.013 197.264 235.26V234.83H200.924V240H200.154V235.51H197.994V235.63C197.994 236.417 197.964 237.087 197.904 237.64C197.844 238.193 197.767 238.627 197.674 238.94C197.587 239.253 197.464 239.497 197.304 239.67C197.144 239.843 196.987 239.953 196.834 240C196.687 240.053 196.504 240.08 196.284 240.08ZM202.397 240.08C202.197 240.08 201.991 240.053 201.777 240L201.867 239.34C202.021 239.387 202.144 239.41 202.237 239.41C202.384 239.41 202.504 239.393 202.597 239.36C202.691 239.32 202.791 239.223 202.897 239.07C203.011 238.91 203.097 238.687 203.157 238.4C203.217 238.113 203.267 237.707 203.307 237.18C203.354 236.653 203.377 236.013 203.377 235.26V234.83H207.037V240H206.267V235.51H204.107V235.63C204.107 236.417 204.077 237.087 204.017 237.64C203.957 238.193 203.881 238.627 203.787 238.94C203.701 239.253 203.577 239.497 203.417 239.67C203.257 239.843 203.101 239.953 202.947 240C202.801 240.053 202.617 240.08 202.397 240.08ZM211.021 240.12C210.294 240.12 209.681 239.87 209.181 239.37C208.687 238.863 208.441 238.213 208.441 237.42C208.441 236.667 208.677 236.03 209.151 235.51C209.624 234.983 210.214 234.72 210.921 234.72C211.661 234.72 212.247 234.98 212.681 235.5C213.114 236.02 213.331 236.673 213.331 237.46C213.331 237.56 213.327 237.65 213.321 237.73H209.221C209.274 238.257 209.471 238.677 209.811 238.99C210.157 239.297 210.567 239.45 211.041 239.45C211.661 239.45 212.204 239.207 212.671 238.72L213.151 239.15C212.571 239.797 211.861 240.12 211.021 240.12ZM209.221 237.11H212.551C212.504 236.61 212.337 236.197 212.051 235.87C211.771 235.537 211.387 235.37 210.901 235.37C210.461 235.37 210.084 235.533 209.771 235.86C209.457 236.187 209.274 236.603 209.221 237.11ZM214.679 240V234.83H215.449V237.81L218.279 234.83H219.229L217.069 237.07L219.289 240H218.379L216.539 237.63L215.449 238.75V240H214.679ZM221.602 240V235.51H219.752V234.83H224.232V235.51H222.382V240H221.602ZM226.892 240.11C226.366 240.11 225.912 239.967 225.532 239.68C225.152 239.393 224.962 238.993 224.962 238.48C224.962 237.94 225.162 237.523 225.562 237.23C225.962 236.937 226.499 236.79 227.172 236.79C227.706 236.79 228.232 236.863 228.752 237.01V236.85C228.752 236.397 228.619 236.05 228.352 235.81C228.086 235.57 227.709 235.45 227.222 235.45C226.716 235.45 226.192 235.573 225.652 235.82L225.422 235.19C226.062 234.897 226.689 234.75 227.302 234.75C228.036 234.75 228.592 234.94 228.972 235.32C229.332 235.68 229.512 236.187 229.512 236.84V240H228.752V239.23C228.292 239.817 227.672 240.11 226.892 240.11ZM227.042 239.49C227.522 239.49 227.929 239.36 228.262 239.1C228.596 238.84 228.762 238.507 228.762 238.1V237.62C228.256 237.473 227.752 237.4 227.252 237.4C226.779 237.4 226.409 237.497 226.142 237.69C225.876 237.877 225.742 238.133 225.742 238.46C225.742 238.773 225.866 239.023 226.112 239.21C226.366 239.397 226.676 239.49 227.042 239.49Z" fill="#404040"/>
<defs>
<linearGradient id="paint0_linear_1314:2" x1="244.426" y1="0" x2="325" y2="0" gradientUnits="userSpaceOnUse">
<stop stop-color="#E1D8FF"/>
<stop offset="1" stop-color="#F4ECFF"/>
</linearGradient>
<linearGradient id="paint1_linear_1314:2" x1="5.43498" y1="129" x2="25.1985" y2="129" gradientUnits="userSpaceOnUse">
<stop stop-color="#E1D8FF"/>
<stop offset="1" stop-color="#F4ECFF"/>
</linearGradient>
<linearGradient id="paint2_linear_1314:2" x1="70.0844" y1="28" x2="12.322" y2="85.4588" gradientUnits="userSpaceOnUse">
<stop stop-color="white"/>
<stop offset="1" stop-color="#F4F9FF"/>
</linearGradient>
<linearGradient id="paint3_linear_1314:2" x1="218.263" y1="44" x2="162.59" y2="94.6678" gradientUnits="userSpaceOnUse">
<stop stop-color="white"/>
<stop offset="1" stop-color="#F4F9FF"/>
</linearGradient>
<linearGradient id="paint4_linear_1314:2" x1="78.094" y1="138" x2="22.4215" y2="188.668" gradientUnits="userSpaceOnUse">
<stop stop-color="white"/>
<stop offset="1" stop-color="#F4F9FF"/>
</linearGradient>
<linearGradient id="paint5_linear_1314:2" x1="222.268" y1="151" x2="156.294" y2="203.876" gradientUnits="userSpaceOnUse">
<stop stop-color="white"/>
<stop offset="1" stop-color="#F4F9FF"/>
</linearGradient>
<linearGradient id="paint6_linear_1314:2" x1="66.0795" y1="44" x2="66.0795" y2="74" gradientUnits="userSpaceOnUse">
<stop stop-color="#4614E8"/>
<stop offset="1" stop-color="#BCA7FF"/>
</linearGradient>
<linearGradient id="paint7_linear_1314:2" x1="196.737" y1="60" x2="196.737" y2="89" gradientUnits="userSpaceOnUse">
<stop stop-color="#4614E8"/>
<stop offset="1" stop-color="#BCA7FF"/>
</linearGradient>
<linearGradient id="paint8_linear_1314:2" x1="72.0868" y1="154" x2="72.0868" y2="183" gradientUnits="userSpaceOnUse">
<stop stop-color="#4614E8"/>
<stop offset="1" stop-color="#BCA7FF"/>
</linearGradient>
<linearGradient id="paint9_linear_1314:2" x1="212.255" y1="167" x2="212.255" y2="196" gradientUnits="userSpaceOnUse">
<stop stop-color="#4614E8"/>
<stop offset="1" stop-color="#BCA7FF"/>
</linearGradient>
<linearGradient id="paint10_linear_1314:2" x1="109.632" y1="56" x2="109.632" y2="71" gradientUnits="userSpaceOnUse">
<stop stop-color="#4614E8"/>
<stop offset="1" stop-color="#BCA7FF"/>
</linearGradient>
<linearGradient id="paint11_linear_1314:2" x1="220.766" y1="74" x2="220.766" y2="89" gradientUnits="userSpaceOnUse">
<stop stop-color="#4614E8"/>
<stop offset="1" stop-color="#BCA7FF"/>
</linearGradient>
</defs>
</svg>
