<svg width="547" height="387" viewBox="0 0 547 387" fill="none" xmlns="http://www.w3.org/2000/svg">
<circle cx="467.5" cy="79.5" r="79.5" fill="url(#paint0_linear_1301:2)"/>
<circle cx="38.5" cy="223.5" r="19.5" fill="url(#paint1_linear_1301:2)"/>
<circle cx="241.5" cy="258.5" r="12.5" fill="url(#paint2_linear_1301:2)"/>
<rect y="43" width="217" height="156" rx="10" fill="url(#paint3_linear_1301:2)"/>
<path d="M33.386 143V133.2H34.492V139.052L40.12 133.2H41.548L37.348 137.484L41.73 143H40.344L36.578 138.254L34.492 140.368V143H33.386ZM42.9165 143.112C42.6365 143.112 42.3472 143.075 42.0485 143L42.1745 142.076C42.3892 142.141 42.5618 142.174 42.6925 142.174C42.8978 142.174 43.0658 142.151 43.1965 142.104C43.3272 142.048 43.4672 141.913 43.6165 141.698C43.7752 141.474 43.8965 141.161 43.9805 140.76C44.0645 140.359 44.1345 139.789 44.1905 139.052C44.2558 138.315 44.2885 137.419 44.2885 136.364V135.762H49.4125V143H48.3345V136.714H45.3105V136.882C45.3105 137.983 45.2685 138.921 45.1845 139.696C45.1005 140.471 44.9932 141.077 44.8625 141.516C44.7412 141.955 44.5685 142.295 44.3445 142.538C44.1205 142.781 43.9012 142.935 43.6865 143C43.4812 143.075 43.2245 143.112 42.9165 143.112ZM51.8251 143V135.762H52.9031V141.488L57.2011 135.762H58.2511V143H57.1731V137.274L52.8611 143H51.8251ZM63.8211 143.168C62.8038 143.168 61.9451 142.818 61.2451 142.118C60.5545 141.409 60.2091 140.499 60.2091 139.388C60.2091 138.333 60.5405 137.442 61.2031 136.714C61.8658 135.977 62.6918 135.608 63.6811 135.608C64.7171 135.608 65.5385 135.972 66.1451 136.7C66.7518 137.428 67.0551 138.343 67.0551 139.444C67.0551 139.584 67.0505 139.71 67.0411 139.822H61.3011C61.3758 140.559 61.6511 141.147 62.1271 141.586C62.6125 142.015 63.1865 142.23 63.8491 142.23C64.7171 142.23 65.4778 141.889 66.1311 141.208L66.8031 141.81C65.9911 142.715 64.9971 143.168 63.8211 143.168ZM61.3011 138.954H65.9631C65.8978 138.254 65.6645 137.675 65.2631 137.218C64.8711 136.751 64.3345 136.518 63.6531 136.518C63.0371 136.518 62.5098 136.747 62.0711 137.204C61.6325 137.661 61.3758 138.245 61.3011 138.954ZM68.9423 143V135.762H70.0203V138.884H74.1923V135.762H75.2703V143H74.1923V139.836H70.0203V143H68.9423ZM79.4286 143V136.714H76.8386V135.762H83.1106V136.714H80.5206V143H79.4286ZM90.6846 142.062C89.9566 142.799 89.0559 143.168 87.9826 143.168C86.9093 143.168 86.0133 142.799 85.2946 142.062C84.5853 141.325 84.2306 140.433 84.2306 139.388C84.2306 138.352 84.5899 137.465 85.3086 136.728C86.0366 135.981 86.9373 135.608 88.0106 135.608C89.0839 135.608 89.9799 135.977 90.6986 136.714C91.4173 137.451 91.7766 138.343 91.7766 139.388C91.7766 140.424 91.4126 141.315 90.6846 142.062ZM88.0106 142.202C88.7853 142.202 89.4199 141.931 89.9146 141.39C90.4186 140.849 90.6706 140.181 90.6706 139.388C90.6706 138.604 90.4093 137.937 89.8866 137.386C89.3733 136.835 88.7386 136.56 87.9826 136.56C87.2079 136.56 86.5733 136.835 86.0786 137.386C85.5839 137.927 85.3366 138.595 85.3366 139.388C85.3366 140.172 85.5933 140.839 86.1066 141.39C86.6199 141.931 87.2546 142.202 88.0106 142.202ZM93.7294 143V135.762H97.2294C97.9481 135.762 98.5221 135.925 98.9514 136.252C99.3807 136.579 99.5954 137.017 99.5954 137.568C99.5954 138.343 99.1941 138.898 98.3914 139.234C99.4554 139.523 99.9874 140.121 99.9874 141.026C99.9874 141.633 99.7494 142.113 99.2734 142.468C98.7974 142.823 98.1581 143 97.3554 143H93.7294ZM94.8074 142.076H97.2154C97.7287 142.076 98.1347 141.969 98.4334 141.754C98.7321 141.539 98.8814 141.241 98.8814 140.858C98.8814 140.503 98.7227 140.228 98.4054 140.032C98.0974 139.836 97.6541 139.738 97.0754 139.738H94.8074V142.076ZM94.8074 138.87H97.0334C97.4814 138.87 97.8361 138.772 98.0974 138.576C98.3681 138.371 98.5034 138.081 98.5034 137.708C98.5034 137.4 98.3774 137.153 98.1254 136.966C97.8734 136.779 97.5187 136.686 97.0614 136.686H94.8074V138.87ZM33.204 164V156.762H39.476V164H38.398V157.714H34.282V164H33.204ZM47.8916 163.062C47.1636 163.799 46.263 164.168 45.1896 164.168C44.1163 164.168 43.2203 163.799 42.5016 163.062C41.7923 162.325 41.4376 161.433 41.4376 160.388C41.4376 159.352 41.797 158.465 42.5156 157.728C43.2436 156.981 44.1443 156.608 45.2176 156.608C46.291 156.608 47.187 156.977 47.9056 157.714C48.6243 158.451 48.9836 159.343 48.9836 160.388C48.9836 161.424 48.6196 162.315 47.8916 163.062ZM45.2176 163.202C45.9923 163.202 46.627 162.931 47.1216 162.39C47.6256 161.849 47.8776 161.181 47.8776 160.388C47.8776 159.604 47.6163 158.937 47.0936 158.386C46.5803 157.835 45.9456 157.56 45.1896 157.56C44.415 157.56 43.7803 157.835 43.2856 158.386C42.791 158.927 42.5436 159.595 42.5436 160.388C42.5436 161.172 42.8003 161.839 43.3136 162.39C43.827 162.931 44.4616 163.202 45.2176 163.202ZM55.1337 164V156.762H58.6337C59.3524 156.762 59.9264 156.925 60.3557 157.252C60.785 157.579 60.9997 158.017 60.9997 158.568C60.9997 159.343 60.5984 159.898 59.7957 160.234C60.8597 160.523 61.3917 161.121 61.3917 162.026C61.3917 162.633 61.1537 163.113 60.6777 163.468C60.2017 163.823 59.5624 164 58.7597 164H55.1337ZM56.2117 163.076H58.6197C59.133 163.076 59.539 162.969 59.8377 162.754C60.1364 162.539 60.2857 162.241 60.2857 161.858C60.2857 161.503 60.127 161.228 59.8097 161.032C59.5017 160.836 59.0584 160.738 58.4797 160.738H56.2117V163.076ZM56.2117 159.87H58.4377C58.8857 159.87 59.2404 159.772 59.5017 159.576C59.7724 159.371 59.9077 159.081 59.9077 158.708C59.9077 158.4 59.7817 158.153 59.5297 157.966C59.2777 157.779 58.923 157.686 58.4657 157.686H56.2117V159.87ZM66.5988 164.168C65.5535 164.168 64.6715 163.799 63.9528 163.062C63.2435 162.315 62.8888 161.424 62.8888 160.388C62.8888 159.352 63.2435 158.465 63.9528 157.728C64.6715 156.981 65.5535 156.608 66.5988 156.608C67.7188 156.608 68.6848 157.037 69.4968 157.896L68.8108 158.624C68.1388 157.915 67.3968 157.56 66.5848 157.56C65.8568 157.56 65.2408 157.835 64.7368 158.386C64.2421 158.927 63.9948 159.595 63.9948 160.388C63.9948 161.172 64.2468 161.839 64.7508 162.39C65.2641 162.931 65.8988 163.202 66.6548 163.202C67.4295 163.202 68.1575 162.838 68.8388 162.11L69.5528 162.768C68.7128 163.701 67.7281 164.168 66.5988 164.168ZM74.4989 164.168C73.4815 164.168 72.6229 163.818 71.9229 163.118C71.2322 162.409 70.8869 161.499 70.8869 160.388C70.8869 159.333 71.2182 158.442 71.8809 157.714C72.5435 156.977 73.3695 156.608 74.3589 156.608C75.3949 156.608 76.2162 156.972 76.8229 157.7C77.4295 158.428 77.7329 159.343 77.7329 160.444C77.7329 160.584 77.7282 160.71 77.7189 160.822H71.9789C72.0535 161.559 72.3289 162.147 72.8049 162.586C73.2902 163.015 73.8642 163.23 74.5269 163.23C75.3949 163.23 76.1555 162.889 76.8089 162.208L77.4809 162.81C76.6689 163.715 75.6749 164.168 74.4989 164.168ZM71.9789 159.954H76.6409C76.5755 159.254 76.3422 158.675 75.9409 158.218C75.5489 157.751 75.0122 157.518 74.3309 157.518C73.7149 157.518 73.1875 157.747 72.7489 158.204C72.3102 158.661 72.0535 159.245 71.9789 159.954ZM79.62 164V156.762H80.642L83.344 160.57L86.046 156.762H87.082V164H85.99V158.484L83.316 162.152L80.67 158.484V164H79.62ZM90.6111 166.282C90.0884 166.282 89.5751 166.161 89.0711 165.918L89.4351 165.064C89.7804 165.241 90.1584 165.33 90.5691 165.33C90.8958 165.33 91.1711 165.227 91.3951 165.022C91.6191 164.826 91.8384 164.476 92.0531 163.972L88.7631 156.762H89.9531L92.5851 162.796L94.9091 156.762H96.0571L93.0191 164.238C92.7111 164.975 92.3704 165.498 91.9971 165.806C91.6238 166.123 91.1618 166.282 90.6111 166.282ZM101.96 164V156.762H102.982L105.684 160.57L108.386 156.762H109.422V164H108.33V158.484L105.656 162.152L103.01 158.484V164H101.96ZM111.831 164V156.762H112.909V162.488L117.207 156.762H118.257V164H117.179V158.274L112.867 164H111.831ZM120.663 166.24V156.762H121.741V158.218C122.469 157.145 123.393 156.608 124.513 156.608C125.437 156.608 126.244 156.953 126.935 157.644C127.626 158.325 127.971 159.24 127.971 160.388C127.971 161.517 127.626 162.427 126.935 163.118C126.244 163.809 125.437 164.154 124.513 164.154C123.374 164.154 122.45 163.641 121.741 162.614V166.24H120.663ZM124.317 163.188C125.045 163.188 125.652 162.936 126.137 162.432C126.622 161.919 126.865 161.233 126.865 160.374C126.865 159.543 126.618 158.871 126.123 158.358C125.628 157.835 125.026 157.574 124.317 157.574C123.617 157.574 123.006 157.84 122.483 158.372C121.96 158.904 121.699 159.576 121.699 160.388C121.699 161.2 121.96 161.872 122.483 162.404C123.006 162.927 123.617 163.188 124.317 163.188ZM131.08 166.282C130.557 166.282 130.044 166.161 129.54 165.918L129.904 165.064C130.249 165.241 130.627 165.33 131.038 165.33C131.365 165.33 131.64 165.227 131.864 165.022C132.088 164.826 132.307 164.476 132.522 163.972L129.232 156.762H130.422L133.054 162.796L135.378 156.762H136.526L133.488 164.238C133.18 164.975 132.839 165.498 132.466 165.806C132.093 166.123 131.631 166.282 131.08 166.282Z" fill="#404040"/>
<path d="M40.544 111V84.648L34.688 86.088L33.152 80.04L42.8 77.16H47.84V111H40.544ZM80.522 106.632C77.738 109.928 74.138 111.576 69.722 111.576C65.306 111.576 61.722 109.928 58.97 106.632C56.218 103.336 54.842 99.192 54.842 94.2C54.842 89.24 56.234 85.112 59.018 81.816C61.802 78.488 65.402 76.824 69.818 76.824C74.202 76.824 77.77 78.472 80.522 81.768C83.306 85.064 84.698 89.208 84.698 94.2C84.698 99.16 83.306 103.304 80.522 106.632ZM64.442 101.88C65.818 103.896 67.61 104.904 69.818 104.904C72.026 104.904 73.786 103.912 75.098 101.928C76.442 99.912 77.114 97.336 77.114 94.2C77.114 91.128 76.426 88.584 75.05 86.568C73.674 84.52 71.898 83.496 69.722 83.496C67.546 83.496 65.786 84.504 64.442 86.52C63.098 88.504 62.426 91.064 62.426 94.2C62.426 97.304 63.098 99.864 64.442 101.88ZM115.585 106.632C112.801 109.928 109.201 111.576 104.785 111.576C100.369 111.576 96.7845 109.928 94.0325 106.632C91.2805 103.336 89.9045 99.192 89.9045 94.2C89.9045 89.24 91.2965 85.112 94.0805 81.816C96.8645 78.488 100.465 76.824 104.881 76.824C109.265 76.824 112.833 78.472 115.585 81.768C118.369 85.064 119.761 89.208 119.761 94.2C119.761 99.16 118.369 103.304 115.585 106.632ZM99.5045 101.88C100.881 103.896 102.673 104.904 104.881 104.904C107.089 104.904 108.849 103.912 110.161 101.928C111.505 99.912 112.177 97.336 112.177 94.2C112.177 91.128 111.489 88.584 110.113 86.568C108.737 84.52 106.961 83.496 104.785 83.496C102.609 83.496 100.849 84.504 99.5045 86.52C98.1605 88.504 97.4885 91.064 97.4885 94.2C97.4885 97.304 98.1605 99.864 99.5045 101.88ZM134.327 106.056V97.416H125.639V90.792H134.327V82.152H141.143V90.792H149.831V97.416H141.143V106.056H134.327Z" fill="#7247FF"/>
<path d="M40.544 111V84.648L34.688 86.088L33.152 80.04L42.8 77.16H47.84V111H40.544ZM80.522 106.632C77.738 109.928 74.138 111.576 69.722 111.576C65.306 111.576 61.722 109.928 58.97 106.632C56.218 103.336 54.842 99.192 54.842 94.2C54.842 89.24 56.234 85.112 59.018 81.816C61.802 78.488 65.402 76.824 69.818 76.824C74.202 76.824 77.77 78.472 80.522 81.768C83.306 85.064 84.698 89.208 84.698 94.2C84.698 99.16 83.306 103.304 80.522 106.632ZM64.442 101.88C65.818 103.896 67.61 104.904 69.818 104.904C72.026 104.904 73.786 103.912 75.098 101.928C76.442 99.912 77.114 97.336 77.114 94.2C77.114 91.128 76.426 88.584 75.05 86.568C73.674 84.52 71.898 83.496 69.722 83.496C67.546 83.496 65.786 84.504 64.442 86.52C63.098 88.504 62.426 91.064 62.426 94.2C62.426 97.304 63.098 99.864 64.442 101.88ZM115.585 106.632C112.801 109.928 109.201 111.576 104.785 111.576C100.369 111.576 96.7845 109.928 94.0325 106.632C91.2805 103.336 89.9045 99.192 89.9045 94.2C89.9045 89.24 91.2965 85.112 94.0805 81.816C96.8645 78.488 100.465 76.824 104.881 76.824C109.265 76.824 112.833 78.472 115.585 81.768C118.369 85.064 119.761 89.208 119.761 94.2C119.761 99.16 118.369 103.304 115.585 106.632ZM99.5045 101.88C100.881 103.896 102.673 104.904 104.881 104.904C107.089 104.904 108.849 103.912 110.161 101.928C111.505 99.912 112.177 97.336 112.177 94.2C112.177 91.128 111.489 88.584 110.113 86.568C108.737 84.52 106.961 83.496 104.785 83.496C102.609 83.496 100.849 84.504 99.5045 86.52C98.1605 88.504 97.4885 91.064 97.4885 94.2C97.4885 97.304 98.1605 99.864 99.5045 101.88ZM134.327 106.056V97.416H125.639V90.792H134.327V82.152H141.143V90.792H149.831V97.416H141.143V106.056H134.327Z" fill="url(#paint4_linear_1301:2)"/>
<path d="M161.526 102.424V104.504H158.982V111H156.518V104.504H153.974V102.424H161.526ZM162.854 111V102.424H165.286V105.256H167.046C168.08 105.256 168.907 105.496 169.526 105.976C170.155 106.456 170.47 107.16 170.47 108.088C170.47 108.995 170.176 109.709 169.59 110.232C169.014 110.744 168.208 111 167.174 111H162.854ZM166.806 107.096H165.286V109.08H166.822C167.622 109.08 168.022 108.739 168.022 108.056C168.022 107.757 167.915 107.523 167.702 107.352C167.499 107.181 167.2 107.096 166.806 107.096ZM171.606 111V102.424H174.038V111H171.606ZM180.261 111.192C178.981 111.192 177.914 110.76 177.061 109.896C176.218 109.032 175.797 107.976 175.797 106.728C175.797 105.491 176.224 104.44 177.077 103.576C177.93 102.701 179.002 102.264 180.293 102.264C181.669 102.264 182.805 102.765 183.701 103.768L182.277 105.208C181.68 104.643 181.013 104.36 180.277 104.36C179.68 104.36 179.184 104.589 178.789 105.048C178.394 105.507 178.197 106.067 178.197 106.728C178.197 107.4 178.394 107.965 178.789 108.424C179.194 108.872 179.722 109.096 180.373 109.096C181.045 109.096 181.701 108.792 182.341 108.184L183.765 109.624C183.296 110.136 182.794 110.525 182.261 110.792C181.728 111.059 181.061 111.192 180.261 111.192Z" fill="#7247FF"/>
<path d="M161.526 102.424V104.504H158.982V111H156.518V104.504H153.974V102.424H161.526ZM162.854 111V102.424H165.286V105.256H167.046C168.08 105.256 168.907 105.496 169.526 105.976C170.155 106.456 170.47 107.16 170.47 108.088C170.47 108.995 170.176 109.709 169.59 110.232C169.014 110.744 168.208 111 167.174 111H162.854ZM166.806 107.096H165.286V109.08H166.822C167.622 109.08 168.022 108.739 168.022 108.056C168.022 107.757 167.915 107.523 167.702 107.352C167.499 107.181 167.2 107.096 166.806 107.096ZM171.606 111V102.424H174.038V111H171.606ZM180.261 111.192C178.981 111.192 177.914 110.76 177.061 109.896C176.218 109.032 175.797 107.976 175.797 106.728C175.797 105.491 176.224 104.44 177.077 103.576C177.93 102.701 179.002 102.264 180.293 102.264C181.669 102.264 182.805 102.765 183.701 103.768L182.277 105.208C181.68 104.643 181.013 104.36 180.277 104.36C179.68 104.36 179.184 104.589 178.789 105.048C178.394 105.507 178.197 106.067 178.197 106.728C178.197 107.4 178.394 107.965 178.789 108.424C179.194 108.872 179.722 109.096 180.373 109.096C181.045 109.096 181.701 108.792 182.341 108.184L183.765 109.624C183.296 110.136 182.794 110.525 182.261 110.792C181.728 111.059 181.061 111.192 180.261 111.192Z" fill="url(#paint5_linear_1301:2)"/>
<rect x="40" y="216" width="179" height="135" rx="10" fill="url(#paint6_linear_1301:2)"/>
<rect x="242" y="64" width="179" height="135" rx="10" fill="url(#paint7_linear_1301:2)"/>
<path d="M74.98 272.432C71.332 272.432 68.188 271.172 65.548 268.652L68.896 264.656C70.912 266.48 72.916 267.392 74.908 267.392C76.228 267.392 77.26 267.08 78.004 266.456C78.748 265.832 79.12 264.956 79.12 263.828C79.12 262.772 78.712 261.944 77.896 261.344C77.08 260.72 76 260.408 74.656 260.408C73.312 260.408 71.908 260.72 70.444 261.344L67.24 259.22L67.96 246.8H83.44V251.66H72.712L72.424 256.016C73.576 255.728 74.68 255.584 75.736 255.584C78.352 255.584 80.476 256.256 82.108 257.6C83.74 258.944 84.556 260.984 84.556 263.72C84.556 266.384 83.68 268.508 81.928 270.092C80.2 271.652 77.884 272.432 74.98 272.432ZM107.88 268.724C105.792 271.196 103.092 272.432 99.7798 272.432C96.4678 272.432 93.7798 271.196 91.7158 268.724C89.6518 266.252 88.6198 263.144 88.6198 259.4C88.6198 255.68 89.6638 252.584 91.7518 250.112C93.8398 247.616 96.5398 246.368 99.8518 246.368C103.14 246.368 105.816 247.604 107.88 250.076C109.968 252.548 111.012 255.656 111.012 259.4C111.012 263.12 109.968 266.228 107.88 268.724ZM95.8198 265.16C96.8518 266.672 98.1958 267.428 99.8518 267.428C101.508 267.428 102.828 266.684 103.812 265.196C104.82 263.684 105.324 261.752 105.324 259.4C105.324 257.096 104.808 255.188 103.776 253.676C102.744 252.14 101.412 251.372 99.7798 251.372C98.1478 251.372 96.8278 252.128 95.8198 253.64C94.8118 255.128 94.3078 257.048 94.3078 259.4C94.3078 261.728 94.8118 263.648 95.8198 265.16ZM121.937 268.292V261.812H115.421V256.844H121.937V250.364H127.049V256.844H133.565V261.812H127.049V268.292H121.937Z" fill="#7247FF"/>
<path d="M74.98 272.432C71.332 272.432 68.188 271.172 65.548 268.652L68.896 264.656C70.912 266.48 72.916 267.392 74.908 267.392C76.228 267.392 77.26 267.08 78.004 266.456C78.748 265.832 79.12 264.956 79.12 263.828C79.12 262.772 78.712 261.944 77.896 261.344C77.08 260.72 76 260.408 74.656 260.408C73.312 260.408 71.908 260.72 70.444 261.344L67.24 259.22L67.96 246.8H83.44V251.66H72.712L72.424 256.016C73.576 255.728 74.68 255.584 75.736 255.584C78.352 255.584 80.476 256.256 82.108 257.6C83.74 258.944 84.556 260.984 84.556 263.72C84.556 266.384 83.68 268.508 81.928 270.092C80.2 271.652 77.884 272.432 74.98 272.432ZM107.88 268.724C105.792 271.196 103.092 272.432 99.7798 272.432C96.4678 272.432 93.7798 271.196 91.7158 268.724C89.6518 266.252 88.6198 263.144 88.6198 259.4C88.6198 255.68 89.6638 252.584 91.7518 250.112C93.8398 247.616 96.5398 246.368 99.8518 246.368C103.14 246.368 105.816 247.604 107.88 250.076C109.968 252.548 111.012 255.656 111.012 259.4C111.012 263.12 109.968 266.228 107.88 268.724ZM95.8198 265.16C96.8518 266.672 98.1958 267.428 99.8518 267.428C101.508 267.428 102.828 266.684 103.812 265.196C104.82 263.684 105.324 261.752 105.324 259.4C105.324 257.096 104.808 255.188 103.776 253.676C102.744 252.14 101.412 251.372 99.7798 251.372C98.1478 251.372 96.8278 252.128 95.8198 253.64C94.8118 255.128 94.3078 257.048 94.3078 259.4C94.3078 261.728 94.8118 263.648 95.8198 265.16ZM121.937 268.292V261.812H115.421V256.844H121.937V250.364H127.049V256.844H133.565V261.812H127.049V268.292H121.937Z" fill="url(#paint8_linear_1301:2)"/>
<path d="M76.534 299.684C75.5913 300.673 74.392 301.168 72.936 301.168C71.48 301.168 70.2853 300.673 69.352 299.684C68.4187 298.695 67.952 297.5 67.952 296.1C67.952 294.709 68.4233 293.519 69.366 292.53C70.3087 291.531 71.508 291.032 72.964 291.032C74.42 291.032 75.6147 291.527 76.548 292.516C77.4813 293.505 77.948 294.7 77.948 296.1C77.948 297.491 77.4767 298.685 76.534 299.684ZM70.192 298.97C70.9293 299.754 71.8533 300.146 72.964 300.146C74.0747 300.146 74.9893 299.759 75.708 298.984C76.436 298.2 76.8 297.239 76.8 296.1C76.8 294.971 76.4313 294.014 75.694 293.23C74.966 292.446 74.0467 292.054 72.936 292.054C71.8253 292.054 70.906 292.446 70.178 293.23C69.4593 294.005 69.1 294.961 69.1 296.1C69.1 297.229 69.464 298.186 70.192 298.97ZM80.0985 301V293.762H86.3705V301H85.2925V294.714H81.1765V301H80.0985ZM88.7802 301V293.762H89.8582V296.478H91.7902C92.6302 296.478 93.3162 296.66 93.8482 297.024C94.3802 297.379 94.6462 297.92 94.6462 298.648C94.6462 299.367 94.3988 299.941 93.9042 300.37C93.4095 300.79 92.7468 301 91.9162 301H88.7802ZM89.8582 300.048H91.8182C92.3688 300.048 92.7935 299.931 93.0922 299.698C93.4002 299.465 93.5542 299.124 93.5542 298.676C93.5542 298.265 93.3955 297.953 93.0782 297.738C92.7702 297.514 92.3362 297.402 91.7762 297.402H89.8582V300.048ZM95.9482 301V293.762H97.0262V301H95.9482ZM101.181 301V294.714H98.5906V293.762H104.863V294.714H102.273V301H101.181ZM106.431 301V293.762H107.509V296.884H111.681V293.762H112.759V301H111.681V297.836H107.509V301H106.431ZM115.167 301V293.762H116.245V296.478H118.177C119.017 296.478 119.703 296.66 120.235 297.024C120.767 297.379 121.033 297.92 121.033 298.648C121.033 299.367 120.786 299.941 120.291 300.37C119.796 300.79 119.134 301 118.303 301H115.167ZM116.245 300.048H118.205C118.756 300.048 119.18 299.931 119.479 299.698C119.787 299.465 119.941 299.124 119.941 298.676C119.941 298.265 119.782 297.953 119.465 297.738C119.157 297.514 118.723 297.402 118.163 297.402H116.245V300.048ZM122.335 301V293.762H123.413V301H122.335ZM125.159 301L128.001 297.318L125.271 293.762H126.503L128.645 296.562L130.787 293.762H131.991L129.247 297.29L132.103 301H130.857L128.617 298.046L126.363 301H125.159ZM74.42 322.168C73.4307 322.168 72.6187 321.851 71.984 321.216C71.3493 320.581 70.9853 319.783 70.892 318.822H69.282V322H68.204V314.762H69.282V317.912H70.892C71.004 316.969 71.3773 316.185 72.012 315.56C72.656 314.925 73.468 314.608 74.448 314.608C75.512 314.608 76.3707 314.972 77.024 315.7C77.6867 316.428 78.018 317.324 78.018 318.388C78.018 319.433 77.6867 320.325 77.024 321.062C76.3613 321.799 75.4933 322.168 74.42 322.168ZM74.448 321.202C75.204 321.202 75.8013 320.936 76.24 320.404C76.6787 319.863 76.898 319.191 76.898 318.388C76.898 317.585 76.6693 316.918 76.212 316.386C75.7547 315.845 75.1573 315.574 74.42 315.574C73.6733 315.574 73.0807 315.845 72.642 316.386C72.2033 316.918 71.984 317.585 71.984 318.388C71.984 319.191 72.208 319.863 72.656 320.404C73.1133 320.936 73.7107 321.202 74.448 321.202ZM79.9618 324.24V314.762H81.0398V316.218C81.7678 315.145 82.6918 314.608 83.8118 314.608C84.7358 314.608 85.5431 314.953 86.2338 315.644C86.9245 316.325 87.2698 317.24 87.2698 318.388C87.2698 319.517 86.9245 320.427 86.2338 321.118C85.5431 321.809 84.7358 322.154 83.8118 322.154C82.6731 322.154 81.7491 321.641 81.0398 320.614V324.24H79.9618ZM83.6158 321.188C84.3438 321.188 84.9505 320.936 85.4358 320.432C85.9211 319.919 86.1638 319.233 86.1638 318.374C86.1638 317.543 85.9165 316.871 85.4218 316.358C84.9271 315.835 84.3251 315.574 83.6158 315.574C82.9158 315.574 82.3045 315.84 81.7818 316.372C81.2591 316.904 80.9978 317.576 80.9978 318.388C80.9978 319.2 81.2591 319.872 81.7818 320.404C82.3045 320.927 82.9158 321.188 83.6158 321.188ZM89.2587 322V314.762H90.3367V320.488L94.6347 314.762H95.6847V322H94.6067V316.274L90.2947 322H89.2587ZM101.353 322.168C100.307 322.168 99.4254 321.799 98.7067 321.062C97.9974 320.315 97.6427 319.424 97.6427 318.388C97.6427 317.352 97.9974 316.465 98.7067 315.728C99.4254 314.981 100.307 314.608 101.353 314.608C102.473 314.608 103.439 315.037 104.251 315.896L103.565 316.624C102.893 315.915 102.151 315.56 101.339 315.56C100.611 315.56 99.9947 315.835 99.4907 316.386C98.9961 316.927 98.7487 317.595 98.7487 318.388C98.7487 319.172 99.0007 319.839 99.5047 320.39C100.018 320.931 100.653 321.202 101.409 321.202C102.183 321.202 102.911 320.838 103.593 320.11L104.307 320.768C103.467 321.701 102.482 322.168 101.353 322.168ZM107.839 322V315.714H105.249V314.762H111.521V315.714H108.931V322H107.839ZM119.095 321.062C118.367 321.799 117.466 322.168 116.393 322.168C115.319 322.168 114.423 321.799 113.705 321.062C112.995 320.325 112.641 319.433 112.641 318.388C112.641 317.352 113 316.465 113.719 315.728C114.447 314.981 115.347 314.608 116.421 314.608C117.494 314.608 118.39 314.977 119.109 315.714C119.827 316.451 120.187 317.343 120.187 318.388C120.187 319.424 119.823 320.315 119.095 321.062ZM116.421 321.202C117.195 321.202 117.83 320.931 118.325 320.39C118.829 319.849 119.081 319.181 119.081 318.388C119.081 317.604 118.819 316.937 118.297 316.386C117.783 315.835 117.149 315.56 116.393 315.56C115.618 315.56 114.983 315.835 114.489 316.386C113.994 316.927 113.747 317.595 113.747 318.388C113.747 319.172 114.003 319.839 114.517 320.39C115.03 320.931 115.665 321.202 116.421 321.202ZM122.14 322V314.762H125.64C126.358 314.762 126.932 314.925 127.362 315.252C127.791 315.579 128.006 316.017 128.006 316.568C128.006 317.343 127.604 317.898 126.802 318.234C127.866 318.523 128.398 319.121 128.398 320.026C128.398 320.633 128.16 321.113 127.684 321.468C127.208 321.823 126.568 322 125.766 322H122.14ZM123.218 321.076H125.626C126.139 321.076 126.545 320.969 126.844 320.754C127.142 320.539 127.292 320.241 127.292 319.858C127.292 319.503 127.133 319.228 126.816 319.032C126.508 318.836 126.064 318.738 125.486 318.738H123.218V321.076ZM123.218 317.87H125.444C125.892 317.87 126.246 317.772 126.508 317.576C126.778 317.371 126.914 317.081 126.914 316.708C126.914 316.4 126.788 316.153 126.536 315.966C126.284 315.779 125.929 315.686 125.472 315.686H123.218V317.87ZM134.54 322V314.762H138.04C138.759 314.762 139.333 314.925 139.762 315.252C140.191 315.579 140.406 316.017 140.406 316.568C140.406 317.343 140.005 317.898 139.202 318.234C140.266 318.523 140.798 319.121 140.798 320.026C140.798 320.633 140.56 321.113 140.084 321.468C139.608 321.823 138.969 322 138.166 322H134.54ZM135.618 321.076H138.026C138.539 321.076 138.945 320.969 139.244 320.754C139.543 320.539 139.692 320.241 139.692 319.858C139.692 319.503 139.533 319.228 139.216 319.032C138.908 318.836 138.465 318.738 137.886 318.738H135.618V321.076ZM135.618 317.87H137.844C138.292 317.87 138.647 317.772 138.908 317.576C139.179 317.371 139.314 317.081 139.314 316.708C139.314 316.4 139.188 316.153 138.936 315.966C138.684 315.779 138.329 315.686 137.872 315.686H135.618V317.87ZM146.94 322V314.762H148.018V321.048H151.546V314.762H152.624V321.048H156.152V314.762H157.244V322H146.94ZM161.405 322V315.714H158.815V314.762H165.087V315.714H162.497V322H161.405ZM168.811 322.154C168.074 322.154 167.439 321.953 166.907 321.552C166.375 321.151 166.109 320.591 166.109 319.872C166.109 319.116 166.389 318.533 166.949 318.122C167.509 317.711 168.261 317.506 169.203 317.506C169.95 317.506 170.687 317.609 171.415 317.814V317.59C171.415 316.955 171.229 316.47 170.855 316.134C170.482 315.798 169.955 315.63 169.273 315.63C168.564 315.63 167.831 315.803 167.075 316.148L166.753 315.266C167.649 314.855 168.527 314.65 169.385 314.65C170.412 314.65 171.191 314.916 171.723 315.448C172.227 315.952 172.479 316.661 172.479 317.576V322H171.415V320.922C170.771 321.743 169.903 322.154 168.811 322.154ZM169.021 321.286C169.693 321.286 170.263 321.104 170.729 320.74C171.196 320.376 171.429 319.909 171.429 319.34V318.668C170.72 318.463 170.015 318.36 169.315 318.36C168.653 318.36 168.135 318.495 167.761 318.766C167.388 319.027 167.201 319.387 167.201 319.844C167.201 320.283 167.374 320.633 167.719 320.894C168.074 321.155 168.508 321.286 169.021 321.286ZM176.513 322V315.714H173.923V314.762H180.195V315.714H177.605V322H176.513ZM184.927 322.168C183.909 322.168 183.051 321.818 182.351 321.118C181.66 320.409 181.315 319.499 181.315 318.388C181.315 317.333 181.646 316.442 182.309 315.714C182.971 314.977 183.797 314.608 184.787 314.608C185.823 314.608 186.644 314.972 187.251 315.7C187.857 316.428 188.161 317.343 188.161 318.444C188.161 318.584 188.156 318.71 188.147 318.822H182.407C182.481 319.559 182.757 320.147 183.233 320.586C183.718 321.015 184.292 321.23 184.955 321.23C185.823 321.23 186.583 320.889 187.237 320.208L187.909 320.81C187.097 321.715 186.103 322.168 184.927 322.168ZM182.407 317.954H187.069C187.003 317.254 186.77 316.675 186.369 316.218C185.977 315.751 185.44 315.518 184.759 315.518C184.143 315.518 183.615 315.747 183.177 316.204C182.738 316.661 182.481 317.245 182.407 317.954Z" fill="#404040"/>
<path d="M275.534 147.684C274.591 148.673 273.392 149.168 271.936 149.168C270.48 149.168 269.285 148.673 268.352 147.684C267.419 146.695 266.952 145.5 266.952 144.1C266.952 142.709 267.423 141.519 268.366 140.53C269.309 139.531 270.508 139.032 271.964 139.032C273.42 139.032 274.615 139.527 275.548 140.516C276.481 141.505 276.948 142.7 276.948 144.1C276.948 145.491 276.477 146.685 275.534 147.684ZM269.192 146.97C269.929 147.754 270.853 148.146 271.964 148.146C273.075 148.146 273.989 147.759 274.708 146.984C275.436 146.2 275.8 145.239 275.8 144.1C275.8 142.971 275.431 142.014 274.694 141.23C273.966 140.446 273.047 140.054 271.936 140.054C270.825 140.054 269.906 140.446 269.178 141.23C268.459 142.005 268.1 142.961 268.1 144.1C268.1 145.229 268.464 146.186 269.192 146.97ZM279.099 149V141.762H285.371V149H284.293V142.714H280.177V149H279.099ZM287.78 149V141.762H288.858V144.478H290.79C291.63 144.478 292.316 144.66 292.848 145.024C293.38 145.379 293.646 145.92 293.646 146.648C293.646 147.367 293.399 147.941 292.904 148.37C292.41 148.79 291.747 149 290.916 149H287.78ZM288.858 148.048H290.818C291.369 148.048 291.794 147.931 292.092 147.698C292.4 147.465 292.554 147.124 292.554 146.676C292.554 146.265 292.396 145.953 292.078 145.738C291.77 145.514 291.336 145.402 290.776 145.402H288.858V148.048ZM294.948 149V141.762H296.026V149H294.948ZM300.181 149V142.714H297.591V141.762H303.863V142.714H301.273V149H300.181ZM305.431 149V141.762H306.509V144.884H310.681V141.762H311.759V149H310.681V145.836H306.509V149H305.431ZM314.167 149V141.762H315.245V144.478H317.177C318.017 144.478 318.703 144.66 319.235 145.024C319.767 145.379 320.033 145.92 320.033 146.648C320.033 147.367 319.786 147.941 319.291 148.37C318.796 148.79 318.134 149 317.303 149H314.167ZM315.245 148.048H317.205C317.756 148.048 318.18 147.931 318.479 147.698C318.787 147.465 318.941 147.124 318.941 146.676C318.941 146.265 318.782 145.953 318.465 145.738C318.157 145.514 317.723 145.402 317.163 145.402H315.245V148.048ZM321.335 149V141.762H322.413V149H321.335ZM324.159 149L327.001 145.318L324.271 141.762H325.503L327.645 144.562L329.787 141.762H330.991L328.247 145.29L331.103 149H329.857L327.617 146.046L325.363 149H324.159ZM273.42 170.168C272.431 170.168 271.619 169.851 270.984 169.216C270.349 168.581 269.985 167.783 269.892 166.822H268.282V170H267.204V162.762H268.282V165.912H269.892C270.004 164.969 270.377 164.185 271.012 163.56C271.656 162.925 272.468 162.608 273.448 162.608C274.512 162.608 275.371 162.972 276.024 163.7C276.687 164.428 277.018 165.324 277.018 166.388C277.018 167.433 276.687 168.325 276.024 169.062C275.361 169.799 274.493 170.168 273.42 170.168ZM273.448 169.202C274.204 169.202 274.801 168.936 275.24 168.404C275.679 167.863 275.898 167.191 275.898 166.388C275.898 165.585 275.669 164.918 275.212 164.386C274.755 163.845 274.157 163.574 273.42 163.574C272.673 163.574 272.081 163.845 271.642 164.386C271.203 164.918 270.984 165.585 270.984 166.388C270.984 167.191 271.208 167.863 271.656 168.404C272.113 168.936 272.711 169.202 273.448 169.202ZM278.962 172.24V162.762H280.04V164.218C280.768 163.145 281.692 162.608 282.812 162.608C283.736 162.608 284.543 162.953 285.234 163.644C285.924 164.325 286.27 165.24 286.27 166.388C286.27 167.517 285.924 168.427 285.234 169.118C284.543 169.809 283.736 170.154 282.812 170.154C281.673 170.154 280.749 169.641 280.04 168.614V172.24H278.962ZM282.616 169.188C283.344 169.188 283.95 168.936 284.436 168.432C284.921 167.919 285.164 167.233 285.164 166.374C285.164 165.543 284.916 164.871 284.422 164.358C283.927 163.835 283.325 163.574 282.616 163.574C281.916 163.574 281.304 163.84 280.782 164.372C280.259 164.904 279.998 165.576 279.998 166.388C279.998 167.2 280.259 167.872 280.782 168.404C281.304 168.927 281.916 169.188 282.616 169.188ZM288.259 170V162.762H289.337V168.488L293.635 162.762H294.685V170H293.607V164.274L289.295 170H288.259ZM300.353 170.168C299.307 170.168 298.425 169.799 297.707 169.062C296.997 168.315 296.643 167.424 296.643 166.388C296.643 165.352 296.997 164.465 297.707 163.728C298.425 162.981 299.307 162.608 300.353 162.608C301.473 162.608 302.439 163.037 303.251 163.896L302.565 164.624C301.893 163.915 301.151 163.56 300.339 163.56C299.611 163.56 298.995 163.835 298.491 164.386C297.996 164.927 297.749 165.595 297.749 166.388C297.749 167.172 298.001 167.839 298.505 168.39C299.018 168.931 299.653 169.202 300.409 169.202C301.183 169.202 301.911 168.838 302.593 168.11L303.307 168.768C302.467 169.701 301.482 170.168 300.353 170.168ZM306.839 170V163.714H304.249V162.762H310.521V163.714H307.931V170H306.839ZM318.095 169.062C317.367 169.799 316.466 170.168 315.393 170.168C314.319 170.168 313.423 169.799 312.705 169.062C311.995 168.325 311.641 167.433 311.641 166.388C311.641 165.352 312 164.465 312.719 163.728C313.447 162.981 314.347 162.608 315.421 162.608C316.494 162.608 317.39 162.977 318.109 163.714C318.827 164.451 319.187 165.343 319.187 166.388C319.187 167.424 318.823 168.315 318.095 169.062ZM315.421 169.202C316.195 169.202 316.83 168.931 317.325 168.39C317.829 167.849 318.081 167.181 318.081 166.388C318.081 165.604 317.819 164.937 317.297 164.386C316.783 163.835 316.149 163.56 315.393 163.56C314.618 163.56 313.983 163.835 313.489 164.386C312.994 164.927 312.747 165.595 312.747 166.388C312.747 167.172 313.003 167.839 313.517 168.39C314.03 168.931 314.665 169.202 315.421 169.202ZM321.14 170V162.762H324.64C325.358 162.762 325.932 162.925 326.362 163.252C326.791 163.579 327.006 164.017 327.006 164.568C327.006 165.343 326.604 165.898 325.802 166.234C326.866 166.523 327.398 167.121 327.398 168.026C327.398 168.633 327.16 169.113 326.684 169.468C326.208 169.823 325.568 170 324.766 170H321.14ZM322.218 169.076H324.626C325.139 169.076 325.545 168.969 325.844 168.754C326.142 168.539 326.292 168.241 326.292 167.858C326.292 167.503 326.133 167.228 325.816 167.032C325.508 166.836 325.064 166.738 324.486 166.738H322.218V169.076ZM322.218 165.87H324.444C324.892 165.87 325.246 165.772 325.508 165.576C325.778 165.371 325.914 165.081 325.914 164.708C325.914 164.4 325.788 164.153 325.536 163.966C325.284 163.779 324.929 163.686 324.472 163.686H322.218V165.87ZM333.54 170V162.762H337.04C337.759 162.762 338.333 162.925 338.762 163.252C339.191 163.579 339.406 164.017 339.406 164.568C339.406 165.343 339.005 165.898 338.202 166.234C339.266 166.523 339.798 167.121 339.798 168.026C339.798 168.633 339.56 169.113 339.084 169.468C338.608 169.823 337.969 170 337.166 170H333.54ZM334.618 169.076H337.026C337.539 169.076 337.945 168.969 338.244 168.754C338.543 168.539 338.692 168.241 338.692 167.858C338.692 167.503 338.533 167.228 338.216 167.032C337.908 166.836 337.465 166.738 336.886 166.738H334.618V169.076ZM334.618 165.87H336.844C337.292 165.87 337.647 165.772 337.908 165.576C338.179 165.371 338.314 165.081 338.314 164.708C338.314 164.4 338.188 164.153 337.936 163.966C337.684 163.779 337.329 163.686 336.872 163.686H334.618V165.87ZM345.94 170V162.762H347.018V169.048H350.546V162.762H351.624V169.048H355.152V162.762H356.244V170H345.94ZM360.405 170V163.714H357.815V162.762H364.087V163.714H361.497V170H360.405ZM367.811 170.154C367.074 170.154 366.439 169.953 365.907 169.552C365.375 169.151 365.109 168.591 365.109 167.872C365.109 167.116 365.389 166.533 365.949 166.122C366.509 165.711 367.261 165.506 368.203 165.506C368.95 165.506 369.687 165.609 370.415 165.814V165.59C370.415 164.955 370.229 164.47 369.855 164.134C369.482 163.798 368.955 163.63 368.273 163.63C367.564 163.63 366.831 163.803 366.075 164.148L365.753 163.266C366.649 162.855 367.527 162.65 368.385 162.65C369.412 162.65 370.191 162.916 370.723 163.448C371.227 163.952 371.479 164.661 371.479 165.576V170H370.415V168.922C369.771 169.743 368.903 170.154 367.811 170.154ZM368.021 169.286C368.693 169.286 369.263 169.104 369.729 168.74C370.196 168.376 370.429 167.909 370.429 167.34V166.668C369.72 166.463 369.015 166.36 368.315 166.36C367.653 166.36 367.135 166.495 366.761 166.766C366.388 167.027 366.201 167.387 366.201 167.844C366.201 168.283 366.374 168.633 366.719 168.894C367.074 169.155 367.508 169.286 368.021 169.286ZM375.513 170V163.714H372.923V162.762H379.195V163.714H376.605V170H375.513ZM383.927 170.168C382.909 170.168 382.051 169.818 381.351 169.118C380.66 168.409 380.315 167.499 380.315 166.388C380.315 165.333 380.646 164.442 381.309 163.714C381.971 162.977 382.797 162.608 383.787 162.608C384.823 162.608 385.644 162.972 386.251 163.7C386.857 164.428 387.161 165.343 387.161 166.444C387.161 166.584 387.156 166.71 387.147 166.822H381.407C381.481 167.559 381.757 168.147 382.233 168.586C382.718 169.015 383.292 169.23 383.955 169.23C384.823 169.23 385.583 168.889 386.237 168.208L386.909 168.81C386.097 169.715 385.103 170.168 383.927 170.168ZM381.407 165.954H386.069C386.003 165.254 385.77 164.675 385.369 164.218C384.977 163.751 384.44 163.518 383.759 163.518C383.143 163.518 382.615 163.747 382.177 164.204C381.738 164.661 381.481 165.245 381.407 165.954Z" fill="#404040"/>
<path d="M272.408 120V100.236L268.016 101.316L266.864 96.78L274.1 94.62H277.88V120H272.408ZM292.168 120.432C288.52 120.432 285.376 119.172 282.736 116.652L286.084 112.656C288.1 114.48 290.104 115.392 292.096 115.392C293.416 115.392 294.448 115.08 295.192 114.456C295.936 113.832 296.308 112.956 296.308 111.828C296.308 110.772 295.9 109.944 295.084 109.344C294.268 108.72 293.188 108.408 291.844 108.408C290.5 108.408 289.096 108.72 287.632 109.344L284.428 107.22L285.148 94.8H300.628V99.66H289.9L289.612 104.016C290.764 103.728 291.868 103.584 292.924 103.584C295.54 103.584 297.664 104.256 299.296 105.6C300.928 106.944 301.744 108.984 301.744 111.72C301.744 114.384 300.868 116.508 299.116 118.092C297.388 119.652 295.072 120.432 292.168 120.432Z" fill="#7247FF"/>
<path d="M272.408 120V100.236L268.016 101.316L266.864 96.78L274.1 94.62H277.88V120H272.408ZM292.168 120.432C288.52 120.432 285.376 119.172 282.736 116.652L286.084 112.656C288.1 114.48 290.104 115.392 292.096 115.392C293.416 115.392 294.448 115.08 295.192 114.456C295.936 113.832 296.308 112.956 296.308 111.828C296.308 110.772 295.9 109.944 295.084 109.344C294.268 108.72 293.188 108.408 291.844 108.408C290.5 108.408 289.096 108.72 287.632 109.344L284.428 107.22L285.148 94.8H300.628V99.66H289.9L289.612 104.016C290.764 103.728 291.868 103.584 292.924 103.584C295.54 103.584 297.664 104.256 299.296 105.6C300.928 106.944 301.744 108.984 301.744 111.72C301.744 114.384 300.868 116.508 299.116 118.092C297.388 119.652 295.072 120.432 292.168 120.432Z" fill="url(#paint9_linear_1301:2)"/>
<path d="M311.143 111.424H318.039V120H315.607V113.504H313.431C313.431 114.635 313.389 115.589 313.303 116.368C313.218 117.147 313.101 117.781 312.951 118.272C312.802 118.763 312.594 119.141 312.327 119.408C312.061 119.675 311.773 119.856 311.463 119.952C311.154 120.048 310.77 120.096 310.311 120.096C309.874 120.096 309.463 120.048 309.079 119.952L309.239 117.984C309.431 118.016 309.602 118.032 309.751 118.032C310.007 118.032 310.21 117.973 310.359 117.856C310.509 117.728 310.647 117.451 310.775 117.024C310.914 116.587 311.01 115.92 311.063 115.024C311.117 114.117 311.143 112.917 311.143 111.424ZM324.277 120.192C322.976 120.192 321.904 119.781 321.061 118.96C320.218 118.128 319.797 117.051 319.797 115.728C319.797 114.48 320.197 113.424 320.997 112.56C321.797 111.696 322.81 111.264 324.037 111.264C325.392 111.264 326.426 111.712 327.141 112.608C327.856 113.504 328.213 114.608 328.213 115.92C328.213 116.048 328.202 116.261 328.181 116.56H322.213C322.33 117.104 322.57 117.52 322.933 117.808C323.296 118.096 323.754 118.24 324.309 118.24C325.066 118.24 325.76 117.947 326.389 117.36L327.781 118.592C326.917 119.659 325.749 120.192 324.277 120.192ZM322.181 115.04H325.845C325.77 114.485 325.573 114.043 325.253 113.712C324.944 113.381 324.538 113.216 324.037 113.216C323.546 113.216 323.136 113.381 322.805 113.712C322.485 114.032 322.277 114.475 322.181 115.04ZM336.73 111.424V113.504H334.186V120H331.722V113.504H329.178V111.424H336.73Z" fill="#7247FF"/>
<path d="M311.143 111.424H318.039V120H315.607V113.504H313.431C313.431 114.635 313.389 115.589 313.303 116.368C313.218 117.147 313.101 117.781 312.951 118.272C312.802 118.763 312.594 119.141 312.327 119.408C312.061 119.675 311.773 119.856 311.463 119.952C311.154 120.048 310.77 120.096 310.311 120.096C309.874 120.096 309.463 120.048 309.079 119.952L309.239 117.984C309.431 118.016 309.602 118.032 309.751 118.032C310.007 118.032 310.21 117.973 310.359 117.856C310.509 117.728 310.647 117.451 310.775 117.024C310.914 116.587 311.01 115.92 311.063 115.024C311.117 114.117 311.143 112.917 311.143 111.424ZM324.277 120.192C322.976 120.192 321.904 119.781 321.061 118.96C320.218 118.128 319.797 117.051 319.797 115.728C319.797 114.48 320.197 113.424 320.997 112.56C321.797 111.696 322.81 111.264 324.037 111.264C325.392 111.264 326.426 111.712 327.141 112.608C327.856 113.504 328.213 114.608 328.213 115.92C328.213 116.048 328.202 116.261 328.181 116.56H322.213C322.33 117.104 322.57 117.52 322.933 117.808C323.296 118.096 323.754 118.24 324.309 118.24C325.066 118.24 325.76 117.947 326.389 117.36L327.781 118.592C326.917 119.659 325.749 120.192 324.277 120.192ZM322.181 115.04H325.845C325.77 114.485 325.573 114.043 325.253 113.712C324.944 113.381 324.538 113.216 324.037 113.216C323.546 113.216 323.136 113.381 322.805 113.712C322.485 114.032 322.277 114.475 322.181 115.04ZM336.73 111.424V113.504H334.186V120H331.722V113.504H329.178V111.424H336.73Z" fill="url(#paint10_linear_1301:2)"/>
<rect x="242" y="216" width="192" height="171" rx="10" fill="url(#paint11_linear_1301:2)"/>
<path d="M279.866 309.168C278.457 309.168 277.285 308.683 276.352 307.712C275.419 306.732 274.952 305.528 274.952 304.1C274.952 302.691 275.423 301.496 276.366 300.516C277.309 299.527 278.489 299.032 279.908 299.032C280.729 299.032 281.429 299.167 282.008 299.438C282.587 299.699 283.151 300.091 283.702 300.614L282.974 301.398C282.031 300.502 281.005 300.054 279.894 300.054C278.811 300.054 277.906 300.441 277.178 301.216C276.459 301.991 276.1 302.952 276.1 304.1C276.1 305.239 276.464 306.2 277.192 306.984C277.92 307.759 278.821 308.146 279.894 308.146C280.529 308.146 281.089 308.029 281.574 307.796C282.059 307.563 282.554 307.208 283.058 306.732L283.786 307.502C283.235 308.053 282.657 308.468 282.05 308.748C281.443 309.028 280.715 309.168 279.866 309.168ZM285.54 309V301.762H286.618V307.488L290.916 301.762H291.966V309H290.888V303.274L286.576 309H285.54ZM297.634 309.168C296.589 309.168 295.707 308.799 294.988 308.062C294.279 307.315 293.924 306.424 293.924 305.388C293.924 304.352 294.279 303.465 294.988 302.728C295.707 301.981 296.589 301.608 297.634 301.608C298.754 301.608 299.72 302.037 300.532 302.896L299.846 303.624C299.174 302.915 298.432 302.56 297.62 302.56C296.892 302.56 296.276 302.835 295.772 303.386C295.277 303.927 295.03 304.595 295.03 305.388C295.03 306.172 295.282 306.839 295.786 307.39C296.299 307.931 296.934 308.202 297.69 308.202C298.465 308.202 299.193 307.838 299.874 307.11L300.588 307.768C299.748 308.701 298.763 309.168 297.634 309.168ZM304.12 309V302.714H301.53V301.762H307.802V302.714H305.212V309H304.12ZM312.534 309.168C311.517 309.168 310.658 308.818 309.958 308.118C309.267 307.409 308.922 306.499 308.922 305.388C308.922 304.333 309.253 303.442 309.916 302.714C310.579 301.977 311.405 301.608 312.394 301.608C313.43 301.608 314.251 301.972 314.858 302.7C315.465 303.428 315.768 304.343 315.768 305.444C315.768 305.584 315.763 305.71 315.754 305.822H310.014C310.089 306.559 310.364 307.147 310.84 307.586C311.325 308.015 311.899 308.23 312.562 308.23C313.43 308.23 314.191 307.889 314.844 307.208L315.516 307.81C314.704 308.715 313.71 309.168 312.534 309.168ZM310.014 304.954H314.676C314.611 304.254 314.377 303.675 313.976 303.218C313.584 302.751 313.047 302.518 312.366 302.518C311.75 302.518 311.223 302.747 310.784 303.204C310.345 303.661 310.089 304.245 310.014 304.954ZM317.655 309V301.762H318.677L321.379 305.57L324.081 301.762H325.117V309H324.025V303.484L321.351 307.152L318.705 303.484V309H317.655ZM329.682 309.154C328.945 309.154 328.31 308.953 327.778 308.552C327.246 308.151 326.98 307.591 326.98 306.872C326.98 306.116 327.26 305.533 327.82 305.122C328.38 304.711 329.132 304.506 330.074 304.506C330.821 304.506 331.558 304.609 332.286 304.814V304.59C332.286 303.955 332.1 303.47 331.726 303.134C331.353 302.798 330.826 302.63 330.144 302.63C329.435 302.63 328.702 302.803 327.946 303.148L327.624 302.266C328.52 301.855 329.398 301.65 330.256 301.65C331.283 301.65 332.062 301.916 332.594 302.448C333.098 302.952 333.35 303.661 333.35 304.576V309H332.286V307.922C331.642 308.743 330.774 309.154 329.682 309.154ZM329.892 308.286C330.564 308.286 331.134 308.104 331.6 307.74C332.067 307.376 332.3 306.909 332.3 306.34V305.668C331.591 305.463 330.886 305.36 330.186 305.36C329.524 305.36 329.006 305.495 328.632 305.766C328.259 306.027 328.072 306.387 328.072 306.844C328.072 307.283 328.245 307.633 328.59 307.894C328.945 308.155 329.379 308.286 329.892 308.286ZM339.831 309V301.762H340.909V304.884H345.081V301.762H346.159V309H345.081V305.836H340.909V309H339.831ZM350.723 309.154C349.986 309.154 349.351 308.953 348.819 308.552C348.287 308.151 348.021 307.591 348.021 306.872C348.021 306.116 348.301 305.533 348.861 305.122C349.421 304.711 350.173 304.506 351.115 304.506C351.862 304.506 352.599 304.609 353.327 304.814V304.59C353.327 303.955 353.141 303.47 352.767 303.134C352.394 302.798 351.867 302.63 351.185 302.63C350.476 302.63 349.743 302.803 348.987 303.148L348.665 302.266C349.561 301.855 350.439 301.65 351.297 301.65C352.324 301.65 353.103 301.916 353.635 302.448C354.139 302.952 354.391 303.661 354.391 304.576V309H353.327V307.922C352.683 308.743 351.815 309.154 350.723 309.154ZM350.933 308.286C351.605 308.286 352.175 308.104 352.641 307.74C353.108 307.376 353.341 306.909 353.341 306.34V305.668C352.632 305.463 351.927 305.36 351.227 305.36C350.565 305.36 350.047 305.495 349.673 305.766C349.3 306.027 349.113 306.387 349.113 306.844C349.113 307.283 349.286 307.633 349.631 307.894C349.986 308.155 350.42 308.286 350.933 308.286ZM364.274 309.168C363.163 309.168 362.272 308.804 361.6 308.076C360.937 307.339 360.606 306.345 360.606 305.094C360.606 304.637 360.615 304.249 360.634 303.932C360.653 303.605 360.69 303.246 360.746 302.854C360.802 302.462 360.891 302.126 361.012 301.846C361.133 301.566 361.287 301.291 361.474 301.02C361.67 300.749 361.922 300.521 362.23 300.334C362.538 300.147 362.897 300.007 363.308 299.914L367.34 298.962L367.55 299.872L363.63 300.838C362.902 301.025 362.379 301.323 362.062 301.734C361.754 302.135 361.572 302.695 361.516 303.414C362.132 302.369 363.131 301.846 364.512 301.846C365.464 301.846 366.281 302.201 366.962 302.91C367.643 303.61 367.984 304.455 367.984 305.444C367.984 306.471 367.629 307.348 366.92 308.076C366.211 308.804 365.329 309.168 364.274 309.168ZM364.302 308.202C365.039 308.202 365.651 307.941 366.136 307.418C366.621 306.886 366.864 306.237 366.864 305.472C366.864 304.716 366.612 304.072 366.108 303.54C365.613 303.008 365.002 302.742 364.274 302.742C363.537 302.742 362.925 303.008 362.44 303.54C361.955 304.063 361.712 304.707 361.712 305.472C361.712 306.228 361.959 306.872 362.454 307.404C362.958 307.936 363.574 308.202 364.302 308.202ZM372.092 309.154C371.355 309.154 370.72 308.953 370.188 308.552C369.656 308.151 369.39 307.591 369.39 306.872C369.39 306.116 369.67 305.533 370.23 305.122C370.79 304.711 371.542 304.506 372.484 304.506C373.231 304.506 373.968 304.609 374.696 304.814V304.59C374.696 303.955 374.51 303.47 374.136 303.134C373.763 302.798 373.236 302.63 372.554 302.63C371.845 302.63 371.112 302.803 370.356 303.148L370.034 302.266C370.93 301.855 371.808 301.65 372.666 301.65C373.693 301.65 374.472 301.916 375.004 302.448C375.508 302.952 375.76 303.661 375.76 304.576V309H374.696V307.922C374.052 308.743 373.184 309.154 372.092 309.154ZM372.302 308.286C372.974 308.286 373.544 308.104 374.01 307.74C374.477 307.376 374.71 306.909 374.71 306.34V305.668C374.001 305.463 373.296 305.36 372.596 305.36C371.934 305.36 371.416 305.495 371.042 305.766C370.669 306.027 370.482 306.387 370.482 306.844C370.482 307.283 370.655 307.633 371 307.894C371.355 308.155 371.789 308.286 372.302 308.286ZM380.34 309.168C379.229 309.168 378.231 308.809 377.344 308.09L377.89 307.292C378.627 307.917 379.435 308.23 380.312 308.23C380.807 308.23 381.227 308.118 381.572 307.894C381.927 307.661 382.104 307.343 382.104 306.942C382.104 306.569 381.945 306.279 381.628 306.074C381.311 305.859 380.863 305.752 380.284 305.752H379.318V304.87H380.298C380.774 304.87 381.161 304.758 381.46 304.534C381.759 304.301 381.908 303.997 381.908 303.624C381.908 303.297 381.759 303.036 381.46 302.84C381.171 302.644 380.797 302.546 380.34 302.546C379.481 302.546 378.749 302.789 378.142 303.274L377.61 302.518C378.394 301.911 379.327 301.608 380.41 301.608C381.213 301.608 381.847 301.79 382.314 302.154C382.79 302.509 383.028 302.971 383.028 303.54C383.028 304.333 382.641 304.889 381.866 305.206C382.762 305.523 383.21 306.116 383.21 306.984C383.21 307.591 382.949 308.109 382.426 308.538C381.903 308.958 381.208 309.168 380.34 309.168ZM388.372 309.168C387.355 309.168 386.496 308.818 385.796 308.118C385.105 307.409 384.76 306.499 384.76 305.388C384.76 304.333 385.091 303.442 385.754 302.714C386.417 301.977 387.243 301.608 388.232 301.608C389.268 301.608 390.089 301.972 390.696 302.7C391.303 303.428 391.606 304.343 391.606 305.444C391.606 305.584 391.601 305.71 391.592 305.822H385.852C385.927 306.559 386.202 307.147 386.678 307.586C387.163 308.015 387.737 308.23 388.4 308.23C389.268 308.23 390.029 307.889 390.682 307.208L391.354 307.81C390.542 308.715 389.548 309.168 388.372 309.168ZM385.852 304.954H390.514C390.449 304.254 390.215 303.675 389.814 303.218C389.422 302.751 388.885 302.518 388.204 302.518C387.588 302.518 387.061 302.747 386.622 303.204C386.183 303.661 385.927 304.245 385.852 304.954ZM275.204 330V322.762H276.282V328.488L280.58 322.762H281.63V330H280.552V324.274L276.24 330H275.204ZM287.298 330.168C286.253 330.168 285.371 329.799 284.652 329.062C283.943 328.315 283.588 327.424 283.588 326.388C283.588 325.352 283.943 324.465 284.652 323.728C285.371 322.981 286.253 322.608 287.298 322.608C288.418 322.608 289.384 323.037 290.196 323.896L289.51 324.624C288.838 323.915 288.096 323.56 287.284 323.56C286.556 323.56 285.94 323.835 285.436 324.386C284.941 324.927 284.694 325.595 284.694 326.388C284.694 327.172 284.946 327.839 285.45 328.39C285.963 328.931 286.598 329.202 287.354 329.202C288.129 329.202 288.857 328.838 289.538 328.11L290.252 328.768C289.412 329.701 288.427 330.168 287.298 330.168ZM292.034 330V322.762H293.112V326.934L297.074 322.762H298.404L295.38 325.898L298.488 330H297.214L294.638 326.682L293.112 328.25V330H292.034ZM301.097 332.282C300.575 332.282 300.061 332.161 299.557 331.918L299.921 331.064C300.267 331.241 300.645 331.33 301.055 331.33C301.382 331.33 301.657 331.227 301.881 331.022C302.105 330.826 302.325 330.476 302.539 329.972L299.249 322.762H300.439L303.071 328.796L305.395 322.762H306.543L303.505 330.238C303.197 330.975 302.857 331.498 302.483 331.806C302.11 332.123 301.648 332.282 301.097 332.282ZM311.511 330.168C310.466 330.168 309.584 329.799 308.865 329.062C308.156 328.315 307.801 327.424 307.801 326.388C307.801 325.352 308.156 324.465 308.865 323.728C309.584 322.981 310.466 322.608 311.511 322.608C312.631 322.608 313.597 323.037 314.409 323.896L313.723 324.624C313.051 323.915 312.309 323.56 311.497 323.56C310.769 323.56 310.153 323.835 309.649 324.386C309.154 324.927 308.907 325.595 308.907 326.388C308.907 327.172 309.159 327.839 309.663 328.39C310.176 328.931 310.811 329.202 311.567 329.202C312.342 329.202 313.07 328.838 313.751 328.11L314.465 328.768C313.625 329.701 312.64 330.168 311.511 330.168ZM319.509 330.168C318.464 330.168 317.582 329.799 316.863 329.062C316.154 328.315 315.799 327.424 315.799 326.388C315.799 325.352 316.154 324.465 316.863 323.728C317.582 322.981 318.464 322.608 319.509 322.608C320.629 322.608 321.595 323.037 322.407 323.896L321.721 324.624C321.049 323.915 320.307 323.56 319.495 323.56C318.767 323.56 318.151 323.835 317.647 324.386C317.152 324.927 316.905 325.595 316.905 326.388C316.905 327.172 317.157 327.839 317.661 328.39C318.174 328.931 318.809 329.202 319.565 329.202C320.34 329.202 321.068 328.838 321.749 328.11L322.463 328.768C321.623 329.701 320.638 330.168 319.509 330.168ZM325.995 330V323.714H323.405V322.762H329.677V323.714H327.087V330H325.995ZM331.245 330V322.762H334.745C335.464 322.762 336.038 322.925 336.467 323.252C336.896 323.579 337.111 324.017 337.111 324.568C337.111 325.343 336.71 325.898 335.907 326.234C336.971 326.523 337.503 327.121 337.503 328.026C337.503 328.633 337.265 329.113 336.789 329.468C336.313 329.823 335.674 330 334.871 330H331.245ZM332.323 329.076H334.731C335.244 329.076 335.65 328.969 335.949 328.754C336.248 328.539 336.397 328.241 336.397 327.858C336.397 327.503 336.238 327.228 335.921 327.032C335.613 326.836 335.17 326.738 334.591 326.738H332.323V329.076ZM332.323 325.87H334.549C334.997 325.87 335.352 325.772 335.613 325.576C335.884 325.371 336.019 325.081 336.019 324.708C336.019 324.4 335.893 324.153 335.641 323.966C335.389 323.779 335.034 323.686 334.577 323.686H332.323V325.87ZM342.612 330.168C341.595 330.168 340.736 329.818 340.036 329.118C339.345 328.409 339 327.499 339 326.388C339 325.333 339.331 324.442 339.994 323.714C340.657 322.977 341.483 322.608 342.472 322.608C343.508 322.608 344.329 322.972 344.936 323.7C345.543 324.428 345.846 325.343 345.846 326.444C345.846 326.584 345.841 326.71 345.832 326.822H340.092C340.167 327.559 340.442 328.147 340.918 328.586C341.403 329.015 341.977 329.23 342.64 329.23C343.508 329.23 344.269 328.889 344.922 328.208L345.594 328.81C344.782 329.715 343.788 330.168 342.612 330.168ZM340.092 325.954H344.754C344.689 325.254 344.455 324.675 344.054 324.218C343.662 323.751 343.125 323.518 342.444 323.518C341.828 323.518 341.301 323.747 340.862 324.204C340.423 324.661 340.167 325.245 340.092 325.954ZM347.733 330V322.762H348.811V325.884H352.983V322.762H354.061V330H352.983V326.836H348.811V330H347.733ZM356.47 330V322.762H357.548V325.884H361.72V322.762H362.798V330H361.72V326.836H357.548V330H356.47ZM371.212 329.062C370.484 329.799 369.583 330.168 368.51 330.168C367.437 330.168 366.541 329.799 365.822 329.062C365.113 328.325 364.758 327.433 364.758 326.388C364.758 325.352 365.117 324.465 365.836 323.728C366.564 322.981 367.465 322.608 368.538 322.608C369.611 322.608 370.507 322.977 371.226 323.714C371.945 324.451 372.304 325.343 372.304 326.388C372.304 327.424 371.94 328.315 371.212 329.062ZM368.538 329.202C369.313 329.202 369.947 328.931 370.442 328.39C370.946 327.849 371.198 327.181 371.198 326.388C371.198 325.604 370.937 324.937 370.414 324.386C369.901 323.835 369.266 323.56 368.51 323.56C367.735 323.56 367.101 323.835 366.606 324.386C366.111 324.927 365.864 325.595 365.864 326.388C365.864 327.172 366.121 327.839 366.634 328.39C367.147 328.931 367.782 329.202 368.538 329.202ZM374.257 330V322.762H379.171V323.714H375.335V330H374.257ZM386.743 329.062C386.015 329.799 385.115 330.168 384.041 330.168C382.968 330.168 382.072 329.799 381.353 329.062C380.644 328.325 380.289 327.433 380.289 326.388C380.289 325.352 380.649 324.465 381.367 323.728C382.095 322.981 382.996 322.608 384.069 322.608C385.143 322.608 386.039 322.977 386.757 323.714C387.476 324.451 387.835 325.343 387.835 326.388C387.835 327.424 387.471 328.315 386.743 329.062ZM384.069 329.202C384.844 329.202 385.479 328.931 385.973 328.39C386.477 327.849 386.729 327.181 386.729 326.388C386.729 325.604 386.468 324.937 385.945 324.386C385.432 323.835 384.797 323.56 384.041 323.56C383.267 323.56 382.632 323.835 382.137 324.386C381.643 324.927 381.395 325.595 381.395 326.388C381.395 327.172 381.652 327.839 382.165 328.39C382.679 328.931 383.313 329.202 384.069 329.202ZM275.204 351V343.762H276.282V349.488L280.58 343.762H281.63V351H280.552V345.274L276.24 351H275.204ZM284.036 351V343.762H285.114V346.884H289.286V343.762H290.364V351H289.286V347.836H285.114V351H284.036ZM294.522 351V344.714H291.932V343.762H298.204V344.714H295.614V351H294.522ZM302.936 351.168C301.919 351.168 301.06 350.818 300.36 350.118C299.67 349.409 299.324 348.499 299.324 347.388C299.324 346.333 299.656 345.442 300.318 344.714C300.981 343.977 301.807 343.608 302.796 343.608C303.832 343.608 304.654 343.972 305.26 344.7C305.867 345.428 306.17 346.343 306.17 347.444C306.17 347.584 306.166 347.71 306.156 347.822H300.416C300.491 348.559 300.766 349.147 301.242 349.586C301.728 350.015 302.302 350.23 302.964 350.23C303.832 350.23 304.593 349.889 305.246 349.208L305.918 349.81C305.106 350.715 304.112 351.168 302.936 351.168ZM300.416 346.954H305.078C305.013 346.254 304.78 345.675 304.378 345.218C303.986 344.751 303.45 344.518 302.768 344.518C302.152 344.518 301.625 344.747 301.186 345.204C300.748 345.661 300.491 346.245 300.416 346.954ZM307.708 351.112C307.428 351.112 307.138 351.075 306.84 351L306.966 350.076C307.18 350.141 307.353 350.174 307.484 350.174C307.689 350.174 307.857 350.151 307.988 350.104C308.118 350.048 308.258 349.913 308.408 349.698C308.566 349.474 308.688 349.161 308.772 348.76C308.856 348.359 308.926 347.789 308.982 347.052C309.047 346.315 309.08 345.419 309.08 344.364V343.762H314.204V351H313.126V344.714H310.102V344.882C310.102 345.983 310.06 346.921 309.976 347.696C309.892 348.471 309.784 349.077 309.654 349.516C309.532 349.955 309.36 350.295 309.136 350.538C308.912 350.781 308.692 350.935 308.478 351C308.272 351.075 308.016 351.112 307.708 351.112ZM316.266 351.112C315.986 351.112 315.697 351.075 315.398 351L315.524 350.076C315.739 350.141 315.911 350.174 316.042 350.174C316.247 350.174 316.415 350.151 316.546 350.104C316.677 350.048 316.817 349.913 316.966 349.698C317.125 349.474 317.246 349.161 317.33 348.76C317.414 348.359 317.484 347.789 317.54 347.052C317.605 346.315 317.638 345.419 317.638 344.364V343.762H322.762V351H321.684V344.714H318.66V344.882C318.66 345.983 318.618 346.921 318.534 347.696C318.45 348.471 318.343 349.077 318.212 349.516C318.091 349.955 317.918 350.295 317.694 350.538C317.47 350.781 317.251 350.935 317.036 351C316.831 351.075 316.574 351.112 316.266 351.112ZM328.339 351.168C327.321 351.168 326.463 350.818 325.763 350.118C325.072 349.409 324.727 348.499 324.727 347.388C324.727 346.333 325.058 345.442 325.721 344.714C326.383 343.977 327.209 343.608 328.199 343.608C329.235 343.608 330.056 343.972 330.663 344.7C331.269 345.428 331.573 346.343 331.573 347.444C331.573 347.584 331.568 347.71 331.559 347.822H325.819C325.893 348.559 326.169 349.147 326.645 349.586C327.13 350.015 327.704 350.23 328.367 350.23C329.235 350.23 329.995 349.889 330.649 349.208L331.321 349.81C330.509 350.715 329.515 351.168 328.339 351.168ZM325.819 346.954H330.481C330.415 346.254 330.182 345.675 329.781 345.218C329.389 344.751 328.852 344.518 328.171 344.518C327.555 344.518 327.027 344.747 326.589 345.204C326.15 345.661 325.893 346.245 325.819 346.954ZM333.46 351V343.762H334.538V347.934L338.5 343.762H339.83L336.806 346.898L339.914 351H338.64L336.064 347.682L334.538 349.25V351H333.46ZM343.153 351V344.714H340.563V343.762H346.835V344.714H344.245V351H343.153ZM350.559 351.154C349.822 351.154 349.187 350.953 348.655 350.552C348.123 350.151 347.857 349.591 347.857 348.872C347.857 348.116 348.137 347.533 348.697 347.122C349.257 346.711 350.009 346.506 350.951 346.506C351.698 346.506 352.435 346.609 353.163 346.814V346.59C353.163 345.955 352.977 345.47 352.603 345.134C352.23 344.798 351.703 344.63 351.021 344.63C350.312 344.63 349.579 344.803 348.823 345.148L348.501 344.266C349.397 343.855 350.275 343.65 351.133 343.65C352.16 343.65 352.939 343.916 353.471 344.448C353.975 344.952 354.227 345.661 354.227 346.576V351H353.163V349.922C352.519 350.743 351.651 351.154 350.559 351.154ZM350.769 350.286C351.441 350.286 352.011 350.104 352.477 349.74C352.944 349.376 353.177 348.909 353.177 348.34V347.668C352.468 347.463 351.763 347.36 351.063 347.36C350.401 347.36 349.883 347.495 349.509 347.766C349.136 348.027 348.949 348.387 348.949 348.844C348.949 349.283 349.122 349.633 349.467 349.894C349.822 350.155 350.256 350.286 350.769 350.286Z" fill="#404040"/>
<path d="M284.981 265.953C284.643 265.818 284.263 265.698 283.841 265.594C283.481 265.505 283.054 265.424 282.559 265.352C282.065 265.273 281.518 265.234 280.919 265.234C280.164 265.234 279.578 265.294 279.161 265.414C278.749 265.529 278.544 265.734 278.544 266.031C278.544 266.182 278.591 266.31 278.684 266.414C278.778 266.513 278.929 266.599 279.138 266.672C279.351 266.74 279.627 266.802 279.966 266.859C280.304 266.911 280.716 266.964 281.2 267.016C282.263 267.135 283.166 267.289 283.911 267.477C284.656 267.659 285.26 267.893 285.723 268.18C286.187 268.461 286.523 268.805 286.731 269.211C286.945 269.612 287.052 270.089 287.052 270.641C287.052 271.312 286.893 271.883 286.575 272.352C286.263 272.815 285.825 273.193 285.263 273.484C284.7 273.776 284.028 273.987 283.247 274.117C282.471 274.247 281.617 274.312 280.684 274.312C280.174 274.312 279.697 274.294 279.255 274.258C278.817 274.221 278.414 274.172 278.044 274.109C277.679 274.052 277.346 273.984 277.044 273.906C276.742 273.828 276.473 273.747 276.239 273.664C275.687 273.471 275.226 273.253 274.856 273.008L276.403 270.75C276.731 270.901 277.109 271.036 277.536 271.156C277.895 271.26 278.328 271.354 278.833 271.438C279.343 271.521 279.908 271.562 280.528 271.562C281.039 271.562 281.492 271.549 281.888 271.523C282.283 271.492 282.617 271.443 282.888 271.375C283.158 271.302 283.364 271.208 283.505 271.094C283.645 270.974 283.716 270.823 283.716 270.641C283.716 270.5 283.671 270.385 283.583 270.297C283.499 270.208 283.341 270.133 283.106 270.07C282.877 270.003 282.557 269.943 282.145 269.891C281.739 269.833 281.21 269.768 280.559 269.695C279.476 269.581 278.588 269.411 277.895 269.188C277.203 268.958 276.656 268.688 276.255 268.375C275.859 268.057 275.585 267.701 275.434 267.305C275.283 266.909 275.208 266.484 275.208 266.031C275.208 265.542 275.309 265.083 275.513 264.656C275.716 264.224 276.039 263.849 276.481 263.531C276.924 263.208 277.497 262.953 278.2 262.766C278.908 262.578 279.763 262.484 280.763 262.484C281.731 262.484 282.575 262.549 283.294 262.68C284.018 262.805 284.619 262.943 285.098 263.094C285.656 263.271 286.132 263.471 286.528 263.695L284.981 265.953ZM291.264 262.797H294.568V274H291.264V262.797ZM299.249 274V262.797H306.617C307.341 262.797 308.012 262.87 308.632 263.016C309.252 263.156 309.786 263.385 310.234 263.703C310.687 264.021 311.041 264.435 311.296 264.945C311.551 265.451 311.679 266.065 311.679 266.789C311.679 267.247 311.606 267.651 311.46 268C311.32 268.344 311.14 268.643 310.921 268.898C310.703 269.148 310.46 269.354 310.195 269.516C309.934 269.677 309.687 269.799 309.453 269.883L311.781 274H308.234L306.273 270.539H302.554V274H299.249ZM302.554 265.555V268.023H306.617C307.216 268.023 307.653 267.93 307.929 267.742C308.205 267.549 308.343 267.232 308.343 266.789C308.343 266.352 308.205 266.036 307.929 265.844C307.653 265.651 307.216 265.555 306.617 265.555H302.554ZM316.141 262.797H319.446V274H316.141V262.797ZM330.432 271.562C331.02 271.562 331.512 271.5 331.908 271.375C332.304 271.25 332.619 271.07 332.853 270.836C333.093 270.602 333.262 270.315 333.361 269.977C333.46 269.638 333.51 269.258 333.51 268.836V262.797H336.814V268.836C336.814 269.706 336.695 270.482 336.455 271.164C336.221 271.841 335.846 272.414 335.33 272.883C334.82 273.346 334.161 273.701 333.353 273.945C332.546 274.19 331.572 274.312 330.432 274.312C329.312 274.312 328.353 274.19 327.557 273.945C326.76 273.701 326.106 273.346 325.596 272.883C325.09 272.414 324.718 271.841 324.478 271.164C324.244 270.482 324.127 269.706 324.127 268.836V262.797H327.432V268.836C327.432 269.258 327.476 269.638 327.564 269.977C327.658 270.315 327.817 270.602 328.041 270.836C328.27 271.07 328.577 271.25 328.963 271.375C329.353 271.5 329.843 271.562 330.432 271.562ZM351.066 265.953C350.727 265.818 350.347 265.698 349.925 265.594C349.566 265.505 349.139 265.424 348.644 265.352C348.149 265.273 347.602 265.234 347.003 265.234C346.248 265.234 345.662 265.294 345.245 265.414C344.834 265.529 344.628 265.734 344.628 266.031C344.628 266.182 344.675 266.31 344.769 266.414C344.863 266.513 345.014 266.599 345.222 266.672C345.435 266.74 345.711 266.802 346.05 266.859C346.389 266.911 346.8 266.964 347.284 267.016C348.347 267.135 349.251 267.289 349.995 267.477C350.74 267.659 351.344 267.893 351.808 268.18C352.271 268.461 352.607 268.805 352.816 269.211C353.029 269.612 353.136 270.089 353.136 270.641C353.136 271.312 352.977 271.883 352.659 272.352C352.347 272.815 351.909 273.193 351.347 273.484C350.784 273.776 350.113 273.987 349.331 274.117C348.555 274.247 347.701 274.312 346.769 274.312C346.258 274.312 345.782 274.294 345.339 274.258C344.902 274.221 344.498 274.172 344.128 274.109C343.764 274.052 343.43 273.984 343.128 273.906C342.826 273.828 342.558 273.747 342.323 273.664C341.771 273.471 341.31 273.253 340.941 273.008L342.488 270.75C342.816 270.901 343.193 271.036 343.62 271.156C343.98 271.26 344.412 271.354 344.917 271.438C345.428 271.521 345.993 271.562 346.613 271.562C347.123 271.562 347.576 271.549 347.972 271.523C348.368 271.492 348.701 271.443 348.972 271.375C349.243 271.302 349.448 271.208 349.589 271.094C349.73 270.974 349.8 270.823 349.8 270.641C349.8 270.5 349.756 270.385 349.667 270.297C349.584 270.208 349.425 270.133 349.191 270.07C348.961 270.003 348.641 269.943 348.23 269.891C347.823 269.833 347.295 269.768 346.644 269.695C345.56 269.581 344.672 269.411 343.98 269.188C343.287 268.958 342.74 268.688 342.339 268.375C341.943 268.057 341.67 267.701 341.519 267.305C341.368 266.909 341.292 266.484 341.292 266.031C341.292 265.542 341.394 265.083 341.597 264.656C341.8 264.224 342.123 263.849 342.566 263.531C343.008 263.208 343.581 262.953 344.284 262.766C344.993 262.578 345.847 262.484 346.847 262.484C347.816 262.484 348.659 262.549 349.378 262.68C350.102 262.805 350.704 262.943 351.183 263.094C351.74 263.271 352.217 263.471 352.613 263.695L351.066 265.953Z" fill="#7247FF"/>
<path d="M284.981 265.953C284.643 265.818 284.263 265.698 283.841 265.594C283.481 265.505 283.054 265.424 282.559 265.352C282.065 265.273 281.518 265.234 280.919 265.234C280.164 265.234 279.578 265.294 279.161 265.414C278.749 265.529 278.544 265.734 278.544 266.031C278.544 266.182 278.591 266.31 278.684 266.414C278.778 266.513 278.929 266.599 279.138 266.672C279.351 266.74 279.627 266.802 279.966 266.859C280.304 266.911 280.716 266.964 281.2 267.016C282.263 267.135 283.166 267.289 283.911 267.477C284.656 267.659 285.26 267.893 285.723 268.18C286.187 268.461 286.523 268.805 286.731 269.211C286.945 269.612 287.052 270.089 287.052 270.641C287.052 271.312 286.893 271.883 286.575 272.352C286.263 272.815 285.825 273.193 285.263 273.484C284.7 273.776 284.028 273.987 283.247 274.117C282.471 274.247 281.617 274.312 280.684 274.312C280.174 274.312 279.697 274.294 279.255 274.258C278.817 274.221 278.414 274.172 278.044 274.109C277.679 274.052 277.346 273.984 277.044 273.906C276.742 273.828 276.473 273.747 276.239 273.664C275.687 273.471 275.226 273.253 274.856 273.008L276.403 270.75C276.731 270.901 277.109 271.036 277.536 271.156C277.895 271.26 278.328 271.354 278.833 271.438C279.343 271.521 279.908 271.562 280.528 271.562C281.039 271.562 281.492 271.549 281.888 271.523C282.283 271.492 282.617 271.443 282.888 271.375C283.158 271.302 283.364 271.208 283.505 271.094C283.645 270.974 283.716 270.823 283.716 270.641C283.716 270.5 283.671 270.385 283.583 270.297C283.499 270.208 283.341 270.133 283.106 270.07C282.877 270.003 282.557 269.943 282.145 269.891C281.739 269.833 281.21 269.768 280.559 269.695C279.476 269.581 278.588 269.411 277.895 269.188C277.203 268.958 276.656 268.688 276.255 268.375C275.859 268.057 275.585 267.701 275.434 267.305C275.283 266.909 275.208 266.484 275.208 266.031C275.208 265.542 275.309 265.083 275.513 264.656C275.716 264.224 276.039 263.849 276.481 263.531C276.924 263.208 277.497 262.953 278.2 262.766C278.908 262.578 279.763 262.484 280.763 262.484C281.731 262.484 282.575 262.549 283.294 262.68C284.018 262.805 284.619 262.943 285.098 263.094C285.656 263.271 286.132 263.471 286.528 263.695L284.981 265.953ZM291.264 262.797H294.568V274H291.264V262.797ZM299.249 274V262.797H306.617C307.341 262.797 308.012 262.87 308.632 263.016C309.252 263.156 309.786 263.385 310.234 263.703C310.687 264.021 311.041 264.435 311.296 264.945C311.551 265.451 311.679 266.065 311.679 266.789C311.679 267.247 311.606 267.651 311.46 268C311.32 268.344 311.14 268.643 310.921 268.898C310.703 269.148 310.46 269.354 310.195 269.516C309.934 269.677 309.687 269.799 309.453 269.883L311.781 274H308.234L306.273 270.539H302.554V274H299.249ZM302.554 265.555V268.023H306.617C307.216 268.023 307.653 267.93 307.929 267.742C308.205 267.549 308.343 267.232 308.343 266.789C308.343 266.352 308.205 266.036 307.929 265.844C307.653 265.651 307.216 265.555 306.617 265.555H302.554ZM316.141 262.797H319.446V274H316.141V262.797ZM330.432 271.562C331.02 271.562 331.512 271.5 331.908 271.375C332.304 271.25 332.619 271.07 332.853 270.836C333.093 270.602 333.262 270.315 333.361 269.977C333.46 269.638 333.51 269.258 333.51 268.836V262.797H336.814V268.836C336.814 269.706 336.695 270.482 336.455 271.164C336.221 271.841 335.846 272.414 335.33 272.883C334.82 273.346 334.161 273.701 333.353 273.945C332.546 274.19 331.572 274.312 330.432 274.312C329.312 274.312 328.353 274.19 327.557 273.945C326.76 273.701 326.106 273.346 325.596 272.883C325.09 272.414 324.718 271.841 324.478 271.164C324.244 270.482 324.127 269.706 324.127 268.836V262.797H327.432V268.836C327.432 269.258 327.476 269.638 327.564 269.977C327.658 270.315 327.817 270.602 328.041 270.836C328.27 271.07 328.577 271.25 328.963 271.375C329.353 271.5 329.843 271.562 330.432 271.562ZM351.066 265.953C350.727 265.818 350.347 265.698 349.925 265.594C349.566 265.505 349.139 265.424 348.644 265.352C348.149 265.273 347.602 265.234 347.003 265.234C346.248 265.234 345.662 265.294 345.245 265.414C344.834 265.529 344.628 265.734 344.628 266.031C344.628 266.182 344.675 266.31 344.769 266.414C344.863 266.513 345.014 266.599 345.222 266.672C345.435 266.74 345.711 266.802 346.05 266.859C346.389 266.911 346.8 266.964 347.284 267.016C348.347 267.135 349.251 267.289 349.995 267.477C350.74 267.659 351.344 267.893 351.808 268.18C352.271 268.461 352.607 268.805 352.816 269.211C353.029 269.612 353.136 270.089 353.136 270.641C353.136 271.312 352.977 271.883 352.659 272.352C352.347 272.815 351.909 273.193 351.347 273.484C350.784 273.776 350.113 273.987 349.331 274.117C348.555 274.247 347.701 274.312 346.769 274.312C346.258 274.312 345.782 274.294 345.339 274.258C344.902 274.221 344.498 274.172 344.128 274.109C343.764 274.052 343.43 273.984 343.128 273.906C342.826 273.828 342.558 273.747 342.323 273.664C341.771 273.471 341.31 273.253 340.941 273.008L342.488 270.75C342.816 270.901 343.193 271.036 343.62 271.156C343.98 271.26 344.412 271.354 344.917 271.438C345.428 271.521 345.993 271.562 346.613 271.562C347.123 271.562 347.576 271.549 347.972 271.523C348.368 271.492 348.701 271.443 348.972 271.375C349.243 271.302 349.448 271.208 349.589 271.094C349.73 270.974 349.8 270.823 349.8 270.641C349.8 270.5 349.756 270.385 349.667 270.297C349.584 270.208 349.425 270.133 349.191 270.07C348.961 270.003 348.641 269.943 348.23 269.891C347.823 269.833 347.295 269.768 346.644 269.695C345.56 269.581 344.672 269.411 343.98 269.188C343.287 268.958 342.74 268.688 342.339 268.375C341.943 268.057 341.67 267.701 341.519 267.305C341.368 266.909 341.292 266.484 341.292 266.031C341.292 265.542 341.394 265.083 341.597 264.656C341.8 264.224 342.123 263.849 342.566 263.531C343.008 263.208 343.581 262.953 344.284 262.766C344.993 262.578 345.847 262.484 346.847 262.484C347.816 262.484 348.659 262.549 349.378 262.68C350.102 262.805 350.704 262.943 351.183 263.094C351.74 263.271 352.217 263.471 352.613 263.695L351.066 265.953Z" fill="url(#paint12_linear_1301:2)"/>
<defs>
<linearGradient id="paint0_linear_1301:2" x1="422.294" y1="0" x2="547" y2="0" gradientUnits="userSpaceOnUse">
<stop stop-color="#E1D8FF"/>
<stop offset="1" stop-color="#F4ECFF"/>
</linearGradient>
<linearGradient id="paint1_linear_1301:2" x1="27.4118" y1="204" x2="58" y2="204" gradientUnits="userSpaceOnUse">
<stop stop-color="#E1D8FF"/>
<stop offset="1" stop-color="#F4ECFF"/>
</linearGradient>
<linearGradient id="paint2_linear_1301:2" x1="234.392" y1="246" x2="254" y2="246" gradientUnits="userSpaceOnUse">
<stop stop-color="#E1D8FF"/>
<stop offset="1" stop-color="#F4ECFF"/>
</linearGradient>
<linearGradient id="paint3_linear_1301:2" x1="108.5" y1="43" x2="12.9051" y2="131.707" gradientUnits="userSpaceOnUse">
<stop stop-color="white"/>
<stop offset="1" stop-color="#F4F9FF"/>
</linearGradient>
<linearGradient id="paint4_linear_1301:2" x1="110" y1="75" x2="110" y2="129" gradientUnits="userSpaceOnUse">
<stop stop-color="#4614E8"/>
<stop offset="1" stop-color="#BCA7FF"/>
</linearGradient>
<linearGradient id="paint5_linear_1301:2" x1="169" y1="94" x2="169" y2="118" gradientUnits="userSpaceOnUse">
<stop stop-color="#4614E8"/>
<stop offset="1" stop-color="#BCA7FF"/>
</linearGradient>
<linearGradient id="paint6_linear_1301:2" x1="129.5" y1="216" x2="47.1629" y2="288.829" gradientUnits="userSpaceOnUse">
<stop stop-color="white"/>
<stop offset="1" stop-color="#F4F9FF"/>
</linearGradient>
<linearGradient id="paint7_linear_1301:2" x1="331.5" y1="64" x2="249.163" y2="136.829" gradientUnits="userSpaceOnUse">
<stop stop-color="white"/>
<stop offset="1" stop-color="#F4F9FF"/>
</linearGradient>
<linearGradient id="paint8_linear_1301:2" x1="104.5" y1="240" x2="104.5" y2="294" gradientUnits="userSpaceOnUse">
<stop stop-color="#4614E8"/>
<stop offset="1" stop-color="#BCA7FF"/>
</linearGradient>
<linearGradient id="paint9_linear_1301:2" x1="295" y1="88" x2="295" y2="120" gradientUnits="userSpaceOnUse">
<stop stop-color="#4614E8"/>
<stop offset="1" stop-color="#BCA7FF"/>
</linearGradient>
<linearGradient id="paint10_linear_1301:2" x1="323" y1="103" x2="323" y2="127" gradientUnits="userSpaceOnUse">
<stop stop-color="#4614E8"/>
<stop offset="1" stop-color="#BCA7FF"/>
</linearGradient>
<linearGradient id="paint11_linear_1301:2" x1="338" y1="216" x2="237.16" y2="291.531" gradientUnits="userSpaceOnUse">
<stop stop-color="white"/>
<stop offset="1" stop-color="#F4F9FF"/>
</linearGradient>
<linearGradient id="paint12_linear_1301:2" x1="314" y1="248" x2="314" y2="287" gradientUnits="userSpaceOnUse">
<stop stop-color="#4614E8"/>
<stop offset="1" stop-color="#BCA7FF"/>
</linearGradient>
</defs>
</svg>
